<svg id="Capa_1" data-name="Capa 1" xmlns="http://www.w3.org/2000/svg" viewBox="0 0 304 146"><defs><style>.cls-1{fill:#3d3d3d;}.cls-2{fill:#fff;}.cls-3{fill:#9bff00;}</style></defs><title>Great</title><path class="cls-1" d="M102.89,59.15c4-.39,8-.36,11.72-1.23a24.3,24.3,0,0,0,18.56-22.07c.22-3,.41-6,2.58-8.42a10,10,0,0,1,17.67,6.38,44.37,44.37,0,0,1-6.13,22.85c-.29.5-.59,1-.88,1.48a4.16,4.16,0,0,0-.19.55c.65,0,1.24.09,1.83.09,11.9,0,23.8.28,35.68-.1,7.61-.24,14.1,6.64,10.46,14.84,9.19,5.91,9.22,14.11.06,19.4,2,7.2.46,11.16-5.82,14.35l.5,1.51c2.14,6.42-2.44,13.27-9.18,13.29-25.45.09-50.91,0-76.36,0a3.15,3.15,0,0,1-.5-.11Zm45.67,57.15V73.17h3l31.66,0a18,18,0,0,0,2.68-.14,4.21,4.21,0,0,0,3.56-3.74,4.12,4.12,0,0,0-2.71-4.38,8.17,8.17,0,0,0-2.63-.35q-19.28,0-38.56,0H143A31.89,31.89,0,0,1,131.62,86c-6.63,5.55-14.39,7.75-23,7.37v23Zm-40-28.84c14.64,1.29,27.27-9.06,28.53-23.48a11.6,11.6,0,0,1,2.63-6.45,38.08,38.08,0,0,0,7.92-23.33,4.25,4.25,0,0,0-4.18-4.55c-2.34-.06-4.09,1.61-4.36,4.17-.09.83-.12,1.66-.21,2.48-1.37,12.82-8,21.7-20,26.32-3.21,1.24-6.76,1.6-10.29,2.4Zm45.71.12h16.35c6.65,0,13.29,0,19.94,0,3.12,0,5.21-2.48,4.55-5.23C194.61,80.19,193,79,190.4,79c-3.9,0-7.8,0-11.69,0H156.08c-.89,0-1.84-.18-1.8,1.27C154.34,82.57,154.29,84.92,154.29,87.57Zm.08,14.38h1.89l14.38,0c4.47,0,8.95,0,13.42,0a8.56,8.56,0,0,0,2.82-.4,4.2,4.2,0,0,0,2.54-4.67,4.34,4.34,0,0,0-4.59-3.53q-14.67,0-29.34,0a8.59,8.59,0,0,0-1.11.15Zm-.07,14.14a2.41,2.41,0,0,0,.56.23c8.24,0,16.49.05,24.73,0a4.26,4.26,0,0,0-.08-8.52c-8-.1-16-.07-24,0-.42,0-1.17.63-1.19,1C154.25,111.24,154.3,113.72,154.3,116.1Z"/><path class="cls-2" d="M148.56,116.29H108.63v-23c8.6.38,16.36-1.82,23-7.37A31.89,31.89,0,0,0,143,64.55h2.58q19.28,0,38.56,0a8.17,8.17,0,0,1,2.63.35,4.12,4.12,0,0,1,2.71,4.38A4.21,4.21,0,0,1,185.89,73a18,18,0,0,1-2.68.14l-31.66,0h-3Z"/><path class="cls-3" d="M108.59,87.45V65c3.53-.8,7.07-1.16,10.29-2.4,12-4.62,18.68-13.5,20-26.32.09-.83.13-1.66.21-2.48.27-2.56,2-4.23,4.36-4.17a4.25,4.25,0,0,1,4.18,4.55,38.08,38.08,0,0,1-7.92,23.33A11.6,11.6,0,0,0,137.12,64C135.86,78.39,123.23,88.74,108.59,87.45Z"/><path class="cls-2" d="M154.29,87.57c0-2.65,0-5,0-7.36,0-1.44.92-1.27,1.8-1.27H178.7c3.9,0,7.8,0,11.69,0,2.61,0,4.21,1.23,4.73,3.37.67,2.75-1.43,5.22-4.55,5.23-6.65,0-13.29,0-19.94,0Z"/><path class="cls-2" d="M154.37,102V93.49a8.59,8.59,0,0,1,1.11-.15q14.67,0,29.34,0a4.34,4.34,0,0,1,4.59,3.53,4.2,4.2,0,0,1-2.54,4.67,8.56,8.56,0,0,1-2.82.4c-4.47,0-8.95,0-13.42,0l-14.38,0Z"/><path class="cls-2" d="M154.3,116.1c0-2.38-.05-4.86.06-7.33,0-.36.77-1,1.19-1,8,0,16-.08,24,0a4.26,4.26,0,0,1,.08,8.52c-8.24.06-16.49,0-24.73,0A2.41,2.41,0,0,1,154.3,116.1Z"/></svg>