<svg id="Capa_1" data-name="Capa 1" xmlns="http://www.w3.org/2000/svg" viewBox="0 0 352.14 230.42"><defs><style>.cls-1{fill:#a4ea3c;}.cls-2{font-size:22px;font-family:GothamMedium, Gotham Medium;letter-spacing:0.02em;}.cls-11,.cls-2{fill:#fff;}.cls-3{fill:#ffdbc4;}.cls-4{fill:#ffae6a;}.cls-5{fill:#593222;}.cls-6{fill:#9f2b34;}.cls-7{fill:#e7c5b2;}.cls-8{fill:#d1464c;}.cls-9{fill:#ffd9c2;}.cls-10{fill:#3c2526;}.cls-12{fill:#60c11e;}</style></defs><title>Bimestral</title><rect class="cls-1" x="20.1" y="139.98" width="311.95" height="66.48" rx="33.24" ry="33.24"/><text class="cls-2" transform="translate(102.86 185.88)">BIMESTRAL</text><path class="cls-3" d="M232.32,78.27S241.18,98,233.85,113a95.2,95.2,0,0,1,9.67,27h-26Z"/><path class="cls-4" d="M165.95,63.08S163.51,36,174.51,24c12.6,0,15.39,24.33,15.39,24.33Z"/><path class="cls-4" d="M165.72,140l-5.17-42,66.15,10.21A35.14,35.14,0,0,1,224.51,130a33.56,33.56,0,0,1-7,9.95Z"/><path class="cls-3" d="M189,130.38c23.65,3.92,42.9-21.84,39.8-35.14-4.3-18.48-55.23-27.81-65.67-12.35C155.51,94.26,164.75,126.35,189,130.38Z"/><path class="cls-5" d="M187.11,45.85S180,29,176.26,29s-8.39,30.38-8.39,30.38Z"/><path class="cls-4" d="M230.59,80.55s17.21-21.11,14.81-37.21C235,36.28,219,54.88,219,54.88Z"/><path class="cls-5" d="M222.7,54.42s15.32-10,18.43-7.9-10.05,29.87-10.05,29.87Z"/><polygon class="cls-5" points="176.26 92.65 178.55 119.89 198.82 123.67 210.93 97.95 176.26 92.65"/><polygon class="cls-6" points="180.76 112.51 180.53 100.37 194.4 97.95 204.85 105.23 198.49 116.63 180.76 112.51"/><circle class="cls-7" cx="189.04" cy="119.89" r="10.49"/><path class="cls-8" d="M187.57,123.43h0a9.1,9.1,0,0,1-6.8-10.92l4-17.27,17.73,4.12-4,17.27A9.1,9.1,0,0,1,187.57,123.43Z"/><path class="cls-4" d="M176.26,92.65l-13.08-9.75.41-9.46a29.45,29.45,0,0,1,27.93-28.15h0L202.16,55l18-3.56h0c11,11.38,16.1,29.84,8.71,43.84l-17.55.16Z"/><circle class="cls-9" cx="185.41" cy="92.65" r="9.14"/><circle class="cls-9" cx="202.16" cy="95.4" r="9.14"/><path class="cls-10" d="M190.37,83.53c-1.82-.3-3.53,2.16-3.23,4.7.6,5.11,3.37,9.09,7.26,9.72s7.78-2.27,10-6.92c1.09-2.32.24-5.18-1.58-5.48Z"/><circle class="cls-5" cx="184.45" cy="71.86" r="7.06"/><circle class="cls-5" cx="213.08" cy="78.92" r="7.06"/><circle class="cls-10" cx="185.11" cy="73.13" r="3.97"/><circle class="cls-11" cx="183.8" cy="70.48" r="1.31"/><circle class="cls-10" cx="211.83" cy="78.92" r="3.97"/><circle class="cls-11" cx="210.52" cy="76.27" r="1.31"/><path class="cls-12" d="M106.51,140.09c1.42,10.14,9.2,18,18.45,19.13,11,1.4,22.11-6.84,24.05-19.12Z"/><circle class="cls-3" cx="124.96" cy="138.33" r="13.45"/></svg>