<svg id="Capa_1" data-name="Capa 1" xmlns="http://www.w3.org/2000/svg" viewBox="0 0 352.14 230.42"><defs><style>.cls-1{fill:#734b33;}.cls-2{fill:#3c2526;}.cls-3{fill:#1c1c1c;}.cls-4{fill:#672b25;}.cls-11,.cls-5{fill:#fff;}.cls-6{fill:#b97e2f;}.cls-7{fill:#751c1c;}.cls-8{fill:#d1464c;}.cls-9{fill:#9a3231;}.cls-10{fill:#a4ea3c;}.cls-11{font-size:22px;font-family:GothamMedium, Gotham Medium;letter-spacing:0.02em;}.cls-12{fill:#60c11e;}</style></defs><title>Mensual</title><path class="cls-1" d="M139,135.21l6.35-73.56h55.24l6.4,73.56Z"/><path class="cls-2" d="M145.35,43.55h55.24a0,0,0,0,1,0,0v59.6a16.92,16.92,0,0,1-16.92,16.92h-21.4a16.92,16.92,0,0,1-16.92-16.92V43.55a0,0,0,0,1,0,0Z"/><path class="cls-3" d="M173.75,110.25h-1.56a27,27,0,0,1-26.84-27.13v14a27,27,0,0,0,26.84,27.13h1.56a27,27,0,0,0,26.84-27.13v-14A27,27,0,0,1,173.75,110.25Z"/><path class="cls-4" d="M196.36,35a19.86,19.86,0,0,0-14.12-5.91H163.69A19.86,19.86,0,0,0,149.57,35a20.3,20.3,0,0,0-5.85,14.27v5.49a20.38,20.38,0,0,0,1.43,7.5l10.27,26L173,70.49l17.55,17.74,10.27-26a20.38,20.38,0,0,0,1.43-7.5V49.29A20.3,20.3,0,0,0,196.36,35Z"/><path class="cls-4" d="M196.36,35a19.86,19.86,0,0,0-14.12-5.91H163.69A19.86,19.86,0,0,0,149.57,35a20.3,20.3,0,0,0-5.85,14.27v5.49a20.38,20.38,0,0,0,1.43,7.5l10.27,26L173,70.49l17.55,17.74,10.27-26a20.38,20.38,0,0,0,1.43-7.5V49.29A20.3,20.3,0,0,0,196.36,35Z"/><path class="cls-4" d="M196.36,35a19.86,19.86,0,0,0-14.12-5.91H163.69A19.86,19.86,0,0,0,149.57,35a20.3,20.3,0,0,0-5.85,14.27v5.49a20.38,20.38,0,0,0,1.43,7.5l10.27,26L173,70.49l17.55,17.74,10.27-26a20.38,20.38,0,0,0,1.43-7.5V49.29A20.3,20.3,0,0,0,196.36,35Z"/><path class="cls-4" d="M196.36,35a19.86,19.86,0,0,0-14.12-5.91H163.69A19.86,19.86,0,0,0,149.57,35a20.3,20.3,0,0,0-5.85,14.27v5.49a20.38,20.38,0,0,0,1.43,7.5l10.27,26L173,70.49l17.55,17.74,10.27-26a20.38,20.38,0,0,0,1.43-7.5V49.29A20.3,20.3,0,0,0,196.36,35Z"/><path class="cls-4" d="M196.36,35a19.86,19.86,0,0,0-14.12-5.91H163.69A19.86,19.86,0,0,0,149.57,35a20.3,20.3,0,0,0-5.85,14.27v5.49a20.38,20.38,0,0,0,1.43,7.5l10.27,26L173,70.49l17.55,17.74,10.27-26a20.38,20.38,0,0,0,1.43-7.5V49.29A20.3,20.3,0,0,0,196.36,35Z"/><path class="cls-1" d="M196.36,35a19.86,19.86,0,0,0-14.12-5.91H163.69A19.86,19.86,0,0,0,149.57,35a20.3,20.3,0,0,0-5.85,14.27v5.49a20.38,20.38,0,0,0,1.43,7.5l10.27,26L173,70.49l17.55,17.74,10.27-26a20.38,20.38,0,0,0,1.43-7.5V49.29A20.3,20.3,0,0,0,196.36,35Z"/><ellipse class="cls-2" cx="161.49" cy="52.56" rx="5.1" ry="5.15"/><ellipse class="cls-2" cx="184.44" cy="52.56" rx="5.1" ry="5.15"/><path class="cls-2" d="M160.86,28.76H146.92c-7.24,0-14,5.4-18,14.4l-2.1,4.69c-2.46,5.52-2,12.87,1.16,17.55h0c3.93,5.86,10.4,5.33,13.87-1.15Z"/><path class="cls-2" d="M182.77,28.76h13.94c7.24,0,14,5.4,18,14.4l2.1,4.69c2.46,5.52,2,12.87-1.16,17.55h0c-3.93,5.86-10.4,5.33-13.87-1.15Z"/><ellipse class="cls-5" cx="158.91" cy="50.2" rx="1.86" ry="1.88"/><ellipse class="cls-5" cx="181.99" cy="50.2" rx="1.86" ry="1.88"/><path class="cls-6" d="M190.52,88.23a17.58,17.58,0,1,1-35.1,0L173,70.49Z"/><path class="cls-2" d="M166,65.89a2.85,2.85,0,0,0-2.63,3.91,10.16,10.16,0,0,0,18.87,0,2.85,2.85,0,0,0-2.63-3.91Z"/><path class="cls-6" d="M155.42,88.23l-6.07-15.34a48.68,48.68,0,0,0,23.43,20.58Z"/><path class="cls-6" d="M190.52,88.23l6.07-15.34a48.68,48.68,0,0,1-23.43,20.58Z"/><path class="cls-7" d="M177.53,102.48a12.65,12.65,0,0,1-8.76,0c-4.92-1.88-8.33-6.92-8.76-12.91h26.27C185.86,95.55,182.45,100.6,177.53,102.48Z"/><path class="cls-8" d="M166.77,89.61v0h12.77v0a6.42,6.42,0,0,1-6.38,6.45h0A6.42,6.42,0,0,1,166.77,89.61Z"/><polygon class="cls-9" points="166.77 91.67 173.15 93.01 179.54 91.67 179.54 89.57 166.77 89.57 166.77 91.67"/><rect class="cls-10" x="20.1" y="135.17" width="311.95" height="66.48" rx="33.24" ry="33.24"/><text class="cls-11" transform="translate(114.87 181.07)">MENSUAL</text><path class="cls-12" d="M101.19,135.28c-1.39,10.42,8.25,19.24,19.08,19.12,10.66-.11,20-8.87,18.59-19.12Z"/><path class="cls-12" d="M207.13,135.28c-1.39,10.42,8.25,19.24,19.08,19.12,10.66-.11,20-8.87,18.59-19.12Z"/><circle class="cls-1" cx="119.5" cy="135.17" r="13.5"/><circle class="cls-1" cx="224.13" cy="135.17" r="13.5"/></svg>