<svg id="Capa_1" data-name="Capa 1" xmlns="http://www.w3.org/2000/svg" viewBox="0 0 400 180"><defs><style>.cls-1{fill:#fff;}.cls-2{fill:#c2fb5e;}.cls-3{fill:#60c11e;}.cls-4{fill:#baf832;}.cls-5{fill:#9bff00;}.cls-6{fill:#72c82d;}.cls-7{fill:#cbcbcb;}.cls-8{fill:#a4ea3c;}.cls-9{fill:none;stroke:#3d3d3d;stroke-linecap:round;stroke-miterlimit:10;}.cls-10{fill:#3d3d3d;}.cls-11{fill:#e0f7c1;}</style></defs><title>box</title><rect class="cls-1" width="400" height="180"/><polygon class="cls-2" points="201 78.74 283.21 39.14 282.12 64.41 200.05 100.74 201 78.74"/><polygon class="cls-3" points="124.46 73.07 131.66 138.47 201.09 168.23 200.05 100.74 124.46 73.07"/><polygon class="cls-4" points="275.53 67.32 272.72 132.48 201.09 168.23 200.05 100.74 275.53 67.32"/><polygon class="cls-5" points="116.79 48.34 201 78.74 283.21 39.14 200.26 11.77 116.79 48.34"/><polygon class="cls-6" points="116.79 48.34 118.41 70.86 200.05 100.74 201 78.74 116.79 48.34"/><path class="cls-7" d="M201.9,31.73,182.71,44.38c-6.28,4.14-6.2,10.73.19,14.71s16.65,3.85,22.93-.29L225,46.14Z"/><path class="cls-8" d="M200.69,30.82,181.5,43.48c-6.28,4.14-6.2,10.73.19,14.71s16.65,3.85,22.93-.29l19.19-12.66Z"/><path class="cls-3" d="M222.08,43.77l3.13,2L203.5,60s-13.38,5.2-22.71-2.49c2.74,1.71,14.36,4,21.41-.66Z"/><polygon class="cls-3" points="184.1 55.95 208.63 55.64 218.11 49.38 193.65 49.7 184.1 55.95"/><path class="cls-9" d="M199,29.62,179.81,42.28C173.53,46.42,173.62,53,180,57s16.65,3.85,22.93-.29L222.13,44Z"/><polygon class="cls-3" points="185.52 56.34 185.33 40.96 194.6 34.84 194.79 50.19 185.52 56.34"/><path class="cls-3" d="M196.79,55.9a12.61,12.61,0,0,1-12.52.16c-3.49-2.17-3.53-5.77-.1-8a12.61,12.61,0,0,1,12.52-.16C200.18,50,200.22,53.63,196.79,55.9Z"/><path class="cls-10" d="M220.87,39.47l-14.24-8.88a.32.32,0,0,1,0-.59l.3-.2a.93.93,0,0,1,.92,0l14.24,8.88a.32.32,0,0,1,0,.59l-.3.2A.93.93,0,0,1,220.87,39.47Z"/><polygon class="cls-11" points="183.32 54.74 183.12 39.29 192.5 33.1 192.7 48.51 183.32 54.74"/><polygon class="cls-11" points="183.15 54.64 207.76 54.32 217.32 48 192.8 48.32 183.15 54.64"/><path class="cls-10" d="M191.52,34.94l.17,13.16L184.29,53l-.17-13.19,7.4-4.88m1-1.84-9.39,6.19.2,15.57,9.39-6.23-.2-15.53Z"/><path class="cls-10" d="M213.81,49l-6.36,4.28-21.06.27,6.54-4.28L213.81,49m3.34-1h0Zm0,0-24.52.31L183,54.64l24.79-.32L217.15,48Z"/><path class="cls-11" d="M195.84,54.58a12.61,12.61,0,0,1-12.52.16c-3.49-2.17-3.53-5.77-.1-8a12.61,12.61,0,0,1,12.52-.16C199.22,48.73,199.27,52.32,195.84,54.58Z"/><path class="cls-9" d="M195.84,54.58a12.61,12.61,0,0,1-12.52.16c-3.49-2.17-3.53-5.77-.1-8a12.61,12.61,0,0,1,12.52-.16C199.22,48.73,199.27,52.32,195.84,54.58Z"/><polygon class="cls-10" points="186.04 52.44 191.69 48.71 193.47 49.81 187.82 53.54 186.04 52.44"/><polygon class="cls-10" points="190.26 47.82 193.47 49.81 191.72 50.97 188.52 48.97 190.26 47.82"/><path class="cls-9" d="M203.09,27.6l-3.18-2-23.8,15.7c-6.41,4.23-7.47,10.52-3.22,15.36"/><path class="cls-9" d="M181.22,61.8c7.62,2.46,17.22,1.57,23.55-2.6l23.8-15.7-3.2-2"/><path class="cls-10" d="M177.06,60.65l-2.21-1.38a.32.32,0,0,1,0-.59l.3-.2a.93.93,0,0,1,.92,0l2.21,1.38a.32.32,0,0,1,0,.59l-.3.2A.93.93,0,0,1,177.06,60.65Z"/><path class="cls-9" d="M227.08,34.59a3.35,3.35,0,0,0,2.47-.77,1.2,1.2,0,0,0,0-1.86,2.61,2.61,0,0,0-1-.55,3.66,3.66,0,0,0-3.07.34s-.12.2-.26.2-.23-.13-.25-.16a45.68,45.68,0,0,0-6.84-4.27s-.24-.07-.24-.15.23-.15.3-.17a1.27,1.27,0,0,0,.44-2,2.29,2.29,0,0,0-.88-.61,3.87,3.87,0,0,0-2.9,0c-.86.39-1.24,1-1.12,1.61,0,.24-.26.44-.63.42a3.35,3.35,0,0,0-2.47.77,1.2,1.2,0,0,0,0,1.86,2.61,2.61,0,0,0,1,.55,3.66,3.66,0,0,0,3.07-.34c0-.05.14-.22.28-.22a.32.32,0,0,1,.23.14,39.56,39.56,0,0,0,6.74,4.21c.06,0,.4.12.38.23s-.12.08-.28.15a1.69,1.69,0,0,0-.37.29,1.24,1.24,0,0,0,.18,2,3.69,3.69,0,0,0,3.88.07,1.37,1.37,0,0,0,.73-1.41C226.39,34.76,226.72,34.56,227.08,34.59Z"/><path class="cls-10" d="M209.13,23.8a1.51,1.51,0,0,1-1.5,0,.53.53,0,0,1,0-1,1.51,1.51,0,0,1,1.5,0A.53.53,0,0,1,209.13,23.8Z"/><path class="cls-10" d="M232.21,38.19a1.51,1.51,0,0,1-1.5,0,.53.53,0,0,1,0-1,1.51,1.51,0,0,1,1.5,0A.53.53,0,0,1,232.21,38.19Z"/></svg>