<svg id="Capa_1" data-name="Capa 1" xmlns="http://www.w3.org/2000/svg" viewBox="0 0 314 136"><defs><style>.cls-1{fill:#fff;}.cls-2{fill:#3d3d3d;}.cls-3{fill:#9bff00;}</style></defs><title>icon</title><rect class="cls-1" width="314" height="136"/><path class="cls-2" d="M106.84,68.48V95.56h28V68.48ZM129.2,90.1H112.49V73.94H129.2Z"/><path class="cls-2" d="M179.75,68.48V95.56h28V68.48ZM202.1,90.1H185.39V73.94H202.1Z"/><polygon class="cls-3" points="143.07 73.76 143.07 100.84 148.35 100.84 148.35 79.13 165.78 79.13 165.78 100.84 171.07 100.84 171.07 73.76 143.07 73.76"/><polygon class="cls-2" points="109.44 50.65 205.26 50.65 217.51 67.88 223.89 67.88 207.75 45.17 106.84 45.17 89.97 67.88 96.64 67.88 109.44 50.65"/><rect class="cls-2" x="180.97" y="33.94" width="11.23" height="12.15"/><rect class="cls-3" x="139.16" y="97.32" width="35.58" height="4.74"/></svg>