<svg id="Capa_1" data-name="Capa 1" xmlns="http://www.w3.org/2000/svg" viewBox="0 0 314 136"><defs><style>.cls-1{fill:#fff;}.cls-2{fill:#3d3d3d;}.cls-3{fill:#9bff00;}</style></defs><title>icon</title><rect class="cls-1" width="314" height="136"/><path class="cls-2" d="M216.42,32.62H130.77A8.41,8.41,0,0,0,122.37,41V95a8.41,8.41,0,0,0,8.41,8.41h85.64A8.41,8.41,0,0,0,224.82,95V41A8.41,8.41,0,0,0,216.42,32.62Zm3.5,61.6a3.72,3.72,0,0,1-3.72,3.72H131.52a3.72,3.72,0,0,1-3.72-3.72V41.33a3.72,3.72,0,0,1,3.72-3.72h84.67a3.72,3.72,0,0,1,3.72,3.72Z"/><rect class="cls-2" x="126.75" y="45.23" width="96.15" height="5.16"/><rect class="cls-2" x="126.75" y="58.02" width="96.15" height="5.16"/><rect class="cls-3" x="146.45" y="69.18" width="19.83" height="5.39" rx="0.96" ry="0.96"/><rect class="cls-3" x="89.18" y="68" width="23.91" height="5.39" rx="0.96" ry="0.96"/><rect class="cls-3" x="102.4" y="57.9" width="15.41" height="5.39" rx="0.96" ry="0.96"/><rect class="cls-3" x="95.92" y="81.07" width="21.89" height="5.39" rx="0.96" ry="0.96"/><rect class="cls-2" x="136.53" y="78.38" width="19.83" height="5.39" rx="0.96" ry="0.96"/><circle class="cls-3" cx="139.22" cy="71.87" r="2.69"/><circle class="cls-2" cx="163.66" cy="81.07" r="2.69"/><path class="cls-2" d="M186.25,69.12a12,12,0,1,0,12,12A12,12,0,0,0,186.25,69.12Zm0,18.95a7,7,0,1,1,7-7A7,7,0,0,1,186.25,88.06Z"/><path class="cls-3" d="M198.2,69.12a12,12,0,1,0,12,12A12,12,0,0,0,198.2,69.12Zm0,18.95a7,7,0,1,1,7-7A7,7,0,0,1,198.2,88.06Z"/></svg>