<svg id="Capa_1" data-name="Capa 1" xmlns="http://www.w3.org/2000/svg" viewBox="0 0 314 136"><defs><style>.cls-1{fill:#fff;}.cls-2,.cls-3,.cls-5{fill:#3d3d3d;stroke:#3d3d3d;stroke-miterlimit:10;}.cls-2{stroke-width:2px;}.cls-3{stroke-width:3px;}.cls-4{fill:#9bff00;}.cls-6{fill:#e0f7c1;}</style></defs><title>icon</title><rect class="cls-1" width="314" height="136"/><path class="cls-2" d="M197.36,93.51c-1.28-13-2.36-26-3.52-39-.68-7.66-1.31-15.32-2-23-.3-3.16-1.05-3.75-4.27-3.76l-4.51,0h-2.18c-.69,0-1.38,0-2.07.05a3.71,3.71,0,0,1-.81-.05H136.24a3.5,3.5,0,0,1-.71,0c-.86,0-1.73,0-2.6,0h-2.48l-3.69,0c-3.57,0-4.17.67-4.49,4.28-1,11.33-2,22.66-3,34-.85,9.57-1.73,19.14-2.51,28.71-.4,5,1.77,8.73,5.76,11.59,3.24,2.32,6.89,2.83,10.72,2.83,13,0,26,0,39,0,4.15,0,8.31.05,12.45-.23A13.74,13.74,0,0,0,197.36,93.51Zm-15.08,10.28c-16.84.11-33.68.06-50.52,0-3.18,0-6.2-.92-8.1-3.64a7.85,7.85,0,0,1-1.6-4.63c1.72-20.67,3.6-41.33,5.47-62.27h20.35v0h17v0h13.53v.08h8.08c.24,2.31.52,4.72.74,7.13Q189.6,66.74,191.92,93C192.51,99.88,189.19,103.74,182.28,103.79Z"/><path class="cls-3" d="M156.08,80.1l-6.69,3.52a2.11,2.11,0,0,1-3.06-2.23l1.28-7.45a2.11,2.11,0,0,0-.61-1.87l-5.42-5.28a2.11,2.11,0,0,1,1.17-3.6l7.48-1.09A2.11,2.11,0,0,0,151.83,61l3.35-6.78a2.11,2.11,0,0,1,3.79,0L162.31,61a2.11,2.11,0,0,0,1.59,1.15l7.48,1.09a2.11,2.11,0,0,1,1.17,3.6l-5.42,5.28a2.11,2.11,0,0,0-.61,1.87l1.28,7.45a2.11,2.11,0,0,1-3.06,2.23L158,80.1A2.11,2.11,0,0,0,156.08,80.1Z"/><path class="cls-4" d="M156.66,74.91l-4.55,2.39a.88.88,0,0,1-1.27-.93l.87-5.07a.88.88,0,0,0-.25-.78l-3.68-3.59a.88.88,0,0,1,.49-1.5l5.09-.74a.88.88,0,0,0,.66-.48l2.28-4.61a.88.88,0,0,1,1.57,0l2.28,4.61a.88.88,0,0,0,.66.48l5.09.74a.88.88,0,0,1,.49,1.5l-3.68,3.59a.88.88,0,0,0-.25.78l.87,5.07a.88.88,0,0,1-1.27.93l-4.55-2.39A.88.88,0,0,0,156.66,74.91Z"/><path class="cls-3" d="M260.06,83c-.87-8.8-1.6-17.6-2.38-26.41-.46-5.18-.89-10.36-1.38-15.54-.2-2.14-.71-2.54-2.89-2.54l-3.05,0h-1.48l-1.4,0a2.51,2.51,0,0,1-.55,0H218.72a2.36,2.36,0,0,1-.48,0l-1.76,0H212.3c-2.41,0-2.82.45-3,2.9-.66,7.67-1.36,15.33-2,23-.57,6.47-1.17,12.95-1.7,19.42a8.36,8.36,0,0,0,3.9,7.84,11.87,11.87,0,0,0,7.25,1.91c8.79,0,17.58,0,26.37,0,2.81,0,5.62,0,8.42-.15A9.29,9.29,0,0,0,260.06,83Zm-10.2,7c-11.39.07-22.78,0-34.17,0a6.32,6.32,0,0,1-5.48-2.46,5.31,5.31,0,0,1-1.08-3.13c1.16-14,2.44-28,3.7-42.13H226.6v0h11.52v0h9.15v.06h5.47c.16,1.57.35,3.19.5,4.82q1.59,17.79,3.15,35.57C256.78,87.33,254.53,89.95,249.86,90Z"/><rect class="cls-5" x="219.4" y="56.8" width="26.33" height="14.99" rx="6.24" ry="6.24"/><rect class="cls-6" x="222.69" y="59.4" width="19.75" height="9.78" rx="4.08" ry="4.08"/><path class="cls-3" d="M108.59,83c-.87-8.8-1.6-17.6-2.38-26.41-.46-5.18-.89-10.36-1.38-15.54-.2-2.14-.71-2.54-2.89-2.54l-3.05,0H97.41l-1.4,0a2.51,2.51,0,0,1-.55,0H67.24a2.36,2.36,0,0,1-.48,0l-1.76,0H60.83c-2.41,0-2.82.45-3,2.9-.66,7.67-1.36,15.33-2,23-.57,6.47-1.17,12.95-1.7,19.42a8.36,8.36,0,0,0,3.9,7.84A11.87,11.87,0,0,0,65.2,93.6c8.79,0,17.58,0,26.37,0,2.81,0,5.62,0,8.42-.15A9.29,9.29,0,0,0,108.59,83Zm-10.2,7C87,90,75.6,90,64.21,90a6.32,6.32,0,0,1-5.48-2.46,5.31,5.31,0,0,1-1.08-3.13c1.16-14,2.44-28,3.7-42.13H75.12v0H86.63v0h9.15v.06h5.47c.16,1.57.35,3.19.5,4.82q1.59,17.79,3.15,35.57C105.31,87.33,103.06,89.95,98.38,90Z"/><rect class="cls-3" x="67.92" y="56.8" width="26.33" height="14.99" rx="6.24" ry="6.24"/><rect class="cls-6" x="71.22" y="59.4" width="19.75" height="9.78" rx="4.08" ry="4.08"/></svg>