<svg id="Capa_1" data-name="Capa 1" xmlns="http://www.w3.org/2000/svg" viewBox="0 0 314 136"><defs><style>.cls-1{fill:#fff;}.cls-2{fill:#3d3d3d;stroke:#3d3d3d;stroke-miterlimit:10;stroke-width:3px;}.cls-3{fill:#9bff00;}</style></defs><title>icon</title><rect class="cls-1" width="314" height="136"/><path class="cls-2" d="M195,30h-2.1q-36,0-72,0c-1.6,0-2.09.35-2.08,2q.09,36,0,72c0,.59,0,1.17,0,1.93.81,0,1.48.11,2.16.11h62.29c2.27,0,3.08.45,3.08,1.71s-.82,1.69-3.09,1.69H118.62c-2.76,0-3.06-.3-3.06-3q0-38.43,0-76.86c0-2.63.32-2.94,3-2.94H195.4c2.64,0,3,.35,3,3q0,38.51,0,77c0,.48.16,1.11-.08,1.42-.44.57-1.1,1.26-1.72,1.32-.46,0-1.17-.77-1.45-1.35A4.72,4.72,0,0,1,195,106q0-36.89,0-73.78C195,31.55,195,30.87,195,30Z"/><path class="cls-2" d="M165.48,50.42h16.4c.38,0,.87-.13,1.11.07.48.39,1.1.95,1.12,1.46s-.59,1.13-1.07,1.45a3,3,0,0,1-1.53.15H149.29c-2,0-2.77-.46-2.66-1.62.17-1.73,1.47-1.51,2.6-1.51Z"/><path class="cls-2" d="M165.41,85.58H149.16c-.47,0-1.06.12-1.39-.12s-1.07-1-1.06-1.48.64-1.08,1.12-1.44c.29-.22.83-.09,1.25-.09h32.63c.43,0,1-.13,1.25.09.48.36,1.11.94,1.12,1.44s-.58,1.13-1.06,1.48-.92.12-1.39.12Z"/><path class="cls-3" d="M148.37,70.56a2.13,2.13,0,0,1-1.21-.31A3,3,0,0,1,145.71,68a3.56,3.56,0,0,1,1.38-2.19,1.65,1.65,0,0,1,1.11-.37l.42,0h33.57l.41,0a1.84,1.84,0,0,1,1.2.37A3.27,3.27,0,0,1,185.1,68a3.13,3.13,0,0,1-1.41,2.21,2.13,2.13,0,0,1-1.23.33H148.8Z"/><path class="cls-3" d="M148.2,66.43c.21,0,.46,0,.66,0h33.06l.68,0a.9.9,0,0,1,.57.14A2.31,2.31,0,0,1,184.1,68a2.18,2.18,0,0,1-1,1.4,1.17,1.17,0,0,1-.67.15l-.72,0H149.11l-.74,0a1.17,1.17,0,0,1-.65-.15c-.45-.3-1-.92-1-1.36a2.75,2.75,0,0,1,1-1.51.67.67,0,0,1,.45-.12m0-2a2.59,2.59,0,0,0-1.78.62,4.45,4.45,0,0,0-1.71,2.87c-.12,1.73,1.55,2.94,1.89,3.16a3.14,3.14,0,0,0,1.76.48l.49,0H182l.48,0a3.13,3.13,0,0,0,1.81-.51,4.12,4.12,0,0,0,1.84-3,4.17,4.17,0,0,0-1.68-3,2.84,2.84,0,0,0-1.83-.59l-.47,0H148.69l-.49,0Z"/><path class="cls-2" d="M135.87,57.88a5.92,5.92,0,0,1-6-5.95,5.93,5.93,0,0,1,11.87,0A5.85,5.85,0,0,1,135.87,57.88Zm0-8.7A2.71,2.71,0,0,0,133.07,52a2.85,2.85,0,0,0,2.83,2.82,2.94,2.94,0,0,0,2.81-2.89A2.8,2.8,0,0,0,135.84,49.18Z"/><path class="cls-2" d="M135.91,78.11a5.87,5.87,0,0,1,5.88,6A5.94,5.94,0,0,1,135.9,90a6,6,0,0,1-6-6A5.93,5.93,0,0,1,135.91,78.11Zm-.05,8.71A2.8,2.8,0,0,0,138.71,84a2.94,2.94,0,0,0-2.83-2.87A2.84,2.84,0,0,0,133.07,84,2.71,2.71,0,0,0,135.85,86.82Z"/><path class="cls-1" d="M135.84,49.18a2.8,2.8,0,0,1,2.87,2.75,2.94,2.94,0,0,1-2.81,2.89A2.85,2.85,0,0,1,133.07,52,2.71,2.71,0,0,1,135.84,49.18Z"/><path class="cls-1" d="M135.85,86.82A2.71,2.71,0,0,1,133.07,84a2.84,2.84,0,0,1,2.82-2.83A2.94,2.94,0,0,1,138.71,84,2.8,2.8,0,0,1,135.85,86.82Z"/><circle class="cls-3" cx="135.77" cy="65.68" r="3.71"/><path class="cls-3" d="M142.38,74a3.48,3.48,0,0,0,0-.41c0-2.63-2.93-4.75-6.55-4.75S129.3,71,129.3,73.61a3.48,3.48,0,0,0,0,.41Z"/></svg>