<svg id="Capa_1" data-name="Capa 1" xmlns="http://www.w3.org/2000/svg" viewBox="0 0 314 136"><defs><style>.cls-1{fill:#fff;}.cls-2{fill:#e0f7c1;}.cls-3{fill:#3d3d3d;stroke:#3d3d3d;stroke-miterlimit:10;stroke-width:2px;}.cls-4{fill:none;}.cls-5{fill:#9bff00;}</style></defs><title>icon</title><rect class="cls-1" width="314" height="136"/><ellipse class="cls-2" cx="167.72" cy="61.11" rx="55.39" ry="39.33" transform="translate(5.91 136.5) rotate(-45)"/><path class="cls-3" d="M98.28,69.29c0-9,.06-18.09,0-27.13a4.26,4.26,0,0,1,2.76-4.4q22.25-10.66,44.43-21.48a4.87,4.87,0,0,1,4.74,0q22.55,11,45.18,21.86c1.76.85,2.18,2.17,2.18,3.91q0,12.52,0,25c0,9.75,0,19.49,0,29.24a4.28,4.28,0,0,1-2.75,4.41q-22.34,10.72-44.6,21.61a4.87,4.87,0,0,1-4.73,0Q123.29,111.5,101,100.83a4.32,4.32,0,0,1-2.8-4.41C98.32,87.38,98.28,78.33,98.28,69.29Zm5.57-24.05c-.05.58-.1.85-.1,1.12,0,16.06,0,32.12,0,48.18,0,1.36.66,1.78,1.67,2.26q18.92,9.12,37.82,18.29c.52.25,1.09.43,1.65.64a3.42,3.42,0,0,0,.17-.62c0-16.2,0-32.4,0-48.6a2.77,2.77,0,0,0-1.42-1.9c-4.87-2.47-9.8-4.81-14.71-7.21Zm88.17,0c-.9.39-1.53.63-2.13.92-4.22,2-8.41,4.17-12.67,6.13a2.78,2.78,0,0,0-1.91,3c.11,4.48.06,9,0,13.46,0,1.87-1.18,3.16-2.73,3.06-1.76-.12-2.57-1.26-2.69-2.93-.05-.7,0-1.4,0-2.1,0-3.49,0-7,0-10.73-.82.34-1.4.54-1.95.81-5.23,2.54-10.43,5.13-15.69,7.6a2.69,2.69,0,0,0-1.8,2.85c.06,15.57,0,31.13,0,46.7,0,.58.09,1.16.15,1.86.61-.25,1-.38,1.37-.56,12.85-6.22,25.69-12.47,38.57-18.63C191.89,96,192,95.18,192,94q0-23.35,0-46.7C192,46.68,192,46.07,192,45.2Zm-84.61-4.4a7.91,7.91,0,0,0,.76.52Q127.43,50.68,146.73,60a3.3,3.3,0,0,0,2.48-.14c5.06-2.39,10.08-4.88,15.11-7.35.85-.42,1.69-.85,2.82-1.42-13.47-6.53-26.56-12.89-39.67-19.21a2.25,2.25,0,0,0-1.72,0C119.69,34.78,113.67,37.74,107.41,40.8Zm25.73-12.46a4.36,4.36,0,0,0,.57.52q19.34,9.39,38.69,18.75a2.32,2.32,0,0,0,1.74.15c4.67-2.2,9.29-4.49,14-6.79a5.18,5.18,0,0,0-.65-.48q-19.34-9.39-38.69-18.75a2.3,2.3,0,0,0-1.73-.13C142.49,23.77,137.92,26,133.14,28.34Z"/><path class="cls-1" d="M103.85,45.23l25,12.17c4.91,2.39,9.84,4.74,14.71,7.21a2.77,2.77,0,0,1,1.42,1.9c.07,16.2,0,32.4,0,48.6a3.42,3.42,0,0,1-.17.62c-.57-.22-1.13-.39-1.65-.64q-18.91-9.15-37.82-18.29c-1-.49-1.68-.9-1.67-2.26.06-16.06,0-32.12,0-48.18C103.74,46.09,103.79,45.82,103.85,45.23Z"/><path class="cls-4" d="M192,45.2c0,.87,0,1.48,0,2.08q0,23.35,0,46.7c0,1.21-.15,2-1.43,2.66C177.72,102.8,164.88,109,152,115.26c-.37.18-.76.31-1.37.56-.06-.71-.15-1.29-.15-1.86,0-15.57,0-31.13,0-46.7a2.69,2.69,0,0,1,1.8-2.85c5.26-2.47,10.46-5.06,15.69-7.6.55-.27,1.13-.47,1.95-.81,0,3.74,0,7.24,0,10.73,0,.7,0,1.41,0,2.1.12,1.67.93,2.81,2.69,2.93,1.55.11,2.71-1.18,2.73-3.06,0-4.49.09-9,0-13.46a2.78,2.78,0,0,1,1.91-3c4.26-2,8.45-4.08,12.67-6.13C190.49,45.83,191.12,45.59,192,45.2Z"/><path class="cls-5" d="M107.41,40.8c6.25-3.06,12.28-6,18.33-8.93a2.25,2.25,0,0,1,1.72,0c13.11,6.31,26.2,12.67,39.67,19.21-1.13.57-2,1-2.82,1.42-5,2.46-10,5-15.11,7.35a3.3,3.3,0,0,1-2.48.14q-19.31-9.25-38.56-18.65A7.91,7.91,0,0,1,107.41,40.8Z"/><path class="cls-5" d="M133.14,28.34c4.78-2.32,9.35-4.57,14-6.73a2.3,2.3,0,0,1,1.73.13q19.36,9.34,38.69,18.75a5.18,5.18,0,0,1,.65.48c-4.73,2.3-9.35,4.59-14,6.79a2.32,2.32,0,0,1-1.74-.15Q153,38.27,133.71,28.86A4.36,4.36,0,0,1,133.14,28.34Z"/></svg>