<svg id="Capa_1" data-name="Capa 1" xmlns="http://www.w3.org/2000/svg" viewBox="0 0 314 136"><defs><style>.cls-1{fill:#fff;}.cls-2{fill:#e0f7c1;}.cls-3,.cls-6{fill:#3d3d3d;}.cls-3{stroke:#3d3d3d;stroke-miterlimit:10;stroke-width:2px;}.cls-4{fill:none;}.cls-5{fill:#9bff00;}</style></defs><title>icon</title><rect class="cls-1" width="314" height="136"/><ellipse class="cls-2" cx="157" cy="68" rx="55.39" ry="39.33" transform="translate(-2.1 130.93) rotate(-45)"/><path class="cls-3" d="M157,98.28l-12.63,21.85a4.27,4.27,0,0,1-.67,1.11c-1,.85-1.93,2.19-3,2.31-1.65.19-2-1.6-2.32-2.93q-2-7.34-3.93-14.67c-.17-.61-.38-1.21-.63-2-5.34,1.44-10.56,2.86-15.79,4.24-1.55.41-3.26,1.45-4.56-.36-1.19-1.66.11-3,.88-4.35,4-7,8-13.91,12.08-21a42.9,42.9,0,0,1-9.16-15.65,41.75,41.75,0,1,1,81.47-10.73,40,40,0,0,1-9.85,24.76,2.42,2.42,0,0,0-.28,3.36c3.92,6.59,7.7,13.27,11.55,19.91.71,1.23,1.6,2.67.31,3.71a4.61,4.61,0,0,1-3.52.51c-5.54-1.36-11-2.93-16.76-4.49L176.58,117a27.41,27.41,0,0,1-1.17,4.17c-.43.95-1.28,2.23-2.08,2.34a3.57,3.57,0,0,1-2.64-1.69c-3.12-5.13-6.07-10.37-9.08-15.57C160.14,103.71,158.65,101.17,157,98.28Zm37.1-43.93a37,37,0,0,0-36.8-37.3c-20.24,0-37,16.26-37.42,35.84-.42,21.8,17,38.11,36,38.23C177.23,91.27,194,75.07,194.06,54.36ZM172.22,115.3c1.37-5,2.54-9.4,3.76-13.77.73-2.64,1.44-3,4.06-2.35l13.87,3.62L184.1,85.86a42.11,42.11,0,0,1-23.19,9.87ZM120,102.82c5.13-1.35,9.66-2.56,14.19-3.73,2.19-.57,3.05-.09,3.67,2.12,1.05,3.76,2,7.53,3.06,11.29.21.77.48,1.52.86,2.71L153,95.69a42.73,42.73,0,0,1-23.19-9.8Z"/><path class="cls-4" d="M194.06,54.36c-.07,20.71-16.83,36.92-38.18,36.77-19.07-.13-36.46-16.43-36-38.23C120.21,33.33,137,17,157.26,17.06A37,37,0,0,1,194.06,54.36ZM155.2,64.11c-1.26,0-2.34.09-3.4,0-1.82-.19-2.21.73-2.17,2.32s0,2.91,2.17,2.87c4-.08,8-.07,11.94,0,1.61,0,2.16-.64,2.18-2.18,0-2.76-.1-3-2.84-3-.55,0-1.11-.08-1.83-.13,0-.91,0-1.69,0-2.48,0-6.23,0-12.45,0-18.68,0-3.22-1.36-4.42-4.52-3.64a67.81,67.81,0,0,0-7.34,2.59c-2.3.86-.75,2.39-.51,3.62.28,1.45,1.23,1.55,2.45,1s2.48-.92,3.86-1.42Zm4-40.27c-.23-1.92-1.52-2.33-3.25-2.26A32.25,32.25,0,0,0,132.54,32.7a30.56,30.56,0,0,0-6.77,12.49c-.61,2.25.57,4.08,2.3,3.46a4.06,4.06,0,0,0,2.11-2.37,28.21,28.21,0,0,1,6.59-11.35,27.39,27.39,0,0,1,19.54-8.63C158,26.24,159.13,25.76,159.25,23.84Zm-1.87,62.8c1.1-.11,2.11-.2,3.12-.31A32.51,32.51,0,0,0,188.15,63.2c.43-1.52.52-3-1.26-3.62s-2.59.58-3.14,2.14a34.5,34.5,0,0,1-2.3,5.6c-5.26,9.23-13.33,14-23.88,14.6-1.53.09-2.79.5-2.81,2.29S155.92,86.54,157.38,86.63ZM129.15,53.22c.09-1.53-.55-2.62-2.25-2.74-1.49-.11-2.54,1.26-2.44,3.17.07,1.52.64,2.74,2.43,2.67S129.2,54.92,129.15,53.22Zm55.68,1.68c-.1,1.62.55,2.69,2.25,2.81,1.5.1,2.53-1.25,2.43-3.17-.08-1.51-.65-2.74-2.44-2.66S184.76,53.28,184.83,54.9Z"/><path class="cls-5" d="M172.22,115.3,160.92,95.72a42.11,42.11,0,0,0,23.19-9.87l9.81,16.94L180,99.18c-2.62-.68-3.33-.29-4.06,2.35C174.77,105.9,173.59,110.29,172.22,115.3Z"/><path class="cls-5" d="M120,102.82l9.81-16.92A42.73,42.73,0,0,0,153,95.69L141.81,115.2c-.38-1.19-.65-1.94-.86-2.71-1-3.76-2-7.54-3.06-11.29-.62-2.2-1.48-2.68-3.67-2.12C129.69,100.26,125.17,101.46,120,102.82Z"/><path class="cls-3" d="M155.2,64.11V45c-1.38.5-2.64.9-3.86,1.42s-2.18.42-2.45-1c-.24-1.23-1.78-2.76.51-3.62a67.81,67.81,0,0,1,7.34-2.59c3.16-.79,4.51.41,4.52,3.64,0,6.23,0,12.45,0,18.68,0,.78,0,1.57,0,2.48.72.05,1.27.12,1.83.13,2.74,0,2.87.23,2.84,3,0,1.54-.57,2.21-2.18,2.18-4-.07-8-.08-11.94,0-2.21,0-2.13-1.31-2.17-2.87s.35-2.51,2.17-2.32C152.86,64.2,153.94,64.11,155.2,64.11Z"/><path class="cls-6" d="M159.25,23.84c-.12,1.92-1.26,2.41-2.94,2.46a27.39,27.39,0,0,0-19.54,8.63,28.21,28.21,0,0,0-6.59,11.35,4.06,4.06,0,0,1-2.11,2.37c-1.73.62-2.91-1.21-2.3-3.46a30.56,30.56,0,0,1,6.77-12.49A32.25,32.25,0,0,1,156,21.58C157.73,21.5,159,21.92,159.25,23.84Z"/><path class="cls-6" d="M157.38,86.63c-1.46-.09-2.64-.68-2.62-2.43s1.28-2.2,2.81-2.29c10.55-.61,18.62-5.37,23.88-14.6a34.5,34.5,0,0,0,2.3-5.6c.55-1.55,1.39-2.71,3.14-2.14s1.69,2.1,1.26,3.62A32.51,32.51,0,0,1,160.5,86.32C159.49,86.43,158.48,86.52,157.38,86.63Z"/><path class="cls-6" d="M129.15,53.22c.05,1.69-.36,3-2.26,3.1s-2.36-1.15-2.43-2.67c-.09-1.91,1-3.27,2.44-3.17C128.6,50.61,129.24,51.69,129.15,53.22Z"/><path class="cls-6" d="M184.83,54.9c-.07-1.62.35-2.93,2.25-3s2.36,1.15,2.44,2.66c.1,1.92-.94,3.27-2.43,3.17C185.38,57.59,184.74,56.52,184.83,54.9Z"/></svg>