<svg id="Capa_1" data-name="Capa 1" xmlns="http://www.w3.org/2000/svg" viewBox="0 0 314 136"><defs><style>.cls-1,.cls-4{fill:#fff;}.cls-2{fill:#e0f7c1;}.cls-3,.cls-6{fill:#3d3d3d;}.cls-3,.cls-4,.cls-6{stroke:#3d3d3d;}.cls-3{stroke-linejoin:round;stroke-width:3px;}.cls-4,.cls-6{stroke-miterlimit:10;}.cls-4{stroke-width:2px;}.cls-5{fill:#9bff00;}.cls-6{font-size:27.54px;stroke-width:0.75px;font-family:PoetsenOne-Regular, Poetsen One;}</style></defs><title>icon</title><rect class="cls-1" width="314" height="136"/><ellipse class="cls-2" cx="168.87" cy="57" rx="55.39" ry="39.33" transform="translate(9.16 136.1) rotate(-45)"/><path class="cls-3" d="M116.87,115.42l-.22,3.86H97.09v-41h19.56v4.5c3.65,0,7.09.09,10.51,0a12.15,12.15,0,0,1,7.6,1.85,29.78,29.78,0,0,0,20.84,5.12,48.51,48.51,0,0,1,5.4,0c7.27,0,9.87,2.43,10.36,9.9,1.17-.34,2.3-.62,3.41-1q9.81-3.29,19.62-6.61c4.3-1.45,8.27.16,9.91,4s.1,7.69-3.85,9.79q-18.58,9.87-37.2,19.66a13.19,13.19,0,0,1-11,.7c-9.78-3.4-19.61-6.66-29.45-9.85A36.68,36.68,0,0,0,116.87,115.42Zm-.15-3.18a47.44,47.44,0,0,1,6.86,1.15c9.93,3.19,19.8,6.53,29.69,9.85a10,10,0,0,0,8.16-.47Q180.25,112.91,199,103a5.54,5.54,0,0,0,2.11-2.29c.88-1.7.07-3.26-1-4.55-1.34-1.57-3.09-1.66-4.94-1-9.82,3.47-19.63,7-29.46,10.39a10.14,10.14,0,0,1-3.16.51c-4.32.06-8.65-.07-13,.09-1.17,0-2.89.54-3.34,1.38-1,1.9-2.28,1.74-3.85,1.38.25-3.79,2.73-6,6.8-6.1s8.36.13,12.53-.1a7.82,7.82,0,0,0,4.69-1.7c.92-.88,1.27-2.87,1.1-4.27a3.77,3.77,0,0,0-3.72-3.34A84.12,84.12,0,0,0,153,93.24c-6.41.53-12.3-.66-17.56-4.4-5.81-4.13-12.33-2.06-18.73-2.62Zm-16.29,4.07h12.85V81.82H100.43Z"/><path class="cls-3" d="M184.72,49.29c.08,17.57-14.49,32.19-32.28,32.39a32.52,32.52,0,1,1,.11-65C170.31,16.61,184.64,31.16,184.72,49.29Zm-32.7,29c16,.28,29-12.43,29.42-28.81.42-15.32-12.62-29-27.7-29.52-17.53-.64-30.35,13.54-30.56,28.08C122.94,64.86,135.39,78,152,78.27Z"/><path class="cls-4" d="M117.61,112.24v-26c6.39.56,12-1.51,17.84,2.62,5.26,3.74,11.15,4.93,17.56,4.4a84.12,84.12,0,0,1,10.79.12,3.77,3.77,0,0,1,3.72,3.34c.17,1.4-.17,3.39-1.1,4.27a7.82,7.82,0,0,1-4.69,1.7c-4.17.23-8.35,0-12.53.1s-6.55,2.32-6.8,6.1c1.57.35,2.83.52,3.85-1.38.45-.84,2.17-1.33,3.34-1.38,4.32-.16,8.64,0,13-.09a10.14,10.14,0,0,0,3.16-.51c9.83-3.43,19.64-6.92,29.46-10.39,1.85-.65,3.6-.56,4.94,1,1.11,1.3,1.91,2.85,1,4.55A5.54,5.54,0,0,1,199,103q-18.77,10-37.62,19.8a10,10,0,0,1-8.16.47c-9.88-3.33-19.76-6.66-29.69-9.85A35.78,35.78,0,0,0,117.61,112.24Z"/><path class="cls-5" d="M153.68,21.16c-16.8-.61-29.08,13-29.28,26.91-.23,16.13,11.7,28.7,27.63,29,15.33.27,27.76-11.91,28.19-27.61C180.62,34.77,168.13,21.69,153.68,21.16Zm-1.39,50a22,22,0,1,1,22-22A22,22,0,0,1,152.29,71.2Z"/><text class="cls-6" transform="translate(145.42 58.5)">$</text></svg>