<svg id="Capa_1" data-name="Capa 1" xmlns="http://www.w3.org/2000/svg" viewBox="0 0 921.96 442.07">
  <defs>
    <style>
      .cls-1 {
        fill: #9de33c;
      }

      .cls-2 {
        fill: #60ba1e;
      }

      .cls-3 {
        fill: #d9f0ba;
      }

      .cls-4, .cls-6, .cls-7 {
        fill: #fff;
      }

      .cls-5 {
        fill: #3d3d3d;
      }

      .cls-6 {
        font-size: 67.05px;
        letter-spacing: 0.02em;
      }

      .cls-6, .cls-7 {
        font-family: GothanMedium_regular, Gotham Medium;
      }

      .cls-7 {
        font-size: 39.5px;
        letter-spacing: 0.03em;
      }
    </style>
  </defs>
  <title>LOGO responsive negativo</title>
  <g>
    <g>
      <path class="cls-1" d="M346.42,142.13v121a71.72,71.72,0,0,0,143.44,0v-121Z"/>
      <path class="cls-2" d="M477.21,138.66h19.42V277.12s-17.54,66.55-84.49,57.34c17,0,65.06-24.42,65.06-68.86Z"/>
      <polygon class="cls-2" points="415.01 316.47 491.7 239.78 491.7 180 415.22 256.48 415.01 316.47"/>
      <polygon class="cls-2" points="421.43 314.06 346.42 239.04 346.42 180.57 421.23 255.38 421.43 314.06"/>
      <circle class="cls-2" cx="416.06" cy="277.32" r="39.15"/>
      <polygon class="cls-3" points="406.67 310 335.21 234.66 335.21 187.54 406.46 253.56 406.67 310"/>
      <polygon class="cls-3" points="405.62 311.64 478.68 234.66 478.62 187.54 405.82 255.11 405.62 311.64"/>
      <path class="cls-4" d="M481.37,263.12c0-41.28,0-83.18,0-124.46H332.48V263.12h0a74.44,74.44,0,0,0,148.88,0h-5.46a69,69,0,0,1-138,0h0V243.87l29.59,29.59c0,.12,0,.23,0,.35a39.15,39.15,0,0,0,78.3,0c0-.15,0-.3,0-.45l30.11-30.11v19.88Zm-113.15,3.32-30.28-30.28V192.71l47.93,47.93A39.17,39.17,0,0,0,368.22,266.44ZM390.91,238l-53-53V144.11h138v40.26l-53.56,53.56a39.16,39.16,0,0,0-31.45,0Zm54.19,28.38a39.17,39.17,0,0,0-17.7-25.74l48.52-48.52v43.44Z"/>
      <circle class="cls-3" cx="406.67" cy="273.81" r="33.44"/>
      <rect class="cls-5" x="391.88" y="269.93" width="35.64" height="11.01" transform="translate(685.13 -134.27) rotate(90)"/>
      <rect class="cls-5" x="395.33" y="257.61" width="19.88" height="11.01" transform="translate(810.53 526.23) rotate(-180)"/>
      <g>
        <path class="cls-4" d="M364,121.7h88.78a2.73,2.73,0,1,0,0-5.45H364a2.73,2.73,0,0,0,0,5.45Z"/>
        <path class="cls-4" d="M418.33,354.57H398.47a2.73,2.73,0,0,0,0,5.45h19.86a2.73,2.73,0,1,0,0-5.45Z"/>
        <path class="cls-4" d="M493.9,116.25H476.77a2.73,2.73,0,0,0,0,5.45H493.9V269.38h5.45V116.25Z"/>
        <path class="cls-4" d="M316,269.38h5.45V121.7h17.09a2.73,2.73,0,1,0,0-5.45H316v5.45h0Z"/>
        <path class="cls-4" d="M382.71,351.93a86.25,86.25,0,0,1-61.26-82.55H316a91.73,91.73,0,0,0,65.21,87.81,2.69,2.69,0,0,0,3.46-2.58v-.09A2.71,2.71,0,0,0,382.71,351.93Z"/>
        <path class="cls-4" d="M434,351.49a2.71,2.71,0,0,0-1.9,2.58v.07a2.7,2.7,0,0,0,3.51,2.58,91.72,91.72,0,0,0,63.71-87.33h-5.47A86.25,86.25,0,0,1,434,351.49Z"/>
      </g>
    </g>
    <circle class="cls-4" cx="334.73" cy="81.78" r="4.68"/>
    <circle class="cls-4" cx="477.91" cy="81.78" r="4.68"/>
    <text class="cls-6" transform="translate(68.02 257.61)">NUTRI</text>
    <text class="cls-6" transform="translate(522.41 257.61)">HEROES</text>
    <g>
      <path class="cls-4" d="M815,298.39a7.37,7.37,0,0,0-7.67-5.46c-4.88.48-7.9,5.14-6.42,12,1,4.64,4.55,7.79,6.5,11.09a4.73,4.73,0,0,1-1.93,7c-1.79.86-3.92.38-4.66-1.26a4.58,4.58,0,0,1,.15-3.54c.8-2-.38-5-3.68-3.31-2.8,1.43-3.71,6.26-2.68,9.07,1.38,4.24,4.91,5.88,10.34,4.49,2.53-.62,6.88-2.41,8.13-6.26,1.17-3.58,1.29-5.56-2.09-10.42-3.21-4.68-4.64-5.61-6-8.65s1.59-6.29,3.78-4.65c1.87,1.35.7,2.46,1,4.5.26,1.68,2.68,2.32,4.23.92,1.22-1.11,1.58-3.19,1-5.51"/>
      <path class="cls-4" d="M792.08,298c-3.51-4.88-7.16-6.33-10.85-6.83-3.88-.19-5.24,1.88-5.52,3.1-.32,2.12,3.06,3.76,6.14,5.21a10.83,10.83,0,0,1,5.81,12.61c0,.17-.1.34-.16.51-1.86,5.41-8.33,12.72-14.55,14-5.33.87-11.22,0-11.83-5.17s5.12-12.62,11-14.18c6.29-1.67,6.45-3.05,5.74-4.64-.83-1.84-4.78-3.45-11.31,0a21.47,21.47,0,0,0-9,10.44c-1.75,4-2.69,9.49-1.33,13.4,2.35,6.77,8.4,7.68,14.43,7.05,9.06-.94,14.17-5,20.36-13.65,5.92-8.28,4.21-17.56,1.14-21.87"/>
      <path class="cls-4" d="M797.79,296.24c2.87-2.09,3.57-7.35.89-7.83s-4.65,2.83-5.1,4.29c-.94,3,1.35,5.63,4.21,3.54"/>
      <path class="cls-4" d="M788.27,289.86c2.87-.21,6.29-3,6.29-5.86s-1.56-3.45-2.92-3.58c-2-.19-4.88,1.63-6.1,4.77-1.14,2.93-.1,4.88,2.74,4.67"/>
      <path class="cls-4" d="M774.93,289.29a7.69,7.69,0,0,0,6.77-3.41c1.93-3.22.42-6.18-2.86-6.53-2.25-.24-5.33,3-6.29,5.68s.64,4.12,2.38,4.26"/>
      <path class="cls-4" d="M766.16,297.17a6,6,0,0,0,3.51-4.33c.21-1.49.54-4.24-1.48-4.67-2.27-.48-5.26.89-6.45,5.05s2.43,4.76,4.42,3.94"/>
      <path class="cls-4" d="M712.28,297.06c2.46-.75,3.94-3.07,3.32-5.17s-3.11-3.19-5.57-2.44-3.94,3.07-3.32,5.17,3.11,3.19,5.57,2.44"/>
      <path class="cls-4" d="M699,320.77c.18-1.3.16-2,.77-5.4s2.19-13.17,2.27-17.74c-.4-4.47-3.22-6.27-6.47-5.94-4.61.46-6.58,4.37-7.77,7.27,0,0-.32-5.82-5-6.69-3.52-.65-5.27-.16-9.7,6.39,0,0,.78-4.13-1.55-5.61s-6-.68-5.56,1.39a66,66,0,0,1-.66,18.21c-1.08,10.51-3.39,12-.17,11.78,3.3.19,5.22-1.56,6.18-6.25.88-3.36,1.49-11.49,3.84-15.58s4.64-4.69,6-3.35,1.31,4.49.2,11.29c-1.32,8.11-4.19,13.66-1.05,13.54,2.32-.09,5.67-4.54,6.85-12.55,1.5-8,2.11-9.54,3.16-11.15,1.62-2.49,5.36-3.13,4.74,2.17-.44,3.74-.85,7.42-2,15.48-1,6.49,2.09,7.29,4.15,6.43.64-.27,1.33-.95,1.8-3.72"/>
      <path class="cls-4" d="M752.29,321c.17-1.36.15-2.05.74-5.61.46-3.35,2.19-13.19,2.27-17.75-.4-4.47-3.22-6.27-6.47-5.94-4.61.47-6.58,4.37-7.77,7.27,0,0-.32-5.82-5-6.69-3.52-.65-5.27-.16-9.7,6.39,0,0,.78-4.13-1.55-5.61s-6-.68-5.56,1.39a65.88,65.88,0,0,1-.66,18.2c-1.11,10.5-3.44,12-.18,11.75,3.54-.1,5.53-2.16,6.21-6.91.78-3.21,1.47-10.81,3.82-14.88s4.64-4.69,6-3.35,1.31,4.49.12,10.45c-.79,7.49-2.89,13.22.33,13.14,2.38-.06,5-4.28,5.57-11.69,1.47-7.56,2.09-9.14,3.14-10.75,1.62-2.49,5.36-3.13,4.74,2.17-.44,3.74-.84,7.42-1.87,15.44-.53,6.74,2.26,7.77,4.13,6.85.6-.29,1.25-1,1.69-3.88"/>
      <path class="cls-4" d="M710.73,322.82c.37-2.17,2.66-14.72,3.49-20,.66-4.15-4.34-3.57-6.18-1.62-1.56,1.65-2.5,4.22-3.26,12.29-.5,7.58-.48,11,3.4,11.64,1.6.19,2.2-.33,2.55-2.34"/>
      <path class="cls-4" d="M649,283.18a14,14,0,0,0-.11-1.85,6.77,6.77,0,0,0-.32-1.41,3.81,3.81,0,0,0-2.65-2.54,3.73,3.73,0,0,0-3.51,1.46,7.63,7.63,0,0,0-1.38,3.62c-.75,4.72-1.81,9.4-2.73,14.1a149.27,149.27,0,0,1-3.45,14.64c-1.62,8.29-2.69,10.45-3.39,13.85s8,5.35,9.16-1.07,2.57-11.72,2.69-12.94c0,0,5.66,11.25,8.31,14.14,3.1,3.16,6.85,2.24,7.74.15.72-1.81-.21-3.18-2.92-6.34-2.81-3.55-9.58-13.75-9.58-13.75s8-2.56,13.39-7c1.51-1.6,3.77-5,1.31-6.74a3.71,3.71,0,0,0-2.39-.57,4.81,4.81,0,0,0-2.17.86,37.5,37.5,0,0,0-4.6,3.31c-1.11.89-2.22,1.8-3.4,2.65a14.17,14.17,0,0,1-3.79,2.22c.69-2.28,1.32-4.58,1.91-6.88.81-3.16,1.87-6.57,1.88-9.89"/>
    </g>
    <text class="cls-7" transform="translate(550.43 320.66)">BY</text>
    <path class="cls-4" d="M450.65,81.89a14.36,14.36,0,1,0-23.39-12.72l0,.18h-.18c-7-.51-13.58-.73-19.75-.73-7,0-13.6.27-19.75.73h0l-.41,0-.09-.44a14.35,14.35,0,1,0-23.35,13,14.36,14.36,0,1,0,23.41,12.56l0-.41.42,0h0c7,.51,13.58.73,19.75.73,7,0,13.6-.27,19.75-.73h.16v.25a14.36,14.36,0,1,0,23.43-12.44Zm-9.13,19.79A8.71,8.71,0,0,1,432.81,93a3.1,3.1,0,0,1,.1-.43,3.49,3.49,0,0,0,.17-1.05,3.57,3.57,0,0,0-3.57-3.57c-7.8.51-15.21.73-22.19.73-7.82,0-15.23-.27-22.19-.73a3.56,3.56,0,0,0-3.56,3.42s0,1,0,1.64a8.71,8.71,0,1,1-13.28-7.4c.42-.26,1.12-.8,1.12-.8a3.55,3.55,0,0,0,.17-5.84,8.18,8.18,0,0,0-.91-.49,8.7,8.7,0,1,1,12.91-7.62c0,.6.05,1.62.05,1.62a3.56,3.56,0,0,0,3.52,3.07c7.8-.51,15.21-.73,22.19-.73,7.82,0,15.23.27,22.19.73a3.57,3.57,0,0,0,3.57-3.57c0-.31-.11-1.07-.16-1.61a6.62,6.62,0,0,1,.06-1.16,8.71,8.71,0,1,1,12.54,9.38,5.3,5.3,0,0,0-.62.42,3.55,3.55,0,0,0,.16,5.75L446.75,86a8.7,8.7,0,0,1-5.23,15.67Z"/>
  </g>
</svg>
