<svg id="Capa_1" data-name="Capa 1" xmlns="http://www.w3.org/2000/svg" viewBox="0 0 508 217.03">
  <defs>
    <style>
      .cls-1 {
        fill: #c4c4c4;
      }

      .cls-2 {
        fill: #9de33c;
      }

      .cls-3 {
        fill: #60ba1e;
      }

      .cls-4 {
        fill: none;
        stroke: #fff;
        stroke-linecap: round;
        stroke-miterlimit: 10;
        stroke-width: 5px;
      }

      .cls-5, .cls-6 {
        fill: #fff;
      }

      .cls-6 {
        font-size: 45.2px;
        font-family: GothamMedium, Gotham Medium;
        letter-spacing: 0.02em;
      }
    </style>
  </defs>
  <title>LOGO - negative</title>
  <g>
    <g>
      <path class="cls-1" d="M193.2,64.44V146a48.34,48.34,0,0,0,96.69,0V64.44Z"/>
      <path class="cls-2" d="M187.66,63.94v81.58a48.34,48.34,0,0,0,96.69,0V63.94Z"/>
      <path class="cls-3" d="M275.82,62.66h13.09v92.28s-11.82,44.86-57,38.65c11.44,0,43.86-16.46,43.86-46.42Z"/>
      <polygon class="cls-3" points="233.9 181.46 285.59 129.76 285.59 89.46 234.04 141.02 233.9 181.46"/>
      <path class="cls-4" d="M180.11,63.44V145a48.34,48.34,0,0,0,96.69,0V63.44Z"/>
      <polygon class="cls-3" points="238.23 179.83 187.66 129.26 187.66 89.85 238.09 140.28 238.23 179.83"/>
      <circle class="cls-3" cx="234.61" cy="155.07" r="26.39"/>
      <rect class="cls-5" x="197.71" y="45.75" width="63.45" height="5.15" rx="2.1" ry="2.1"/>
      <polygon class="cls-3" points="225.15 175.96 180.11 130.94 180.11 93.1 228.16 141.14 228.28 175.96 225.15 175.96"/>
      <polygon class="cls-3" points="230.69 175.96 277.1 129.55 277.05 90.7 227.68 140.07 227.56 175.18 230.69 175.96"/>
      <polygon class="cls-4" points="226.56 177.39 180.11 130.94 180.11 93.1 228.52 141.51 228.64 177.33 226.56 177.39"/>
      <polygon class="cls-4" points="229.31 177.33 277.1 129.55 276.69 91.05 227.32 140.41 227.2 177.04 229.31 177.33"/>
      <circle class="cls-3" cx="228.27" cy="152.7" r="26.39"/>
      <circle class="cls-4" cx="228.27" cy="152.7" r="26.39"/>
      <rect class="cls-5" x="218.31" y="150.08" width="24.02" height="7.42" transform="translate(384.11 -76.52) rotate(90)"/>
      <rect class="cls-5" x="220.63" y="141.78" width="13.4" height="7.42" transform="translate(454.66 290.98) rotate(-180)"/>
      <path class="cls-4" d="M182.31,48.33H169V149.51a60,60,0,0,0,43.12,57.55"/>
      <path class="cls-4" d="M246.76,206.78a60,60,0,0,0,42.15-57.27V48.33h-13.4"/>
      <rect class="cls-5" x="222.88" y="206.4" width="13.13" height="5.15" rx="2.1" ry="2.1"/>
    </g>
    <text class="cls-6" transform="translate(0 141.78)">NUTRI</text>
    <text class="cls-6" transform="translate(306.29 141.78)">HEROES</text>
    <path class="cls-4" d="M256.65,21.91a7.81,7.81,0,0,0-3.28-13.78,7.94,7.94,0,0,0-3.89.2c-3.84,1.19-6.15,5.57-5.49,7.46.08.23.37.9.1,1.19s-.92,0-1.06,0c-2.92-.95-25.83-.91-28.62,0-.14,0-.75.26-1,0s0-1,.1-1.19c.66-1.88-1.64-6.26-5.49-7.46a7.94,7.94,0,0,0-3.9-.2,7.81,7.81,0,0,0-3.28,13.79,1.7,1.7,0,0,1,0,2.68,7.81,7.81,0,0,0,3.28,13.79,7.93,7.93,0,0,0,3.89-.2c3.8-1.18,6.15-5.49,5.49-7.46-.09-.26-.4-1-.11-1.3s.82,0,1,0c2.63.87,24.38,1.23,28.22,0,.19-.06,1.26-.41,1.54,0,.16.21,0,.51-.1,1.07a5.87,5.87,0,0,0,.14,1.72,7.81,7.81,0,1,0,12.46-7.66A1.69,1.69,0,0,1,256.65,21.91Z"/>
    <circle class="cls-5" cx="179.78" cy="23.26" r="3.15"/>
    <circle class="cls-5" cx="276.29" cy="23.26" r="3.15"/>
  </g>
</svg>
