<svg id="Capa_1" data-name="Capa 1" xmlns="http://www.w3.org/2000/svg" viewBox="0 0 60.71 58.24"><defs><style>.cls-1{fill:#181e0d;stroke:#fff;stroke-miterlimit:10;stroke-width:3px;}.cls-2{fill:#fff;}</style></defs><title>Fb</title><circle class="cls-1" cx="30.35" cy="29.12" r="26.14"/><path class="cls-2" d="M27.15,24.64c0-.05,0-.1,0-.14,0-.84,0-1.68,0-2.52,0-.25,0-.51,0-.76s0-.3,0-.45,0-.22.06-.32,0-.09,0-.14,0-.22.07-.33a.21.21,0,0,0,0-.06.52.52,0,0,1,.07-.27,1.79,1.79,0,0,0,.05-.24c.06-.19.12-.39.19-.58a1.89,1.89,0,0,1,.11-.21c.06-.12.12-.25.19-.37a4.71,4.71,0,0,1,.61-.77c.16-.15.33-.28.51-.41l.22-.15.38-.19a4.31,4.31,0,0,1,.5-.21c.26-.08.52-.15.79-.21s.28,0,.41-.06a3.29,3.29,0,0,1,.7-.06l.46,0h3.3c.17,0,.2,0,.2.2q0,2,0,4c0,.21-.06.25-.24.25H33.51a1.42,1.42,0,0,0-.39.07,2.36,2.36,0,0,0-.38.16.75.75,0,0,0-.35.43,2.94,2.94,0,0,0-.13,1.07q0,1.09,0,2.17s0,0,0,.08h3.68c.11,0,.14,0,.13.14l-.07.77c0,.25,0,.5-.08.75s-.06.52-.08.78,0,.51-.08.76-.06.51-.07.77a3,3,0,0,1-.07.46s0,0-.06.06H32.37c-.1,0-.12,0-.12.12q0,6.3,0,12.61a.65.65,0,0,1,0,.11c0,.06,0,.11-.12.11H27.31c-.12,0-.16,0-.16-.17q0-4.57,0-9.14,0-1.74,0-3.49c0-.13,0-.13-.13-.14H24.75c-.07,0-.11,0-.11-.13q0-2.11,0-4.22c0-.12,0-.14.14-.14h2.36Z"/></svg>