<svg id="Capa_1" data-name="Capa 1" xmlns="http://www.w3.org/2000/svg" viewBox="0 0 486 74"><defs><style>.cls-1{font-size:41.65px;font-family:GothamMedium, Gotham Medium;letter-spacing:-0.01em;}.cls-1,.cls-3{fill:#fff;}.cls-2{fill:none;stroke:#fff;stroke-linecap:round;stroke-miterlimit:10;stroke-width:4px;}</style></defs><title>image negative</title><text class="cls-1" transform="translate(22.9 51.16)">NUTRIHEROES</text><path class="cls-2" d="M438.08,35.93a8.58,8.58,0,0,0-3.6-15.13,8.71,8.71,0,0,0-4.27.22c-4.21,1.31-6.75,6.11-6,8.19.09.25.41,1,.11,1.31s-1,.05-1.17,0c-3.21-1-28.35-1-31.41,0-.15,0-.82.29-1.11,0s0-1.06.11-1.31c.72-2.06-1.8-6.87-6-8.19a8.71,8.71,0,0,0-4.28-.22,8.58,8.58,0,0,0-3.6,15.13,1.87,1.87,0,0,1,0,2.95A8.58,8.58,0,0,0,380.41,54a8.7,8.7,0,0,0,4.27-.22c4.17-1.3,6.75-6,6-8.19-.1-.29-.44-1.1-.12-1.42s.9,0,1,0c2.89,1,26.75,1.35,31,0,.21-.06,1.38-.45,1.69,0,.17.23,0,.55-.11,1.17a6.44,6.44,0,0,0,.15,1.89A8.58,8.58,0,1,0,438,38.83,1.85,1.85,0,0,1,438.08,35.93Z"/><circle class="cls-3" cx="353.72" cy="37.41" r="3.46"/><circle class="cls-3" cx="459.64" cy="37.41" r="3.46"/></svg>