<svg id="Capa_1" data-name="Capa 1" xmlns="http://www.w3.org/2000/svg" viewBox="0 0 60.71 58.24"><defs><style>.cls-1{fill:#fff;}.cls-2{fill:#181e0d;stroke:#fff;stroke-miterlimit:10;stroke-width:3px;}</style></defs><title>Instagram</title><path class="cls-1" d="M18.2,36.79A10.11,10.11,0,0,0,23.3,36a9.75,9.75,0,0,0,2.19-1.28c0-.06-.05,0-.08,0a5.23,5.23,0,0,1-1.34-.26,5,5,0,0,1-3.12-3l0-.13a.17.17,0,0,1,0,0,.56.56,0,0,1,.22,0,4.76,4.76,0,0,0,1,0,5.49,5.49,0,0,0,.91-.15l-.16-.06a5,5,0,0,1-3.66-3.67,4.55,4.55,0,0,1-.14-1.09s0-.08,0-.14l.71.3a4.4,4.4,0,0,0,.71.2,2.69,2.69,0,0,0,.76.07.48.48,0,0,0-.13-.11L21,26.55l-.13-.11-.13-.11-.14-.13-.12-.12-.12-.13-.12-.15-.11-.13-.1-.14L20,25.37l-.09-.14-.09-.15-.09-.17-.08-.15-.07-.16-.07-.18-.06-.16-.05-.16-.05-.18,0-.17,0-.17c0-.06,0-.12,0-.19s0-.11,0-.17,0-.11,0-.17,0-.13,0-.19,0-.11,0-.17,0-.11,0-.17,0-.13,0-.19,0-.11,0-.17,0-.11,0-.17l0-.19,0-.17,0-.17.05-.18,0-.16.05-.16.07-.18.07-.16.07-.16.09-.17.09-.16.12.13a14.27,14.27,0,0,0,7.23,4.62,13.34,13.34,0,0,0,1.66.34c.36.05.73.08,1.1.12a.31.31,0,0,0,.19,0c0-.16-.05-.33-.07-.49a5,5,0,0,1,4-5.54,4.79,4.79,0,0,1,1.53-.06,4.92,4.92,0,0,1,3,1.45.24.24,0,0,0,.25.07,10,10,0,0,0,2.85-1.09l.1-.05h0a.67.67,0,0,1,0,.11,5,5,0,0,1-1.89,2.47l-.16.11,0,0,.72-.12.68-.17.69-.21.66-.25a7.45,7.45,0,0,1-1.1,1.4,10.29,10.29,0,0,1-1.34,1.17s0,.1,0,.15,0,.2,0,.3A14,14,0,0,1,39.4,29a14.63,14.63,0,0,1-2.72,5,13.4,13.4,0,0,1-7.11,4.52,14.62,14.62,0,0,1-1.7.33,14.81,14.81,0,0,1-2.76.11,14.12,14.12,0,0,1-6.76-2.1A.32.32,0,0,1,18.2,36.79Z"/><circle class="cls-2" cx="30.35" cy="29.12" r="26.14"/><path class="cls-1" d="M18.4,34.2v-10c0-.25.1-.5.12-.75a6.3,6.3,0,0,1,6.05-6c3.85-.13,7.71-.11,11.57,0A6.12,6.12,0,0,1,42,22.3c.16.65.23,1.32.34,2v9.8c0,.27-.1.54-.12.81a6.3,6.3,0,0,1-4.89,5.89c-.67.16-1.36.24-2,.35h-9.8c-.27,0-.54-.1-.82-.12a6.28,6.28,0,0,1-5.78-4.5A22.84,22.84,0,0,1,18.4,34.2Zm12-14.81c-.86,0-1.71,0-2.57,0s-1.75.06-2.63.1A4.33,4.33,0,0,0,20.67,24q-.08,5.19,0,10.39a4.27,4.27,0,0,0,4.44,4.48q5.25.1,10.51,0A4.23,4.23,0,0,0,40,34.45q.11-5.28,0-10.57A4.06,4.06,0,0,0,36.2,19.6"/><path class="cls-1" d="M30.62,35.31A6.15,6.15,0,1,1,30.08,23a6.24,6.24,0,0,1,6.39,5.4A6.17,6.17,0,0,1,30.62,35.31Zm3.69-6.14a4,4,0,1,0-3.92,4A3.93,3.93,0,0,0,34.31,29.17Z"/><path class="cls-1" d="M36.74,21.35a1.45,1.45,0,0,1,1.44,1.45,1.47,1.47,0,0,1-1.43,1.46,1.5,1.5,0,0,1-1.48-1.49A1.47,1.47,0,0,1,36.74,21.35Z"/></svg>