<svg id="Capa_1" data-name="Capa 1" xmlns="http://www.w3.org/2000/svg" viewBox="0 0 60.71 58.24"><defs><style>.cls-1{fill:#181e0d;stroke:#fff;stroke-miterlimit:10;stroke-width:3px;}.cls-2{fill:#fff;}</style></defs><title>Twitter</title><circle class="cls-1" cx="30.35" cy="29.12" r="26.14"/><path class="cls-2" d="M18.2,36.79A10.11,10.11,0,0,0,23.3,36a9.75,9.75,0,0,0,2.19-1.28c0-.06-.05,0-.08,0a5.23,5.23,0,0,1-1.34-.26,5,5,0,0,1-3.12-3l0-.13a.17.17,0,0,1,0,0,.56.56,0,0,1,.22,0,4.76,4.76,0,0,0,1,0,5.49,5.49,0,0,0,.91-.15l-.16-.06a5,5,0,0,1-3.66-3.67,4.55,4.55,0,0,1-.14-1.09s0-.08,0-.14l.71.3a4.4,4.4,0,0,0,.71.2,2.69,2.69,0,0,0,.76.07.48.48,0,0,0-.13-.11L21,26.55l-.13-.11-.13-.11-.14-.13-.12-.12-.12-.13-.12-.15-.11-.13-.1-.14L20,25.37l-.09-.14-.09-.15-.09-.17-.08-.15-.07-.16-.07-.18-.06-.16-.05-.16-.05-.18,0-.17,0-.17c0-.06,0-.12,0-.19s0-.11,0-.17,0-.11,0-.17,0-.13,0-.19,0-.11,0-.17,0-.11,0-.17,0-.13,0-.19,0-.11,0-.17,0-.11,0-.17l0-.19,0-.17,0-.17.05-.18,0-.16.05-.16.07-.18.07-.16.07-.16.09-.17.09-.16.12.13a14.27,14.27,0,0,0,7.23,4.62,13.34,13.34,0,0,0,1.66.34c.36.05.73.08,1.1.12a.31.31,0,0,0,.19,0c0-.16-.05-.33-.07-.49a5,5,0,0,1,4-5.54,4.79,4.79,0,0,1,1.53-.06,4.92,4.92,0,0,1,3,1.45.24.24,0,0,0,.25.07,10,10,0,0,0,2.85-1.09l.1-.05h0a.67.67,0,0,1,0,.11,5,5,0,0,1-1.89,2.47l-.16.11,0,0,.72-.12.68-.17.69-.21.66-.25a7.45,7.45,0,0,1-1.1,1.4,10.29,10.29,0,0,1-1.34,1.17s0,.1,0,.15,0,.2,0,.3A14,14,0,0,1,39.4,29a14.63,14.63,0,0,1-2.72,5,13.4,13.4,0,0,1-7.11,4.52,14.62,14.62,0,0,1-1.7.33,14.81,14.81,0,0,1-2.76.11,14.12,14.12,0,0,1-6.76-2.1A.32.32,0,0,1,18.2,36.79Z"/></svg>