<svg id="Capa_1" data-name="Capa 1" xmlns="http://www.w3.org/2000/svg" viewBox="0 0 121.33 118.25"><defs><style>.cls-1{fill:#daf1bb;}.cls-2,.cls-5{fill:#3d3d3d;}.cls-2{stroke:#3d3d3d;stroke-miterlimit:10;stroke-width:2px;}.cls-3{fill:none;}.cls-4{fill:#95ff00;}</style></defs><title>icon-01</title><ellipse class="cls-1" cx="73.29" cy="48.04" rx="55.39" ry="39.33" transform="translate(-12.5 65.89) rotate(-45)"/><path class="cls-2" d="M45,92,32.4,113.81a4.27,4.27,0,0,1-.67,1.11c-1,.85-1.93,2.19-3,2.31-1.65.19-2-1.6-2.32-2.93q-2-7.34-3.93-14.67c-.17-.61-.38-1.21-.63-2C16.49,99.08,11.27,100.5,6,101.88c-1.55.41-3.26,1.45-4.56-.36-1.19-1.66.11-3,.88-4.35,4-7,8-13.91,12.08-21A42.9,42.9,0,0,1,5.28,60.56,41.75,41.75,0,1,1,86.76,49.83a40,40,0,0,1-9.85,24.76A2.42,2.42,0,0,0,76.63,78c3.92,6.59,7.7,13.27,11.55,19.91.71,1.23,1.6,2.67.31,3.71a4.61,4.61,0,0,1-3.52.51c-5.54-1.36-11-2.93-16.76-4.49l-3.55,13.09a27.41,27.41,0,0,1-1.17,4.17c-.43.95-1.28,2.23-2.08,2.34a3.57,3.57,0,0,1-2.64-1.69c-3.12-5.13-6.07-10.37-9.08-15.57C48.21,97.39,46.72,94.85,45,92ZM82.13,48a37,37,0,0,0-36.8-37.3C25.1,10.7,8.29,27,7.91,46.58c-.42,21.8,17,38.11,36,38.23C65.3,85,82.06,68.75,82.13,48ZM60.29,109c1.37-5,2.54-9.4,3.76-13.77.73-2.64,1.44-3,4.06-2.35L82,96.48,72.17,79.54A42.11,42.11,0,0,1,49,89.4ZM8.11,96.5c5.13-1.35,9.66-2.56,14.19-3.73,2.19-.57,3.05-.09,3.67,2.12,1.05,3.76,2,7.53,3.06,11.29.21.77.48,1.52.86,2.71L41.11,89.37a42.73,42.73,0,0,1-23.19-9.8Z"/><path class="cls-3" d="M82.13,48C82.06,68.75,65.3,85,44,84.81c-19.07-.13-36.46-16.43-36-38.23C8.29,27,25.1,10.7,45.33,10.74A37,37,0,0,1,82.13,48ZM43.27,57.79c-1.26,0-2.34.09-3.4,0-1.82-.19-2.21.73-2.17,2.32s0,2.91,2.17,2.87c4-.08,8-.07,11.94,0,1.61,0,2.16-.64,2.18-2.18,0-2.76-.1-3-2.84-3-.55,0-1.11-.08-1.83-.13,0-.91,0-1.69,0-2.48,0-6.23,0-12.45,0-18.68,0-3.22-1.36-4.42-4.52-3.64a67.81,67.81,0,0,0-7.34,2.59c-2.3.86-.75,2.39-.51,3.62.28,1.45,1.23,1.55,2.45,1s2.48-.92,3.86-1.42Zm4-40.27c-.23-1.92-1.52-2.33-3.25-2.26A32.25,32.25,0,0,0,20.61,26.38a30.56,30.56,0,0,0-6.77,12.49c-.61,2.25.57,4.08,2.3,3.46A4.06,4.06,0,0,0,18.25,40a28.21,28.21,0,0,1,6.59-11.35A27.39,27.39,0,0,1,44.38,20C46.07,19.92,47.2,19.44,47.32,17.52Zm-1.87,62.8c1.1-.11,2.11-.2,3.12-.31A32.51,32.51,0,0,0,76.23,56.88c.43-1.52.52-3-1.26-3.62s-2.59.58-3.14,2.14a34.5,34.5,0,0,1-2.3,5.6c-5.26,9.23-13.33,14-23.88,14.6-1.53.09-2.79.5-2.81,2.29S44,80.22,45.45,80.31ZM17.22,46.9c.09-1.53-.55-2.62-2.25-2.74-1.49-.11-2.54,1.26-2.44,3.17.07,1.52.64,2.74,2.43,2.67S17.27,48.6,17.22,46.9ZM72.9,48.58c-.1,1.62.55,2.69,2.25,2.81,1.5.1,2.53-1.25,2.43-3.17-.08-1.51-.65-2.74-2.44-2.66S72.83,47,72.9,48.58Z"/><path class="cls-4" d="M60.29,109,49,89.4a42.11,42.11,0,0,0,23.19-9.87L82,96.48,68.11,92.86c-2.62-.68-3.33-.29-4.06,2.35C62.84,99.58,61.66,104,60.29,109Z"/><path class="cls-4" d="M8.11,96.5l9.81-16.92a42.73,42.73,0,0,0,23.19,9.8L29.88,108.88c-.38-1.19-.65-1.94-.86-2.71-1-3.76-2-7.54-3.06-11.29-.62-2.2-1.48-2.68-3.67-2.12C17.76,93.94,13.24,95.14,8.11,96.5Z"/><path class="cls-2" d="M43.27,57.79V38.68c-1.38.5-2.64.9-3.86,1.42s-2.18.42-2.45-1c-.24-1.23-1.78-2.76.51-3.62a67.81,67.81,0,0,1,7.34-2.59c3.16-.79,4.51.41,4.52,3.64,0,6.23,0,12.45,0,18.68,0,.78,0,1.57,0,2.48.72.05,1.27.12,1.83.13,2.74,0,2.87.23,2.84,3,0,1.54-.57,2.21-2.18,2.18-4-.07-8-.08-11.94,0-2.21,0-2.13-1.31-2.17-2.87s.35-2.51,2.17-2.32C40.94,57.88,42,57.79,43.27,57.79Z"/><path class="cls-5" d="M47.32,17.52c-.12,1.92-1.26,2.41-2.94,2.46a27.39,27.39,0,0,0-19.54,8.63A28.21,28.21,0,0,0,18.25,40a4.06,4.06,0,0,1-2.11,2.37c-1.73.62-2.91-1.21-2.3-3.46a30.56,30.56,0,0,1,6.77-12.49A32.25,32.25,0,0,1,44.07,15.26C45.8,15.18,47.09,15.6,47.32,17.52Z"/><path class="cls-5" d="M45.45,80.31c-1.46-.09-2.64-.68-2.62-2.43s1.28-2.2,2.81-2.29C56.2,75,64.26,70.22,69.52,61a34.5,34.5,0,0,0,2.3-5.6c.55-1.55,1.39-2.71,3.14-2.14s1.69,2.1,1.26,3.62A32.51,32.51,0,0,1,48.57,80C47.56,80.11,46.55,80.2,45.45,80.31Z"/><path class="cls-5" d="M17.22,46.9c.05,1.69-.36,3-2.26,3.1s-2.36-1.15-2.43-2.67c-.09-1.91,1-3.27,2.44-3.17C16.67,44.29,17.31,45.37,17.22,46.9Z"/><path class="cls-5" d="M72.9,48.58c-.07-1.62.35-2.93,2.25-3s2.36,1.15,2.44,2.66c.1,1.92-.94,3.27-2.43,3.17C73.45,51.27,72.81,50.2,72.9,48.58Z"/></svg>