<svg id="Capa_1" data-name="Capa 1" xmlns="http://www.w3.org/2000/svg" viewBox="0 0 304 146"><defs><style>.cls-1{fill:#fff;}.cls-1,.cls-2,.cls-3{stroke:#3d3d3d;stroke-miterlimit:10;stroke-width:4px;}.cls-2{fill:none;}.cls-3{fill:#9bff00;}.cls-4{fill:#181e0d;}.cls-5{fill:#e0f7c1;}</style></defs><title>Cash</title><rect class="cls-1" x="66.26" y="26.37" width="181.1" height="100.74" rx="10.32" ry="10.32" transform="translate(-0.17 0.35) rotate(-0.13)"/><rect class="cls-1" x="56.63" y="18.86" width="184.39" height="102.28" rx="7.7" ry="7.7" transform="translate(0.12 -0.26) rotate(0.1)"/><rect class="cls-2" x="66.38" y="29.03" width="163.06" height="84.14" rx="6.87" ry="6.87" transform="translate(0.12 -0.25) rotate(0.1)"/><ellipse class="cls-2" cx="77.46" cy="40.25" rx="11.34" ry="11.02" transform="translate(37.08 117.64) rotate(-89.9)"/><ellipse class="cls-2" cx="218.59" cy="40.48" rx="11.34" ry="10.96" transform="translate(177.74 259) rotate(-89.9)"/><ellipse class="cls-2" cx="218.42" cy="101.94" rx="11.34" ry="10.96" transform="translate(116.1 320.18) rotate(-89.9)"/><ellipse class="cls-2" cx="77.36" cy="101.28" rx="11.34" ry="11.02" transform="translate(-24.06 178.47) rotate(-89.9)"/><ellipse class="cls-3" cx="147.91" cy="71.1" rx="25.13" ry="26.19" transform="translate(76.56 218.89) rotate(-89.9)"/><path class="cls-4" d="M149.62,68.36q1.56.46,3.1,1a11.3,11.3,0,0,1,2.76,1.43,7,7,0,0,1,2,2.18,6.4,6.4,0,0,1,.75,3.26,9.82,9.82,0,0,1-.68,3.64,8.76,8.76,0,0,1-2,3A10.21,10.21,0,0,1,152.37,85a12.6,12.6,0,0,1-4.31,1L147.79,89a1.33,1.33,0,0,1-.42.89,1.36,1.36,0,0,1-1,.41h-2l.4-4.46A17,17,0,0,1,140,84.53,13.42,13.42,0,0,1,136.23,82l1.65-2.35a1.69,1.69,0,0,1,.58-.51,1.56,1.56,0,0,1,.77-.2,2,2,0,0,1,1,.32l1.23.75q.69.43,1.58.87a7.69,7.69,0,0,0,2.1.65l.82-9.32q-1.54-.42-3-1a10.3,10.3,0,0,1-2.71-1.5,7,7,0,0,1-1.94-2.35,7.65,7.65,0,0,1-.73-3.55,7.76,7.76,0,0,1,.66-3.1,8,8,0,0,1,1.92-2.7,10.32,10.32,0,0,1,3.11-2,12.27,12.27,0,0,1,4.23-.87l.24-2.63a1.43,1.43,0,0,1,.43-.9,1.37,1.37,0,0,1,1-.39h2l-.35,4.09a12.15,12.15,0,0,1,4,1.27,14.19,14.19,0,0,1,2.88,2l-1.3,1.9a2.32,2.32,0,0,1-.59.63,1.27,1.27,0,0,1-.74.21,2,2,0,0,1-.78-.2q-.46-.2-1-.48t-1.27-.58a9.31,9.31,0,0,0-1.55-.48Zm-2.52-8.74a8.05,8.05,0,0,0-2.06.49,4.55,4.55,0,0,0-1.39.84,3.08,3.08,0,0,0-.79,1.13,3.52,3.52,0,0,0-.25,1.31,3.1,3.1,0,0,0,.29,1.39,3.6,3.6,0,0,0,.8,1.07,5.64,5.64,0,0,0,1.2.84,13.58,13.58,0,0,0,1.52.68Zm1.35,22a5.73,5.73,0,0,0,3.48-1.49A4.28,4.28,0,0,0,153.12,77a3.11,3.11,0,0,0-.29-1.39A3.34,3.34,0,0,0,152,74.6a5.39,5.39,0,0,0-1.24-.79,16.46,16.46,0,0,0-1.56-.63Z"/><ellipse class="cls-5" cx="211.72" cy="72.03" rx="9.88" ry="9.68" transform="translate(139.32 283.62) rotate(-89.9)"/><ellipse class="cls-5" cx="83.29" cy="71.81" rx="9.88" ry="9.71" transform="translate(11.34 154.98) rotate(-89.9)"/></svg>