<svg id="Capa_1" data-name="Capa 1" xmlns="http://www.w3.org/2000/svg" viewBox="0 0 270 206"><defs><style>.cls-1{fill:#231f20;}.cls-2{fill:#fff;}.cls-3{fill:#eb1c24;}</style></defs><title>marcas</title><path class="cls-1" d="M197.67,145.19H198v1.49c.09-.09.18-.26.26-.35a.53.53,0,0,1,.35-.09.59.59,0,0,1,.61.35,1.87,1.87,0,0,1,.26,1.05,2.19,2.19,0,0,1-.26,1.14.78.78,0,0,1-.7.44c-.18,0-.35-.09-.35-.18s-.09-.18-.18-.35V149h-.35Zm1.31,3.33a2.44,2.44,0,0,0,.09-.88c0-.35-.09-.61-.09-.79a.58.58,0,0,0-.44-.35.48.48,0,0,0-.44.26,1.88,1.88,0,0,0-.18.88c0,.26,0,.53.09.61.09.35.26.44.53.44C198.81,148.87,199,148.69,199,148.52Z"/><path class="cls-1" d="M200,146.24h.35v.53c0-.09.09-.18.18-.35a.66.66,0,0,1,.35-.18H201v.53h-.18a.48.48,0,0,0-.44.26c-.09.09-.09.35-.09.61v1.66H200v-3.06Z"/><path class="cls-1" d="M202.58,147.38c.09,0,.09-.09.18-.09v-.18c0-.18-.09-.26-.09-.35s-.18-.09-.35-.09-.35.09-.35.18-.09.18-.09.35h-.44a1.07,1.07,0,0,1,.26-.79,1.16,1.16,0,0,1,1.23,0,1,1,0,0,1,.26.61v1.75l.09.09h.18v.35a.09.09,0,0,0-.09.09h-.09c-.09,0-.18-.09-.26-.18s-.09-.09-.09-.26c-.09.09-.18.26-.35.35s-.35.09-.44.09a.76.76,0,0,1-.53-.26,1.16,1.16,0,0,1,0-1.23.75.75,0,0,1,.53-.26Zm-.79,1.31a.32.32,0,0,0,.26.09c.09,0,.26-.09.35-.09a.74.74,0,0,0,.35-.61v-.35c-.09.09-.09.09-.18.09s-.09.09-.18.09l-.18.09c-.09,0-.26.09-.35.09a.45.45,0,0,0-.18.35A.32.32,0,0,0,201.79,148.69Z"/><path class="cls-1" d="M203.8,146.24h.35v.35c.09-.18.18-.35.35-.35a.53.53,0,0,1,.35-.09c.35,0,.53.09.61.44.09.09.09.35.09.7v1.84h-.35v-1.84a.66.66,0,0,0-.09-.44c-.09-.18-.18-.26-.35-.26s-.09,0-.18.09-.18.09-.26.26-.09.18-.09.35v2h-.35v-3.06Z"/><path class="cls-1" d="M207.22,146.33a.67.67,0,0,1,.18.26V145.1h.35V149h-.35v-.35c-.09.18-.18.35-.35.35a.53.53,0,0,1-.35.09.66.66,0,0,1-.61-.35,2.23,2.23,0,0,1,0-2.1c.09-.35.35-.44.7-.44C207,146.24,207.22,146.24,207.22,146.33Zm-.79,2.19a.58.58,0,0,0,.44.35c.18,0,.35-.09.35-.26a1.88,1.88,0,0,0,.18-.88,2.59,2.59,0,0,0-.18-.88.47.47,0,0,0-.35-.26.48.48,0,0,0-.44.26,1.88,1.88,0,0,0-.18.88A1.75,1.75,0,0,0,206.43,148.52Z"/><path class="cls-1" d="M209.67,145.19h1.14a1.11,1.11,0,0,1,1,.61,2.9,2.9,0,0,1,.35,1.31,3.89,3.89,0,0,1-.18,1.14,1.09,1.09,0,0,1-1.05.88h-1.14l-.09-3.94Zm1.14,3.5a.53.53,0,0,0,.35-.09c.09-.09.26-.18.35-.35a5.58,5.58,0,0,0,.18-.61v-.44a3.43,3.43,0,0,0-.18-1.14c-.09-.26-.35-.35-.7-.35h-.7v3.06l.7-.09Z"/><path class="cls-1" d="M215.09,145.72a3.25,3.25,0,0,1,.35,1.31,2.68,2.68,0,0,1-.35,1.49,1.23,1.23,0,0,1-1.05.7,1.06,1.06,0,0,1-1.05-.61,2.5,2.5,0,0,1-.35-1.49,2.39,2.39,0,0,1,.35-1.4,1.21,1.21,0,0,1,1.14-.79A1.92,1.92,0,0,1,215.09,145.72Zm-.35,2.54a4.34,4.34,0,0,0,.26-1.14,2.19,2.19,0,0,0-.26-1.14.92.92,0,0,0-.79-.44.77.77,0,0,0-.79.44,2.36,2.36,0,0,0-.35,1.31,1.68,1.68,0,0,0,.26,1.05c.18.35.44.44.88.44A.84.84,0,0,0,214.74,148.26Z"/><path class="cls-1" d="M217.81,145.28c.35.18.44.61.53,1.05H218c-.09-.35-.09-.53-.35-.61a1,1,0,0,0-.61-.18.8.8,0,0,0-.7.35,2.32,2.32,0,0,0-.26,1.23,2.19,2.19,0,0,0,.26,1.14c.09.35.35.44.7.44a.66.66,0,0,0,.61-.35,1.68,1.68,0,0,0,.26-1.05H217v-.35h1.31V149h-.26l-.09-.53a1.91,1.91,0,0,1-.35.44,1.27,1.27,0,0,1-.61.18,1,1,0,0,1-.88-.44,2.63,2.63,0,0,1-.35-1.58,2.81,2.81,0,0,1,.35-1.58,1,1,0,0,1,1.66-.26Z"/><path class="cls-1" d="M220.35,145.19h2v.53H220.7v1.23h1.49v.44H220.7v1.84h-.35Z"/><path class="cls-1" d="M225.25,145.72a3.25,3.25,0,0,1,.35,1.31,2.68,2.68,0,0,1-.35,1.49,1.23,1.23,0,0,1-1.05.7,1.06,1.06,0,0,1-1.05-.61,2.5,2.5,0,0,1-.35-1.49,2.39,2.39,0,0,1,.35-1.4,1.21,1.21,0,0,1,1.14-.79A1.63,1.63,0,0,1,225.25,145.72Zm-.35,2.54a4.34,4.34,0,0,0,.26-1.14,2.19,2.19,0,0,0-.26-1.14.92.92,0,0,0-.79-.44.77.77,0,0,0-.79.44,2.36,2.36,0,0,0-.35,1.31,1.68,1.68,0,0,0,.26,1.05c.18.35.44.44.88.44A.84.84,0,0,0,224.9,148.26Z"/><path class="cls-1" d="M228.57,145.72a3.25,3.25,0,0,1,.35,1.31,2.68,2.68,0,0,1-.35,1.49,1.23,1.23,0,0,1-1.05.7,1.06,1.06,0,0,1-1.05-.61,2.5,2.5,0,0,1-.35-1.49,2.39,2.39,0,0,1,.35-1.4,1.21,1.21,0,0,1,1.14-.79A1.92,1.92,0,0,1,228.57,145.72Zm-.44,2.54a4.34,4.34,0,0,0,.26-1.14,2.19,2.19,0,0,0-.26-1.14.92.92,0,0,0-.79-.44.77.77,0,0,0-.79.44,2.36,2.36,0,0,0-.35,1.31,1.68,1.68,0,0,0,.26,1.05c.18.35.44.44.88.44A.7.7,0,0,0,228.14,148.26Z"/><path class="cls-1" d="M229.36,145.19h1.14a.91.91,0,0,1,.88.61,3.25,3.25,0,0,1,.35,1.31,3.89,3.89,0,0,1-.18,1.14,1.09,1.09,0,0,1-1.05.88h-1.14Zm1.05,3.5a.53.53,0,0,0,.35-.09c.09-.09.26-.18.35-.35a5.58,5.58,0,0,0,.18-.61v-.44a3.43,3.43,0,0,0-.18-1.14c-.09-.26-.35-.35-.7-.35h-.7v3.06l.7-.09Z"/><polygon class="cls-2" points="60.68 81.73 59.81 81.73 35.56 81.73 35.56 56.69 180.34 56.69 180.34 81.73 60.68 81.73"/><polygon class="cls-2" points="179.56 57.48 55.69 57.48 55.69 57.48 36.44 57.48 36.44 80.94 59.81 80.94 59.81 80.94 179.56 80.94 179.56 57.48"/><path class="cls-1" d="M183,60.63a2,2,0,0,1-2-1.93,2,2,0,0,1,4,0A2,2,0,0,1,183,60.63Zm0-3.5a1.58,1.58,0,1,0,1.58,1.58A1.52,1.52,0,0,0,183,57.13Zm-.44,2.71h-.35V57.66h.88c.61,0,.88.18.88.61a.6.6,0,0,1-.61.61l.61,1h-.44l-.61-.88h-.35v.88Zm.44-1.23c.26,0,.53,0,.53-.35s-.26-.35-.53-.35h-.44v.61H183Z"/><path class="cls-1" d="M235,87.68a2,2,0,0,1-2-1.93,1.91,1.91,0,0,1,2-1.93,1.93,1.93,0,1,1,0,3.85Zm0-3.59a1.58,1.58,0,1,0,1.58,1.58A1.57,1.57,0,0,0,235,84.09Zm-.44,2.8h-.35v-2.1h.88c.61,0,.88.18.88.61a.6.6,0,0,1-.61.61l.61,1h-.44l-.61-.88h-.35v.79Zm.53-1.23c.26,0,.53,0,.53-.35s-.26-.35-.53-.35h-.44v.7Z"/><path d="M39.41,97c0-6.3-.88-6.57-6.39-8v-1.4H51.14c4.64,0,14.53.53,14.53,13.22,0,8.49-4.73,11.64-7.7,12.43v.18c4.55,1.05,9.89,4.38,9.89,14.53,0,14.79-12.34,14.79-17.16,14.79H39.41ZM45.1,112.1h3.15c3.68,0,11.2-.53,11.2-10.59,0-8.49-4.46-10.68-9.54-10.68-4.46,0-4.73.61-4.73,6.13C45.1,97,45.1,112.1,45.1,112.1Zm0,20.75c0,6.21,0,6.74,5.43,6.74,5.6,0,11.2-2.36,11.2-11.64,0-12.52-9.19-12.69-13.31-12.69H45.19v17.59Z"/><path d="M96.31,142.22a22.21,22.21,0,0,1-8.05,1.49c-9.45,0-15.06-7.44-15.06-21.18,0-11.82,3.59-18.82,13-18.82,6.13,0,10.94,4.46,10.94,14.27v1.23h-19v1.75c0,8,4.55,19.52,13.57,19.52a16.85,16.85,0,0,0,4.64-1l-.09,2.71ZM91.5,115.69c0-4.64-2.19-8.75-6.13-8.75-5.86,0-6.92,6.74-7.09,9.45H91.5Z"/><path d="M105.41,112.63c0-4.9-3-5.16-4.9-5.43v-1.4l9.89-2v10.94h.09c1-3.24,4.38-10.94,10.85-10.94,6.3,0,7.7,4,7.7,9.8v29.15h-5V116.31c0-4.46,0-8.49-4.55-8.49-4.73,0-9.1,10.07-9.1,15.49v19.52h-5v-30.2Z"/><path d="M159.86,142.22a22.21,22.21,0,0,1-8.05,1.49c-9.45,0-15.06-7.44-15.06-21.18,0-11.82,3.59-18.82,13-18.82,6.13,0,10.94,4.46,10.94,14.27v1.23H141.83v1.75c0,8,4.55,19.52,13.57,19.52a16.85,16.85,0,0,0,4.64-1l-.18,2.71ZM155,115.69c0-4.64-2.19-8.75-6.13-8.75-5.86,0-6.92,6.74-7.09,9.45H155Z"/><path d="M170.45,107.46h-5.16v-2.8h5.16V100c0-6.57,1-14.53,9.28-14.53,6.74,0,8.84,4.9,9,8.75h-5.43c-.09-3.24-1-5.6-4.11-5.6-3.85,0-3.85,5.6-3.85,11.38v4.64h8.75v2.8h-8.75v35.36h-5l.09-35.36Z"/><path d="M209.32,133.81h-.09c-.88,3-3.94,10-9.72,10-7.27,0-8.84-6.3-8.84-15.41V112.63c0-4.9-3-5.16-4.9-5.43v-1.4l9.8-2v25.65c0,5.34,1.05,10.33,5.43,10.33s8.32-10.07,8.32-15.41V112.63c0-4.9-3-5.16-4.9-5.43v-1.4l9.8-2v39h-4.9v-9Z"/><path d="M224.55,94.07c0-5.08-3.24-5.25-5.08-5.43v-1.4l10-1.84v57.33h-5l.09-48.67Z"/><rect class="cls-2" x="36.44" y="57.48" width="23.37" height="23.37"/><rect class="cls-3" x="36.44" y="57.48" width="23.37" height="23.37"/><rect class="cls-2" x="37.22" y="58.36" width="21.71" height="21.71"/><rect class="cls-3" x="38.1" y="72.54" width="6.65" height="6.65"/><rect class="cls-3" x="51.4" y="72.54" width="6.65" height="6.65"/><rect class="cls-3" x="44.75" y="65.89" width="6.65" height="6.65"/><rect class="cls-3" x="38.1" y="59.23" width="6.65" height="6.65"/><rect class="cls-3" x="51.4" y="59.23" width="6.65" height="6.65"/><polygon class="cls-1" points="179.56 80.94 60.68 80.94 60.68 57.48 179.56 57.48 179.56 80.94"/><path class="cls-2" d="M75,61.86a12.21,12.21,0,0,0-3.5-.44h-6v.88h.88a1.52,1.52,0,0,1,1.23.44c.09.09.26.44.26,1.58v9.8a3.85,3.85,0,0,1-.18,1.58,1.36,1.36,0,0,1-1.23.53h-.88v.88h7.35v-.88h-.88a1.49,1.49,0,0,1-1.14-.35c-.09-.09-.26-.44-.26-1.66V69.91c.35.09.79.09,1.14.18a6.63,6.63,0,0,0,1.31.09,5.15,5.15,0,0,0,3.76-1.23,4.41,4.41,0,0,0,.44-5.78A9.67,9.67,0,0,0,75,61.86Zm-4.46,1.05a9.1,9.1,0,0,1,1.31-.18,3,3,0,0,1,1.58.35,2.22,2.22,0,0,1,1.05,1.14A3.69,3.69,0,0,1,74.86,66,2.78,2.78,0,0,1,74,68.16a2.36,2.36,0,0,1-1.93.88,3,3,0,0,1-.79-.09c-.26,0-.61-.09-.88-.09l.18-6Z"/><path class="cls-2" d="M92.9,61.33v.88h.88a1.25,1.25,0,0,1,1.14.44c.09.09.26.44.26,1.58v6.13a7.7,7.7,0,0,1-.44,3.33,3.89,3.89,0,0,1-1.58,1.58,6.52,6.52,0,0,1-2.71.61,4.87,4.87,0,0,1-2-.35,4.6,4.6,0,0,1-1.23-1,5.11,5.11,0,0,1-.61-1.66,18.82,18.82,0,0,1-.18-2V64.22c0-1.05.09-1.4.26-1.58a1.36,1.36,0,0,1,1.23-.53h.88v-.88H81.52v.88h.88c.53,0,.88.09,1.05.35a3.19,3.19,0,0,1,.35,1.66V70a12.07,12.07,0,0,0,.35,3.76,4.6,4.6,0,0,0,2,2.45,7.57,7.57,0,0,0,4.11.88,7.27,7.27,0,0,0,3.94-1,5.52,5.52,0,0,0,2-2.28,9.71,9.71,0,0,0,.53-3.59V64.13c0-1.05.09-1.4.18-1.49A1.42,1.42,0,0,1,98.15,62H99v-.88C98.94,61.33,92.9,61.33,92.9,61.33Z"/><path class="cls-2" d="M117.14,75.69a7.83,7.83,0,0,1-1.84-1.93s-2.36-3.15-3.15-4.11a5.69,5.69,0,0,0,2.8-1.49A3.51,3.51,0,0,0,116,65.62a3.74,3.74,0,0,0-.88-2.36,5.07,5.07,0,0,0-2.19-1.31,14.3,14.3,0,0,0-3.85-.35h-6v.88h.88a1.25,1.25,0,0,1,1.14.44c.09.09.26.44.26,1.66v9.8a3.85,3.85,0,0,1-.18,1.58,1.36,1.36,0,0,1-1.23.53h-.88v.88h7.35v-.88h-.88a1.49,1.49,0,0,1-1.14-.35c-.09-.09-.26-.44-.26-1.58v-4.2h1.31l5.43,7.09h4.64v-.88h-.35C118.37,76.13,117.67,76,117.14,75.69ZM108,62.91a14.22,14.22,0,0,1,1.58-.18,2.85,2.85,0,0,1,2.28.88,2.9,2.9,0,0,1,.88,2.19,3,3,0,0,1-1.05,2.28,4.93,4.93,0,0,1-3.24.88H108v-6Z"/><path class="cls-2" d="M123.45,61.51v.88h.79a2,2,0,0,1,1,.26c.18.09.35.26.35.35a11,11,0,0,1,.09,1.4v9.8c0,1.05-.09,1.49-.26,1.58-.26.35-.61.44-1.23.44h-.79v.88h7.27v-.88h-.79a2,2,0,0,1-1-.26c-.18-.09-.35-.26-.35-.35a4,4,0,0,1-.09-1.4V64.4c0-1.05.09-1.49.26-1.58.26-.35.61-.44,1.23-.44h.79v-.88Z"/><path class="cls-2" d="M154.17,61.51h-6v.88h.79a1.58,1.58,0,0,1,1.23.35c.09.09.26.44.26,1.58v8.14l-9.54-10.94h-4.64v.88h.26a2.72,2.72,0,0,1,1,.09,2,2,0,0,1,1,.44,4.65,4.65,0,0,1,1,1V74.29a3.85,3.85,0,0,1-.18,1.58,1.43,1.43,0,0,1-1.31.53h-.79v.88h6v-.88h-.88A1.58,1.58,0,0,1,141,76c-.09-.09-.26-.44-.26-1.58v-9l10.33,11.9h.79v-13a3.85,3.85,0,0,1,.18-1.58,1.43,1.43,0,0,1,1.31-.53h.79v-.7Z"/><path class="cls-2" d="M174.39,76.21a2.94,2.94,0,0,1-1.4-.44,4.89,4.89,0,0,1-1.14-1.93l-5.51-12.78h-.79l-5.78,12.6a4.78,4.78,0,0,1-1.31,2.1,1.94,1.94,0,0,1-1.14.35h-.18V77h5.43v-.88h-.18c-.88-.09-1.23-.18-1.31-.35a.48.48,0,0,1-.26-.44,4.45,4.45,0,0,1,.35-1.23s.88-1.75,1.05-2.28h5.86c.18.44.88,2,.88,2a3.28,3.28,0,0,1,.44,1.49.48.48,0,0,1-.26.44A2.85,2.85,0,0,1,168,76h-.26v.88h6.83V76h-.18ZM165.2,65.36l2.28,5.43h-4.73Z"/></svg>