<svg id="Capa_1" data-name="Capa 1" xmlns="http://www.w3.org/2000/svg" viewBox="0 0 270 206"><defs><style>.cls-1{fill:#bcbcbe;}.cls-2{fill:#0976bc;}.cls-3{fill:#221f1f;}.cls-4{fill:#fff;}.cls-5{fill:#eb2027;}.cls-6{fill:none;}</style></defs><title>marcas</title><path class="cls-1" d="M151.08,120.07a22.83,22.83,0,0,1-15.3,6.28c-4.58,0-6.8-1.83-6.8-4.71,0-6,11.38-8.89,22.1-11.25v9.68m0-11.77c-17.13,4.45-29.55,7.72-29.55,14.52,0,4.18,3.79,7.06,10.46,7.06s15.17-4.05,19.48-7.19c.65,4.05,6.67,7.19,11.12,7.19l3.79-3.4C158,125.3,158,121.9,158,117.06V104.9c0-5.62-.13-9.94-12.55-9.94-8.89,0-23,4.05-23,10.07,0,.78,1,1.57,2.48,1.57,3.79,0,5.75-3.4,5.75-6.67,3-1.57,7.72-2.35,11.64-2.35,8.76,0,8.76,3.66,8.76,5.36Z"/><path class="cls-1" d="M151.74,120.85a24.57,24.57,0,0,1-6.93,4.58,23.4,23.4,0,0,1-9.15,2,10.7,10.7,0,0,1-5.75-1.44,5,5,0,0,1-2.09-4.18,6,6,0,0,1,.65-2.62,9.71,9.71,0,0,1,3.4-3.53,32,32,0,0,1,8.5-3.53c3.27-1,6.93-1.83,10.46-2.62l1.31-.26v10.85H150v-9.68h1l.26,1a93.14,93.14,0,0,0-14.91,4.18,14.51,14.51,0,0,0-4.71,2.88,6.15,6.15,0,0,0-1.18,1.57,3.48,3.48,0,0,0-.39,1.57,4.7,4.7,0,0,0,.26,1.44c.26.65.78,1,1.7,1.57a9.17,9.17,0,0,0,3.66.65,19.47,19.47,0,0,0,8.24-1.83,20.25,20.25,0,0,0,6.28-4.18l1.44,1.57Zm-.65-12.55.26,1c-8.5,2.22-16,4.18-21.05,6.28a19.93,19.93,0,0,0-5.88,3.4,8.8,8.8,0,0,0-1.44,1.83,10.89,10.89,0,0,0-.52,2,6.25,6.25,0,0,0,.52,2.35,6,6,0,0,0,3,2.62,14.14,14.14,0,0,0,5.75,1,27.41,27.41,0,0,0,10.2-2.35,43.32,43.32,0,0,0,8.63-4.71l1.44-1,.26,1.7a5,5,0,0,0,1.18,2.35,10.37,10.37,0,0,0,4.05,2.88,13.76,13.76,0,0,0,4.84,1.18v1l-.65-.78,3.79-3.4.65.78-.13,1a14.89,14.89,0,0,1-5.1-1.44,6.84,6.84,0,0,1-2.35-1.7,7.2,7.2,0,0,1-1.57-3.53,19.15,19.15,0,0,1-.26-3.92V104.77a17.28,17.28,0,0,0-.26-3.79,5.78,5.78,0,0,0-.78-2.09,5,5,0,0,0-3-2.09,25.34,25.34,0,0,0-7.45-.92,45.12,45.12,0,0,0-14.52,2.75,19.53,19.53,0,0,0-5.49,3,5.54,5.54,0,0,0-1.44,1.7,3.71,3.71,0,0,0-.52,1.7h0q0,.2.39.39a2.84,2.84,0,0,0,1.31.26,3.15,3.15,0,0,0,2-.52,4.37,4.37,0,0,0,2-2.09,6.07,6.07,0,0,0,.78-3V99.4l.52-.26a19.79,19.79,0,0,1,5.75-1.83,35.3,35.3,0,0,1,6.28-.65,19.26,19.26,0,0,1,5.36.65A8.8,8.8,0,0,1,150,98.49a5.65,5.65,0,0,1,1.7,2.48,6.5,6.5,0,0,1,.26,2.09V109l-.78.26-.13-.92h-1v-5.1a4.45,4.45,0,0,0-.13-1.31,6.37,6.37,0,0,0-.39-.92,3.93,3.93,0,0,0-2-1.31,15.45,15.45,0,0,0-5.1-.65,30.74,30.74,0,0,0-5.88.52,18.91,18.91,0,0,0-5.23,1.7l-.52-.92h1a8,8,0,0,1-1.7,5.1,6.2,6.2,0,0,1-2.22,1.83,7.26,7.26,0,0,1-3,.65,4.52,4.52,0,0,1-2.35-.65c-.26-.26-.65-.52-.78-.78a1.6,1.6,0,0,1-.39-1.18,5.49,5.49,0,0,1,.78-2.75,10.67,10.67,0,0,1,3.92-3.66,32.64,32.64,0,0,1,9.28-3.53A46.27,46.27,0,0,1,145.46,94a28.18,28.18,0,0,1,7.45.78,7.56,7.56,0,0,1,3.4,1.7,6.55,6.55,0,0,1,2.35,3.92,26.13,26.13,0,0,1,.26,4.58v12.16a23.18,23.18,0,0,0,.13,3.14,7.5,7.5,0,0,0,.52,1.83,4.06,4.06,0,0,0,2,2,18,18,0,0,0,4.84,1.44l2.35.26-5.88,5.23h-.39a15.43,15.43,0,0,1-7.45-2.22,11.31,11.31,0,0,1-3-2.48,7.85,7.85,0,0,1-1.7-3.27l1-.13.65.92a47.49,47.49,0,0,1-9,4.84,30.38,30.38,0,0,1-11,2.48,15,15,0,0,1-8.24-2.09,6.46,6.46,0,0,1-2.35-2.62,7.63,7.63,0,0,1-.78-3.4,7.13,7.13,0,0,1,.65-2.88,10.51,10.51,0,0,1,3.92-4.05,48.28,48.28,0,0,1,10.59-4.58c4.32-1.44,9.55-2.75,15-4.18l.26.92h0Zm26.68-11.9h13.08c-.39,1.83-.92,1.83-1.83,1.83H177.76v21.71c0,3.4.65,7.06,8.37,7.06a32.8,32.8,0,0,0,8.11-1.18l1,1.57A50,50,0,0,1,181.16,130c-6.8,0-10.46-2.88-10.46-6.93V98.23h-2.62c-2.48,0-3,0-3-.52s.52-.78,1.18-1.18l9.68-7.32h1.7V96.4Z"/><path class="cls-1" d="M177.76,96.4V95.22h14.38l-.26,1.31c-.13.52-.26.92-.39,1.31a2.74,2.74,0,0,1-.52.78,2.85,2.85,0,0,1-1,.65,2.55,2.55,0,0,1-.92.13h-10.2v20.66a14.21,14.21,0,0,0,.13,2.35,4.68,4.68,0,0,0,.52,1.44,3.51,3.51,0,0,0,2,1.57,13.06,13.06,0,0,0,4.58.65,31.63,31.63,0,0,0,7.85-1.18l.65-.13,2.35,3.27-1.31.52A48.43,48.43,0,0,1,181,131.31a15.19,15.19,0,0,1-8.37-2.09,6.46,6.46,0,0,1-2.35-2.62,7.09,7.09,0,0,1-.78-3.27V99.27H165.6a.79.79,0,0,1-.52-.13c-.13,0-.26-.13-.39-.13a1.58,1.58,0,0,1-.65-.65,1.42,1.42,0,0,1-.13-.65,1.4,1.4,0,0,1,.26-.78c.13-.39.39-.52.65-.78a2.74,2.74,0,0,1,.78-.52l.52.92-.65-.78,9.94-7.45h3.14v8.24h-.78V96.4h-1V90.25h-.26L167,97.31c-.39.26-.65.39-.65.52h.26l-.39-.26h.52v.26l-.39-.26h0l.52-.13v.13h-.52l.52-.13-.65.26.52-.52.13.26-.65.26.52-.52-.52.39.26-.52.13.13-.52.39.26-.52-.13.39.13-.39-.13.39.13-.39v0h6v25.76a4.48,4.48,0,0,0,.52,2.35,5.7,5.7,0,0,0,2.88,2.62,14.37,14.37,0,0,0,5.88,1,48.21,48.21,0,0,0,13.73-2.62l.39,1-.92.65-1-1.57.92-.65.26,1a35,35,0,0,1-8.37,1.31,17.61,17.61,0,0,1-5-.65,7.94,7.94,0,0,1-2.35-1.31,7.2,7.2,0,0,1-1.83-3,12.73,12.73,0,0,1-.26-3.14V97.18h12.68a2.58,2.58,0,0,0,.26-.92l1,.26v1H177.11v-1h.65ZM141,127c-1.18,0-1.31.92-1.44,1.44-1,5.1-15.69,8.37-26.55,8.37h-8.89c-20.14-.39-37.4-10.07-37.4-25.24,0-16,15.82-27.46,41.45-27.46,11.77,0,20.27,3.27,20.66,5.1.26,1.44.26,1.83,1.18,1.83,1.31,0,1.57-.52,1.7-1.83l.65-5.1A96.06,96.06,0,0,0,110,81.36c-28.38,0-52.57,12.55-52.57,31.38,0,17.39,19.88,27.59,46.55,27.59a128.08,128.08,0,0,0,37.79-5,50.19,50.19,0,0,0,.65-7.19c-.13-.78-.13-1.18-1.44-1.18"/><path class="cls-1" d="M141,127v1h-.26v.13c0,.13-.13.26-.13.52a4.25,4.25,0,0,1-1.31,2.35,13.9,13.9,0,0,1-4.58,3,43.85,43.85,0,0,1-10.33,2.88A69.46,69.46,0,0,1,113,138h-8.89c-10.33-.13-19.75-2.75-26.81-7.19a27,27,0,0,1-8.5-8.24,21,21,0,0,1-3.14-10.85,22.88,22.88,0,0,1,3-11.51c3-5.23,8-9.42,14.65-12.42s15-4.58,24.72-4.58A57.06,57.06,0,0,1,123,85a34.64,34.64,0,0,1,4.58,1.7,13.78,13.78,0,0,1,1.44.92,4.7,4.7,0,0,1,.92,1.31,2.55,2.55,0,0,1,.13.92c0,.13,0,.26.13.26l-.39.13L130,90v.13l-.26.13L130,90l-.26.26.13-.39L130,90l-.26.26.13-.39h.65v0l.13.13-.13-.13.13.13-.13-.13a4.62,4.62,0,0,0,.13-.78l.65-5.1,1,.13-.26,1A94.7,94.7,0,0,0,110,82.4C95.9,82.4,83,85.54,73.67,90.9a35.08,35.08,0,0,0-11.12,9.55,20.58,20.58,0,0,0-4.05,12.16,19.26,19.26,0,0,0,3.4,11.12c3.27,4.84,8.76,8.76,16.08,11.38s16.22,4.05,26,4.05h2.48a131.43,131.43,0,0,0,35-5l.26,1-1-.13c.39-2.48.52-4.05.65-5.1a12.93,12.93,0,0,0,.13-2v-.26h0l.52-.13-.78.26-.13-.13.52-.13-.39.26.39-.26-.26.39-.13-.13.39-.26-.26.39.13-.13V128h-.39V126a2.88,2.88,0,0,1,1,.13c.26.13.52.13.65.39a1.66,1.66,0,0,1,.52.92V128a16.05,16.05,0,0,1-.13,2.22c-.13,1-.26,2.62-.65,5.1l-.13.65-.65.13a131.37,131.37,0,0,1-35.57,5.1h-2.35c-13.47,0-25.24-2.62-33.74-7.45a29.52,29.52,0,0,1-10.07-9,21.94,21.94,0,0,1-3.66-12.29A22.78,22.78,0,0,1,60.85,99C65,93,72,88.29,80.6,85a83.3,83.3,0,0,1,29.55-5.1,98.31,98.31,0,0,1,22.62,2.75l.92.26-.78,6-1-.13,1,.13c0,.39-.13.65-.13.92a1.86,1.86,0,0,1-.26.78,1.81,1.81,0,0,1-1,.92,3.87,3.87,0,0,1-1.31.26,2.23,2.23,0,0,1-.92-.13,1.31,1.31,0,0,1-.65-.52,1.74,1.74,0,0,1-.39-.92c-.13-.26-.13-.65-.26-1l1-.13-1,.26h.26l-.26.13h.26l-.26.13c0-.13-.26-.26-.52-.52a15.84,15.84,0,0,0-2.62-1.31,50.1,50.1,0,0,0-16.48-2.48c-12.68,0-22.75,2.88-29.68,7.58a26.85,26.85,0,0,0-8,8.37,20.49,20.49,0,0,0-2.75,10.46,18.31,18.31,0,0,0,2.88,9.81c2.75,4.32,7.32,7.85,13.21,10.46A54.85,54.85,0,0,0,104.27,136v0h8.89a64.35,64.35,0,0,0,16.61-2.22,26.11,26.11,0,0,0,6.28-2.48,7.43,7.43,0,0,0,1.83-1.44,4.9,4.9,0,0,0,.78-1.31,4.42,4.42,0,0,1,.52-1.31,1.92,1.92,0,0,1,.78-.65,3.82,3.82,0,0,1,1.18-.26V127Z"/><path class="cls-1" d="M161.28,148.7a16,16,0,0,1-6.67,1.31c-7.85,0-12.16-5.1-12.16-11,0-6.54,4.58-11.64,12.55-11.64,2.35,0,6.41.65,8.63,2.48l-.92,4.18h-.78c0-1.7-.92-5.36-7.32-5.36-4.05,0-9.28,2.48-9.28,10.2a9.56,9.56,0,0,0,9.68,9.94c2.35,0,5.36-1,6.15-3.14h.78l-.65,3m6-19.62a7.53,7.53,0,0,0,.26-1.31c0-.52-.39-.78-.92-.78a5.56,5.56,0,0,0-1.44.26l.26-.92,5-1.18-3.66,17.13c1.57-2.48,4.45-6.8,7.19-6.8a1.81,1.81,0,0,1,2,1.83,7.83,7.83,0,0,1-.26,1.57l-1.83,7.19c0,.26-.13.78-.13,1a.62.62,0,0,0,.65.65c.92,0,1.57-1.18,2-2.09l.78.26c-.26.92-2.09,3.79-4.05,3.79a1.86,1.86,0,0,1-1.83-2.09,7.65,7.65,0,0,1,.26-1.7l1.7-6.93c0-.26.13-.78.13-1,0-.52-.26-.78-.65-.78-1.57,0-4.05,3.27-4.84,4.58-1.7,2.75-2,3.79-2.75,7.32l-2.35.52,4.58-20.53m19.88,10.46c0,2-1.7,9.55-5.36,9.55-1.44,0-2.22-1-2.22-3.66,0-3.4,2-8.89,5.1-8.89,1,0,2.48.39,2.48,3m-10.07,5.23c0,3.27,2.22,5.23,4.58,5.23,4.71,0,7.85-5.62,7.85-9.81,0-3-2-4.58-4.71-4.58-3.66,0-7.72,4.18-7.72,9.15"/><path class="cls-1" d="M192.67,139.16a4.21,4.21,0,0,0,.13-1c0-.39-.13-.65-.39-.65-.92,0-1.83,1.44-2.22,2l-.65-.52c1.7-2.09,2.75-3.27,4.18-3.27,1.18,0,1.44,1.18,1.44,1.83a4.88,4.88,0,0,1-.26,1.57l-1.7,7.45c0,.26-.13.65-.13,1s.26,1,.78,1c1.18,0,3.14-2.62,4.71-5.75a24.19,24.19,0,0,0,2.22-6.54l2.22-.52-2.09,9.68a13.77,13.77,0,0,0-.39,2.35,1,1,0,0,0,1,1c2.48,0,6.54-6.67,6.54-9.94,0-.65-.39-1.44-.92-1.44a3.33,3.33,0,0,0-.92.26l-.13-.52c.78-.65,1.83-1.57,2.48-1.57,1.31,0,1.57,1.57,1.57,2.35,0,3.66-5.1,12.16-9.42,12.16-1.83,0-2.35-1-2.35-2.22a16.76,16.76,0,0,1,.78-4.18c-1.18,2.35-3.79,6.54-6.41,6.54a1.92,1.92,0,0,1-2.09-2.09,8,8,0,0,1,.39-2.09l1.57-6.93"/><path class="cls-2" d="M149.25,118.5a22.83,22.83,0,0,1-15.3,6.28c-4.58,0-6.8-1.83-6.8-4.71,0-6,11.38-8.89,22.1-11.25v9.68m0-11.77c-17.13,4.45-29.55,7.72-29.55,14.52,0,4.18,3.79,7.06,10.46,7.06s15.17-4.05,19.48-7.19c.65,4.05,6.67,7.19,11.12,7.19l3.79-3.4c-8.37-1.18-8.37-4.58-8.37-9.42V103.33c0-5.62-.13-9.94-12.55-9.94-8.89,0-23,4.05-23,10.07,0,.78,1,1.57,2.48,1.57,3.79,0,5.75-3.4,5.75-6.67,3-1.57,7.72-2.35,11.64-2.35,8.76,0,8.76,3.66,8.76,5.36Z"/><path class="cls-2" d="M150,119.28a24.57,24.57,0,0,1-6.93,4.58,23.4,23.4,0,0,1-9.15,2,10.7,10.7,0,0,1-5.75-1.44,5,5,0,0,1-2.09-4.18,6,6,0,0,1,.65-2.62,9.71,9.71,0,0,1,3.4-3.53,32,32,0,0,1,8.5-3.53c3.27-1,6.93-1.83,10.46-2.62l1.31-.26v11h-2.09v-9.68h1l.26,1a93.14,93.14,0,0,0-14.91,4.18,14.51,14.51,0,0,0-4.71,2.88,6.15,6.15,0,0,0-1.18,1.57,3.48,3.48,0,0,0-.39,1.57,4.7,4.7,0,0,0,.26,1.44,2.9,2.9,0,0,0,1.7,1.57,9.17,9.17,0,0,0,3.66.65,19.47,19.47,0,0,0,8.24-1.83,20.25,20.25,0,0,0,6.28-4.18l1.44,1.44Zm-.78-12.55.26,1c-8.5,2.22-15.82,4.18-21.05,6.28a19.93,19.93,0,0,0-5.88,3.4,8.8,8.8,0,0,0-1.44,1.83,10.89,10.89,0,0,0-.52,2,6.25,6.25,0,0,0,.52,2.35,6,6,0,0,0,3,2.62,14.14,14.14,0,0,0,5.75,1,27.41,27.41,0,0,0,10.2-2.35,43.32,43.32,0,0,0,8.63-4.71l1.44-1,.26,1.7a5,5,0,0,0,1.18,2.35,10.37,10.37,0,0,0,4.05,2.88,13.76,13.76,0,0,0,4.84,1.18v1l-.65-.78,3.79-3.4.65.78-.13,1a14.89,14.89,0,0,1-5.1-1.44,6.84,6.84,0,0,1-2.35-1.7,7.2,7.2,0,0,1-1.57-3.53,19.15,19.15,0,0,1-.26-3.92V103.2a17.28,17.28,0,0,0-.26-3.79,5.78,5.78,0,0,0-.78-2.09,5,5,0,0,0-3-2.09,25.34,25.34,0,0,0-7.45-.92,45.12,45.12,0,0,0-14.52,2.75,19.53,19.53,0,0,0-5.49,3,5.54,5.54,0,0,0-1.44,1.7,3.71,3.71,0,0,0-.52,1.7h0q0,.2.39.39a2.46,2.46,0,0,0,1,.26,3.15,3.15,0,0,0,2-.52,4.37,4.37,0,0,0,2-2.09,6.07,6.07,0,0,0,.78-3v-.65l.52-.26a19.79,19.79,0,0,1,5.75-1.83,35.3,35.3,0,0,1,6.28-.65,19.26,19.26,0,0,1,5.36.65,8.8,8.8,0,0,1,2.48,1.18,5.65,5.65,0,0,1,1.7,2.48,6.5,6.5,0,0,1,.26,2.09v5.88l-.78.26.13-.92h-1v-5.1a4.45,4.45,0,0,0-.13-1.31,6.37,6.37,0,0,0-.39-.92,3.93,3.93,0,0,0-2-1.31,15.45,15.45,0,0,0-5.1-.65,30.74,30.74,0,0,0-5.88.52,18.91,18.91,0,0,0-5.23,1.7l-.52-.92h1a8,8,0,0,1-1.7,5.1,6.2,6.2,0,0,1-2.22,1.83,7.26,7.26,0,0,1-3,.65,4.52,4.52,0,0,1-2.35-.65c-.26-.26-.65-.52-.78-.78a1.6,1.6,0,0,1-.39-1.18,5.49,5.49,0,0,1,.78-2.75,10.67,10.67,0,0,1,3.92-3.66,32.64,32.64,0,0,1,9.28-3.53,46.27,46.27,0,0,1,10.07-1.31,28.18,28.18,0,0,1,7.45.78,7.56,7.56,0,0,1,3.4,1.7,6.55,6.55,0,0,1,2.35,3.92,26.13,26.13,0,0,1,.26,4.58v12.16a23.18,23.18,0,0,0,.13,3.14,7.5,7.5,0,0,0,.52,1.83,4.06,4.06,0,0,0,2,2,18,18,0,0,0,4.84,1.44l2.35.26L161,129.48h-.39a15.43,15.43,0,0,1-7.45-2.22,11.31,11.31,0,0,1-3-2.48,7.85,7.85,0,0,1-1.7-3.27l1-.13.65.92a47.49,47.49,0,0,1-9,4.84,30.38,30.38,0,0,1-11,2.48,15,15,0,0,1-8.24-2.09,6.46,6.46,0,0,1-2.35-2.62,7.63,7.63,0,0,1-.78-3.4,7.13,7.13,0,0,1,.65-2.88,10.51,10.51,0,0,1,3.92-4.05A48.28,48.28,0,0,1,134,110c4.32-1.44,9.55-2.75,15-4.18l.26.92h0Zm26.68-12H189c-.39,1.83-.92,1.83-1.83,1.83H175.93v21.71c0,3.4.65,7.06,8.37,7.06a32.8,32.8,0,0,0,8.11-1.18l1,1.57a50,50,0,0,1-14.12,2.62c-6.8,0-10.46-2.88-10.46-6.93V96.66h-2.62c-2.48,0-3,0-3-.52s.52-.78,1.18-1.18l9.68-7.32h1.7V94.7Z"/><path class="cls-2" d="M175.93,94.7v-1h14.38L190.05,95c-.13.52-.26.92-.39,1.31a2.74,2.74,0,0,1-.52.78,2.85,2.85,0,0,1-1,.65,2.55,2.55,0,0,1-.92.13H177V118.5a14.21,14.21,0,0,0,.13,2.35,4.68,4.68,0,0,0,.52,1.44,3.51,3.51,0,0,0,2,1.57,13.06,13.06,0,0,0,4.58.65,31.63,31.63,0,0,0,7.85-1.18l.65-.13,2.35,3.27-1.31.52a48.43,48.43,0,0,1-14.52,2.75,15.19,15.19,0,0,1-8.37-2.09,6.46,6.46,0,0,1-2.35-2.62,7.09,7.09,0,0,1-.78-3.27V97.7H164a.79.79,0,0,1-.52-.13c-.13,0-.26-.13-.39-.13a1.58,1.58,0,0,1-.65-.65,1.42,1.42,0,0,1-.13-.65,1.4,1.4,0,0,1,.26-.78c.13-.39.39-.52.65-.78A2.74,2.74,0,0,1,164,94l.52.92-.65-.78,9.94-7.45H177V95h-1V94.7h-1V88.55h-.26l-9.42,7.06c-.39.26-.65.39-.65.52h.26l-.39-.26h.52v.26l-.39-.26h0l.52-.13v.13h-.52l.52-.13-.65.26.52-.52.13.26-.65.26.52-.52-.52.39.26-.52.13.13-.52.39.26-.52-.13.39.13-.39-.13.39.13-.39v0h6v26a4.48,4.48,0,0,0,.52,2.35,5.7,5.7,0,0,0,2.88,2.62,14.37,14.37,0,0,0,5.88,1,48.21,48.21,0,0,0,13.73-2.62l.39,1-.92.65-1-1.57.92-.65.26,1a35,35,0,0,1-8.37,1.31,17.61,17.61,0,0,1-5-.65,7.94,7.94,0,0,1-2.35-1.31,7.2,7.2,0,0,1-1.83-3,12.73,12.73,0,0,1-.26-3.14v-23h12.68a1.87,1.87,0,0,0,.39-.92l1,.26v1H175.41v-1h.52Zm-36.62,30.73c-1.18,0-1.31.92-1.44,1.44-1,5.1-15.69,8.37-26.55,8.37h-8.89C82.3,134.84,65,125.17,65,110c0-16,15.82-27.46,41.45-27.46,11.77,0,20.27,3.27,20.66,5.1.26,1.44.26,1.83,1.18,1.83,1.31,0,1.57-.52,1.7-1.83l.65-5.1a96.06,96.06,0,0,0-22.36-2.75c-28.38,0-52.57,12.55-52.57,31.38,0,17.39,19.88,27.59,46.55,27.59a128.08,128.08,0,0,0,37.79-5,50.19,50.19,0,0,0,.65-7.19c-.26-.78-.26-1.18-1.44-1.18"/><path class="cls-2" d="M139.32,125.43v1h-.26v.13c0,.13-.13.26-.13.52a4.25,4.25,0,0,1-1.31,2.35,13.9,13.9,0,0,1-4.58,3,43.85,43.85,0,0,1-10.33,2.88,69.46,69.46,0,0,1-11.38,1h-8.89c-10.33-.13-19.75-2.75-26.81-7.19a27,27,0,0,1-8.5-8.24A21,21,0,0,1,64,110.13a22.88,22.88,0,0,1,3-11.51c3-5.23,8-9.42,14.65-12.42s15-4.58,24.72-4.58a57.06,57.06,0,0,1,14.91,1.83,34.64,34.64,0,0,1,4.58,1.7,13.78,13.78,0,0,1,1.44.92,4.7,4.7,0,0,1,.92,1.31,2.55,2.55,0,0,1,.13.92c0,.13,0,.26.13.26l-.52.13.26-.26v.13l-.26.13.26-.26-.26.26.13-.39.13.13-.26.26.13-.39h.65v0l.13.13-.13-.13.13.13-.13-.13a4.62,4.62,0,0,0,.13-.78l.65-5.1,1,.13-.26.92a94.7,94.7,0,0,0-22.1-2.75c-14.12,0-27.07,3.14-36.35,8.5a35.08,35.08,0,0,0-11.12,9.55,20.58,20.58,0,0,0-4.05,12.16A19.26,19.26,0,0,0,60.07,122c3.27,4.84,8.76,8.76,16.08,11.38s16.22,4.05,26,4.05h2.48a131.43,131.43,0,0,0,35-5l.26,1-1-.13c.39-2.48.52-4.05.65-5.1a12.93,12.93,0,0,0,.13-2v-.26h0l.52-.13-.39.26-.13-.13.52-.13-.39.26.39-.26-.26.39-.13-.13.39-.26-.26.39.13-.13v.13l.13-.13v.13h-.39v-2a2.88,2.88,0,0,1,1,.13c.26.13.52.13.65.39a1.66,1.66,0,0,1,.52.92v.65a16.05,16.05,0,0,1-.13,2.22c-.13,1-.26,2.62-.65,5.1l-.52.65-.65.13a126.19,126.19,0,0,1-35.57,5.1h-2.35c-13.47,0-25.24-2.62-33.74-7.45a29.52,29.52,0,0,1-10.07-9,21.94,21.94,0,0,1-3.66-12.29,22.78,22.78,0,0,1,4.45-13.47c4.18-6,11.12-10.72,19.75-14a83.3,83.3,0,0,1,29.55-5.1,98.31,98.31,0,0,1,22.62,2.75l.92.26-.78,6-1-.13,1,.13c0,.39-.13.65-.13.92a1.86,1.86,0,0,1-.26.78,1.81,1.81,0,0,1-1,.92,3.87,3.87,0,0,1-1.31.26,2.23,2.23,0,0,1-.92-.13,1.31,1.31,0,0,1-.65-.52,1.74,1.74,0,0,1-.39-.92c-.13-.26-.13-.65-.26-1l1-.13-1,.26h.26l-.26.13h.26l-.26.13c0-.13-.26-.26-.52-.52a15.84,15.84,0,0,0-2.62-1.31,50.1,50.1,0,0,0-16.48-2.48c-12.68,0-22.75,2.88-29.68,7.58a26.85,26.85,0,0,0-8,8.37,20.49,20.49,0,0,0-2.75,10.46,18.31,18.31,0,0,0,2.88,9.81c2.75,4.32,7.32,7.85,13.21,10.46a54.85,54.85,0,0,0,20.27,4.05v0h8.89a64.35,64.35,0,0,0,16.61-2.22,26.11,26.11,0,0,0,6.28-2.48,7.43,7.43,0,0,0,1.83-1.44A4.9,4.9,0,0,0,137,127a4.42,4.42,0,0,1,.52-1.31,1.92,1.92,0,0,1,.78-.65,3.82,3.82,0,0,1,1.18-.26v.65Zm21.32,22.62a16,16,0,0,1-6.67,1.31c-7.85,0-12.16-5.1-12.16-11,0-6.54,4.58-11.64,12.55-11.64,2.35,0,6.41.65,8.63,2.48l-.92,4.18h-.78c0-1.7-.92-5.36-7.32-5.36-4.05,0-9.28,2.48-9.28,10.2a9.56,9.56,0,0,0,9.68,9.94c2.35,0,5.36-1,6.15-3.14h.78l-.65,3m6.15-19.62a7.53,7.53,0,0,0,.26-1.31c0-.52-.39-.78-.92-.78a5.56,5.56,0,0,0-1.44.26l.26-.92,5-1.18-3.79,17.26c1.57-2.48,4.45-6.8,7.19-6.8a1.81,1.81,0,0,1,2,1.83,7.83,7.83,0,0,1-.26,1.57l-1.83,7.19c0,.26-.13.78-.13,1a.62.62,0,0,0,.65.65c.92,0,1.57-1.18,2-2.09l.78.26c-.26.92-2.09,3.79-4.05,3.79a1.86,1.86,0,0,1-1.83-2.09,7.65,7.65,0,0,1,.26-1.7l1.7-6.93c0-.26.13-.78.13-1,0-.52-.26-.78-.65-.78-1.57,0-4.05,3.27-4.84,4.58-1.7,2.75-2,3.79-2.75,7.32l-2.35.52,4.71-20.66m19.75,10.46c0,2-1.7,9.55-5.36,9.55-1.44,0-2.22-1-2.22-3.66,0-3.4,2-8.89,5.1-8.89,1,0,2.48.39,2.48,3m-10.07,5.23c0,3.27,2.22,5.23,4.58,5.23,4.71,0,7.85-5.62,7.85-9.81,0-3-2-4.58-4.71-4.58-3.53,0-7.72,4.18-7.72,9.15"/><path class="cls-2" d="M192,138.5a4.21,4.21,0,0,0,.13-1c0-.39-.13-.65-.39-.65-.92,0-1.83,1.44-2.22,2.09l-.65-.52c1.7-2.09,2.75-3.27,4.18-3.27,1.18,0,1.44,1.18,1.44,1.83a4.88,4.88,0,0,1-.26,1.57l-1.7,7.45c0,.26-.13.65-.13,1s.26,1,.78,1c1.18,0,3.14-2.62,4.71-5.75a24.19,24.19,0,0,0,2.22-6.54l2.35-.52-2.09,9.68a13.77,13.77,0,0,0-.39,2.35,1,1,0,0,0,1,1c2.48,0,6.54-6.67,6.54-9.94,0-.65-.39-1.44-.92-1.44a3.33,3.33,0,0,0-.92.26l-.13-.52c.78-.65,1.83-1.57,2.48-1.57,1.31,0,1.57,1.57,1.57,2.35,0,3.66-5.1,12.16-9.42,12.16-1.83,0-2.35-1-2.35-2.22a16.76,16.76,0,0,1,.78-4.18c-1.18,2.35-3.79,6.54-6.41,6.54a1.92,1.92,0,0,1-2.09-2.09,8,8,0,0,1,.39-2.09L192,138.5"/><path class="cls-3" d="M213.59,139.42a1.62,1.62,0,0,1-1.57-1.7,1.55,1.55,0,0,1,1.57-1.7,1.71,1.71,0,0,1,0,3.4m0,.39a2.1,2.1,0,0,0,2.09-2.22,2.18,2.18,0,0,0-2.09-2.22,2.23,2.23,0,0,0,0,4.45m-.78-.92h.39v-1h.26l.65,1h.39l-.65-1a.62.62,0,0,0,.65-.65c0-.52-.26-.78-.92-.78h-.92v2.48Zm.39-2.09h.39c.26,0,.52,0,.52.39s-.26.39-.52.39h-.39v-.78"/><path class="cls-4" d="M76.42,55.6H181.95V74.69H76.42Z"/><path class="cls-4" d="M77.07,56.25H95.51V74H77.07Z"/><path class="cls-5" d="M77.07,56.25H94.85V74H77.07Z"/><path class="cls-3" d="M186.13,73.51a2.1,2.1,0,1,1,2-2.09,2,2,0,0,1-2,2.09m0,.52a2.62,2.62,0,1,0-2.62-2.62A2.62,2.62,0,0,0,186.13,74m-1-1.18h.52V71.55H186l.78,1.31h.52l-.78-1.31a.69.69,0,0,0,.78-.78c0-.65-.39-.92-1-.92h-1v3Zm.52-2.48h.52c.26,0,.65,0,.65.39s-.26.39-.65.39h-.52ZM95.51,56.25h85.78V74H95.51Z"/><path class="cls-4" d="M105.84,59.52a6.59,6.59,0,0,0-2.48-.39H99v.65h.65a1.89,1.89,0,0,1,.92.26c.13.13.13.39.13,1.31V68.8a5.4,5.4,0,0,1-.13,1.18,1.19,1.19,0,0,1-.92.39H99V71h5.23v-.65h-.65a1.11,1.11,0,0,1-.78-.26c-.13-.13-.13-.39-.13-1.31V65.67c.26,0,.52.13.78.13h.92a3.68,3.68,0,0,0,2.75-.92,3.26,3.26,0,0,0,.92-2.48,3.52,3.52,0,0,0-.65-2,8.3,8.3,0,0,0-1.57-.92m-3.14.78a2.55,2.55,0,0,1,.92-.13,3.82,3.82,0,0,1,1.18.26,1.38,1.38,0,0,1,.78.92,4.65,4.65,0,0,1,.26,1.31,3.27,3.27,0,0,1-.52,1.7,1.87,1.87,0,0,1-1.44.65h-.52a1.42,1.42,0,0,1-.65-.13Zm16.08-1.18v.65h.65a1.89,1.89,0,0,1,.92.26c.13.13.13.39.13,1.31v4.71a9.33,9.33,0,0,1-.26,2.48A2.57,2.57,0,0,1,119,69.72a4.33,4.33,0,0,1-2,.52,4.7,4.7,0,0,1-1.44-.26,1.76,1.76,0,0,1-.92-.78,2,2,0,0,1-.39-1.31,6.37,6.37,0,0,1-.13-1.57v-5a5.4,5.4,0,0,1,.13-1.18c.13-.26.39-.39.92-.39h.65v-.65h-5.23v.65h.65a1.11,1.11,0,0,1,.78.26,2.1,2.1,0,0,1,.26,1.31V65.8a12.39,12.39,0,0,0,.26,2.88,3.38,3.38,0,0,0,1.44,1.83,6,6,0,0,0,3,.65A6.23,6.23,0,0,0,120,70.5a4.37,4.37,0,0,0,1.44-1.7,7.64,7.64,0,0,0,.39-2.75V61.35a5.4,5.4,0,0,1,.13-1.18,1,1,0,0,1,.92-.52h.65V59h-4.71ZM136.31,70A7.41,7.41,0,0,1,135,68.54s-1.7-2.35-2.22-3.14a4.54,4.54,0,0,0,2-1,2.66,2.66,0,0,0,.78-2,3.12,3.12,0,0,0-.65-1.83,2.6,2.6,0,0,0-1.57-1,13.88,13.88,0,0,0-2.75-.26h-4.32v.65h.65a1.89,1.89,0,0,1,.92.26c.13.13.13.39.13,1.31v7.45a5.4,5.4,0,0,1-.13,1.18,3.12,3.12,0,0,1-1.18.26H126V71h5.23v-.65h-.65a1.11,1.11,0,0,1-.78-.26c-.13-.13-.13-.39-.13-1.31V65.67h1L134.61,71H138v-.65h-.13a2.51,2.51,0,0,1-1.57-.39m-6.67-9.68a4.5,4.5,0,0,1,1.18-.13,2.49,2.49,0,0,1,1.7.65,2.26,2.26,0,0,1,.65,1.7,2.11,2.11,0,0,1-.78,1.7,3.88,3.88,0,0,1-2.35.65h-.26V60.3Zm11.25-1.18v.65h.52a1,1,0,0,1,.65.13c.13.13.26.13.26.26a5,5,0,0,1,.13,1v7.45a3.13,3.13,0,0,1-.13,1.18,1,1,0,0,1-.92.39h-.52v.65h5.23v-.52h-.52a1,1,0,0,1-.65-.13c-.13-.13-.26-.13-.26-.26a5,5,0,0,1-.13-1V61.48a3.13,3.13,0,0,1,.13-1.18,1,1,0,0,1,.92-.39h.52v-.65h-5.23Zm22.1,0h-4.32v.65h.52a1.89,1.89,0,0,1,.92.26c.13.13.26.39.26,1.18v6.15L153.44,59H150v.65h.13a1,1,0,0,1,.65.13,2.86,2.86,0,0,1,.65.39l.65.65v8A5.4,5.4,0,0,1,152,70a1,1,0,0,1-.92.39h-.39V71H155v-.65h-.52a1.89,1.89,0,0,1-.92-.26c-.13-.13-.13-.39-.13-1.18V62.27l7.45,9h.52V61.35a5.4,5.4,0,0,1,.13-1.18,1,1,0,0,1,.92-.39H163Zm14.65,11.25a1.48,1.48,0,0,1-1-.39,3.47,3.47,0,0,1-.78-1.44l-3.92-9.68h-.52l-4.18,9.55a7,7,0,0,1-.92,1.57c-.13,0-.26.13-.92.26h-.13v.65h3.92v-.52H169c-.65,0-.92-.13-1-.26a.48.48,0,0,1-.13-.39,1.87,1.87,0,0,1,.26-.92,15.45,15.45,0,0,1,.78-1.7h4.32c.13.39.65,1.57.65,1.57a3.54,3.54,0,0,1,.39,1,.48.48,0,0,1-.13.39c-.13.13-.26.13-.78.13h-.13v.65h5v-.52h-.52ZM171,62.13l1.7,4.05h-3.4ZM77.72,56.77H94.2V73.25H77.72Z"/><path class="cls-5" d="M78.38,67.63h5.1v5.1h-5.1Zm10.2,0h5.1v5.1h-5.1Zm-5.1-5.1h5.1v5.1h-5.1Zm-5.1-5.1h5.1v5.1h-5.1Zm10.2,0h5.1v5.1h-5.1Z"/><path class="cls-6" d="M50,44.22H220V161.78H50Z"/></svg>