<svg id="Capa_1" data-name="Capa 1" xmlns="http://www.w3.org/2000/svg" viewBox="0 0 270 206"><defs><style>.cls-1{fill:#fff;}.cls-2{fill:#e1231a;}.cls-3{fill:#231f20;}.cls-4{fill:#00943a;}.cls-5{fill:#2b5134;}</style></defs><title>marcas</title><path class="cls-1" d="M63,38h141.3v25.5H63Z"/><path class="cls-1" d="M63.95,38.95h24.7v23.8H63.95Z"/><path class="cls-2" d="M63.95,38.95h23.8v23.8H63.95Z"/><path d="M203.45,62.75H88.55V38.95h114.9v23.8"/><path class="cls-1" d="M102.45,43.35a9.35,9.35,0,0,0-3.3-.4h-5.9v.9H94a1.75,1.75,0,0,1,1.2.4,4.67,4.67,0,0,1,.3,1.7v10a3,3,0,0,1-.2,1.6,1.15,1.15,0,0,1-1.2.5h-.8v.9h7v-.8h-.8a1.5,1.5,0,0,1-1.1-.4,2.49,2.49,0,0,1-.3-1.7v-4.2c.4.1.8.1,1.1.2a4.87,4.87,0,0,0,1.2.1,5.26,5.26,0,0,0,3.7-1.3,4,4,0,0,0,1.3-3.3,4.32,4.32,0,0,0-.9-2.6,3.75,3.75,0,0,0-2.1-1.6m-4.3,1.1a5,5,0,0,1,1.2-.2,2.93,2.93,0,0,1,1.6.4,3.18,3.18,0,0,1,1.1,1.2,3.92,3.92,0,0,1,.4,1.8,3,3,0,0,1-.8,2.2,2.56,2.56,0,0,1-1.9.8h-.8l-.9-.1c.1,0,.1-6.1.1-6.1Zm21.6-1.6v.9h.8a1.5,1.5,0,0,1,1.1.4,3.23,3.23,0,0,1,.3,1.7V52a9.91,9.91,0,0,1-.4,3.4,3.54,3.54,0,0,1-1.6,1.6,4.89,4.89,0,0,1-2.7.6,4.06,4.06,0,0,1-1.9-.4,2.94,2.94,0,0,1-1.2-1,4.92,4.92,0,0,1-.6-1.7,15,15,0,0,1-.2-2v-6.7a3,3,0,0,1,.2-1.6,1.35,1.35,0,0,1,1.2-.5h.8v-.9h-7v.9h.8a1.5,1.5,0,0,1,1.1.4,2.49,2.49,0,0,1,.3,1.7v6a13,13,0,0,0,.4,3.9,5.46,5.46,0,0,0,2,2.5,7,7,0,0,0,4,.9,7.13,7.13,0,0,0,3.8-.9,4.75,4.75,0,0,0,1.9-2.3,11.42,11.42,0,0,0,.5-3.7V46a2.62,2.62,0,0,1,.2-1.5,1.39,1.39,0,0,1,1.2-.7h.8v-.9h-5.8m23.4,14.4a8.6,8.6,0,0,1-1.8-2l-3-4.2a5.23,5.23,0,0,0,2.7-1.5,3.78,3.78,0,0,0,1-2.7,3.41,3.41,0,0,0-.9-2.4,4.65,4.65,0,0,0-2.1-1.3,15.53,15.53,0,0,0-3.7-.4h-5.8v.9h.8a1.5,1.5,0,0,1,1.1.4,3.23,3.23,0,0,1,.3,1.7v10a3,3,0,0,1-.2,1.6,1.15,1.15,0,0,1-1.2.5h-.8v.9h7v-.9h-.8a1.5,1.5,0,0,1-1.1-.4,3.23,3.23,0,0,1-.3-1.7v-4.3h1.3l5.2,7.2h4.5v-.8h-.2a3.61,3.61,0,0,1-2-.6m-8.8-12.9a7.77,7.77,0,0,1,1.6-.2,3.49,3.49,0,0,1,2.2.8,2.65,2.65,0,0,1,.8,2.2,3.26,3.26,0,0,1-1,2.3,4.49,4.49,0,0,1-3.2.9h-.4v-6Zm14.9-1.5v.9h.8a2.92,2.92,0,0,1,.9.2.78.78,0,0,1,.4.4,3.81,3.81,0,0,1,.1,1.5v10a2.85,2.85,0,0,1-.2,1.6,1.85,1.85,0,0,1-1.2.5h-.8v.9h7v-.8h-.8a2.92,2.92,0,0,1-.9-.2.78.78,0,0,1-.4-.4A3.81,3.81,0,0,1,154,56V46a2.85,2.85,0,0,1,.2-1.6,1.66,1.66,0,0,1,1.2-.5h.8V43h-7m29.7-.1h-5.8v.9h.7a1.75,1.75,0,0,1,1.2.4,2.32,2.32,0,0,1,.3,1.6v8.3l-9.2-11.2h-4.5v.9h.2a3.2,3.2,0,0,1,1.9.5,7.64,7.64,0,0,1,.9.9v10.7a3,3,0,0,1-.2,1.6,1.22,1.22,0,0,1-1.2.5h-.8v.9h5.8V58h-.8a1.75,1.75,0,0,1-1.2-.4,4.53,4.53,0,0,1-.3-1.6v-8.9l10,12h.7V45.75a3,3,0,0,1,.2-1.6,1.22,1.22,0,0,1,1.2-.5h.8l.1-.7m19.5,15a1.9,1.9,0,0,1-1.3-.5,5.24,5.24,0,0,1-1.1-1.9l-5.4-13h-.8l-5.6,12.8a9.41,9.41,0,0,1-1.2,2.2,2.1,2.1,0,0,1-1.1.4h-.2v.8h5.4v-.8h-.3a2.77,2.77,0,0,1-1.3-.3c-.2-.1-.2-.3-.3-.4a3.26,3.26,0,0,1,.4-1.3l1.1-2.3h5.7l.9,2.1a4.19,4.19,0,0,1,.4,1.5c0,.2-.1.3-.2.5a2,2,0,0,1-1.1.3h-.2v.9h6.6V58l-.4-.1m-8.9-11.1,2.2,5.5h-4.6l2.4-5.5Zm-124.8-7.1h22.1v22.1H64.75Z"/><path class="cls-2" d="M65.65,54.25h6.8V61h-6.8Zm13.6,0H86V61h-6.8Zm-6.8-6.8h6.8v6.8h-6.8Zm-6.8-6.8h6.8v6.8h-6.8Zm13.6,0H86v6.8h-6.8Z"/><path class="cls-3" d="M208.95,43.15a2.35,2.35,0,1,1,2.3-2.4v.1a2.31,2.31,0,0,1-2.1,2.4A.31.31,0,0,0,208.95,43.15Zm0-4.2a1.88,1.88,0,0,0-1.7,2,1.92,1.92,0,0,0,1.7,1.7,2,2,0,0,0,1.5-2.1A2.05,2.05,0,0,0,208.95,38.95Zm-.4,3.1H208v-2.6h.9c.6,0,1,.2,1,.8a.75.75,0,0,1-.5.7h-.1l.6,1.1h-.6l-.6-1.1h-.3V42h.1Zm.5-1.5c.2,0,.4,0,.4-.3s-.3-.3-.5-.3h-.4v.6Z"/><path class="cls-4" d="M85.25,113.15a18.37,18.37,0,0,1-6.9,1.3s-4.2-1.3-4.6-1.4l-.3,1.4h-8.3v-3.1l3.6-.8v-38l-3.6-.7v-3.1h14.6c12.8,0,17.2,10.7,17.2,22.7C96.85,100.65,93.95,109.55,85.25,113.15ZM84,74.35a7.62,7.62,0,0,0-4.4-1.6c-1.7,0-3.4.1-5.1,0v36.8a13.2,13.2,0,0,0,3.9.6,8.27,8.27,0,0,0,4.8-1.5c5.4-3.5,6.9-11.2,6.9-17.4C90.15,85.55,88.95,77.75,84,74.35Z"/><path class="cls-4" d="M62.55,117.15v-7.7l3.6-.8V74.75l-3.6-.8v-7.7h17.1a17.69,17.69,0,0,1,13.1,5c4.3,4.3,6.6,11.3,6.6,20.3a32.19,32.19,0,0,1-2.8,14,19.23,19.23,0,0,1-10.4,10,21.33,21.33,0,0,1-7.9,1.5h-.3l-.4-.1-2-.6-.2.7Zm8.7-45.8V112h.2l.4-1.9H72V71.35Zm14.7,1.2c5.9,4.5,6.8,13.6,6.8,18.7s-1,14.2-7.2,19c7.2-3.8,8.7-12.2,8.7-18.7,0-5.3-.9-12.4-5.1-16.7A9,9,0,0,0,85.95,72.55Zm-8.8,35a5.7,5.7,0,0,0,1.3.1,6,6,0,0,0,3.4-1.1c5.2-3.3,5.7-11.8,5.7-15.3s-.4-11.7-5-14.9l-.1-.1a4.78,4.78,0,0,0-2.8-1h-2.5Zm38.6,7.2c-5.1,0-13.1-3-13-19.6,0-16.1,7-19.9,13.1-19.9,5.8,0,13.2,3.5,13.2,19.9C128.95,111.15,120.95,114.75,115.75,114.75Zm0-35.7c-4.3,0-7.5,5-7.5,15.9,0,11.5,2.9,16,7.4,16,4.2,0,7.5-4.5,7.5-16C123.25,83.75,120.15,79.15,115.75,79Z"/><path class="cls-4" d="M115.75,117.35a13.58,13.58,0,0,1-9.9-4c-3.8-3.8-5.7-9.9-5.7-18.2,0-7.9,1.6-13.9,4.9-17.7a14.41,14.41,0,0,1,20.7-.8c3.8,3.8,5.7,10,5.7,18.4,0,7.8-1.8,13.7-5.4,17.6A13.68,13.68,0,0,1,115.75,117.35Zm0-35.7c-3,0-4.9,5.2-4.9,13.3,0,8.5,1.7,11.5,2.7,12.5a3.1,3.1,0,0,0,2.2.9c3.1,0,4.9-5,4.9-13.4s-1.8-11.4-2.8-12.4A3.58,3.58,0,0,0,115.75,81.65Zm7.9.5c1.4,3.1,2.1,7.3,2.1,12.8a35,35,0,0,1-1.8,12,25.11,25.11,0,0,0,2.4-11.7C126.35,89.55,125.45,85,123.65,82.15Zm-15.5-.4c-1.9,3-2.9,7.4-2.9,13.4a26.19,26.19,0,0,0,2,11.4,35.27,35.27,0,0,1-1.5-11.6C105.75,88.75,106.75,84.55,108.15,81.75Zm44.1,32.7c-5,0-16.9-2.8-16.9-19.6,0-16.3,9.6-19.4,15.7-19.4a16.57,16.57,0,0,1,7.5,1.8v7.2l-2.1.5-1.3-5.1a27.11,27.11,0,0,0-4-.4c-4.5,0-10,4.7-10,15.3,0,11.2,6.5,15.9,11.2,15.9a23.39,23.39,0,0,0,3.8-.9V95.35l-3.7-.7v-2.7h8.8v18.9Z"/><path class="cls-4" d="M152.25,116.95a19.74,19.74,0,0,1-13.6-5.5c-3.9-3.9-5.9-9.5-5.9-16.6,0-7.6,2-13.4,5.8-17.1a17.28,17.28,0,0,1,12.4-4.8h.1a18.92,18.92,0,0,1,8.7,2.1l1.3.7v10.6l-6.5,1.5-1.5-5.9a15.56,15.56,0,0,0-2-.1c-2.9,0-7.5,3.5-7.5,12.8,0,6,2,9.4,3.7,11a7.09,7.09,0,0,0,4.9,2.3,2.77,2.77,0,0,0,1.3-.3V97.45l-3.7-.7v-7.3h13.9v23.2l-10.8,4.3h-.6ZM143,80.55a6.47,6.47,0,0,0-.9.8c-2.8,2.8-4.3,7.4-4.3,13.5,0,5.7,1.5,10.1,4.4,13l.2.2c-2.1-2.6-4.1-6.8-4.1-13.4a21.37,21.37,0,0,1,3.9-13.2,6.47,6.47,0,0,1,.8-.9Zm-62.6,84.6a20.45,20.45,0,0,1-7.3-1.3c-8.8-3.5-12.2-11.9-12.2-21.3,0-12.5,6.1-22.5,18.2-22.5a18.52,18.52,0,0,1,8.6,2.1v8.3l-2.5.6-1.5-6a26.07,26.07,0,0,0-4.8-.5,8.67,8.67,0,0,0-4.6,1.5c-5.2,3.3-6.9,10.4-6.9,16.3,0,6.7,2.1,13.9,8,17.1a9.12,9.12,0,0,0,4.8,1.3,28.67,28.67,0,0,0,7.1-1.3l1.1,3.2C87.95,162.85,80.45,165.15,80.45,165.15Z"/><path class="cls-4" d="M80.35,167.75a21,21,0,0,1-8.2-1.6,20.49,20.49,0,0,1-10.7-9.6,30,30,0,0,1-3.1-14.1c0-7,1.8-13,5.1-17.4a18.66,18.66,0,0,1,15.7-7.6,22.15,22.15,0,0,1,9.8,2.4l1.3.7v11.8l-6.9,1.5-1.6-6.7a24.52,24.52,0,0,0-2.7-.2,5.68,5.68,0,0,0-3.3,1.1c-5.3,3.3-5.7,11.7-5.7,14.2,0,3.4.6,11.5,6.7,14.9a7.42,7.42,0,0,0,3.5,1,24.42,24.42,0,0,0,6-1.1l2.7-.7,2.7,8-2.7.7-4.5,1.3-2.4.8A3.49,3.49,0,0,1,80.35,167.75Zm-7.1-44.1c-7,2.9-9.7,11.1-9.7,18.8,0,6.7,1.8,15.3,10.2,18.7-5.6-3.4-8.7-10.3-8.7-19,0-4,.8-13.8,8-18.5Zm42.7,41.5v-19.2h-14v19.2h-8.3v-2.7l3.1-.7v-32.8l-3.1-.7v-2.7h8.3v16.8h14v-16.8h8.3v2.7l-3.1.7v32.8l3.1.7v2.7Z"/><path class="cls-4" d="M91,167.75v-7.3l3.1-.7V131l-3.1-.7V123h13.4v16.8h8.9V123h13.4v7.3l-3.1.7v28.7l3.1.7v7.3h-13.4v-19.2h-8.9v19.2Zm8.3-39.6v0Zm19.1,16.8v0Zm23.4,20.5c-5.2,0-13.3-3.1-13.3-19.9,0-16.4,7.1-20.2,13.3-20.2,5.9,0,13.4,3.6,13.4,20.2C155.15,161.75,147,165.45,141.85,165.45Zm0-36.3c-4.4,0-7.6,5.1-7.6,16.1,0,11.7,3,16.2,7.6,16.2,4.3,0,7.6-4.6,7.6-16.2C149.35,133.95,146.35,129.15,141.85,129.15Z"/><path class="cls-4" d="M141.75,167.95a14,14,0,0,1-10.1-4c-3.8-3.8-5.7-10-5.7-18.4,0-8,1.7-14.1,4.9-17.9a13.81,13.81,0,0,1,10.9-4.9,14.27,14.27,0,0,1,10.2,4c3.8,3.8,5.8,10.1,5.8,18.7,0,7.9-1.8,13.9-5.4,17.8a13.67,13.67,0,0,1-10.6,4.7Zm0-36.2c-3.1,0-5,5.4-5,13.6,0,8.7,1.7,11.7,2.8,12.8a3.1,3.1,0,0,0,2.2.9c3.1,0,5-5.1,5-13.7s-1.7-11.6-2.8-12.6A2.57,2.57,0,0,0,141.75,131.75Zm7.7,0c1.6,3.1,2.5,7.7,2.4,13.6a32.25,32.25,0,0,1-2,12.7c1.8-3,2.7-7.3,2.7-12.6.1-6.1-.9-10.8-3.1-13.7Zm-15.1-.3q-3.3,4.5-3.3,14.1c0,5.2.8,9.4,2.4,12.3a33.28,33.28,0,0,1-1.8-12.5c.1-6.9,1.2-11.2,2.7-13.9Zm64.6-2.6-7.4,36.2h-5.4l-7.1-25.4-6.5,25.4h-4.6l-7.2-36.2-3-.6v-2.7h7.8l5.5,30.3,6-22.5-1.2-4.4-3.3-.7v-2.7h7.9l8.5,31.8,6.3-31.9h6.9v2.7Z"/><path class="cls-4" d="M165.95,167.65l-7.3-36.6-3.4-.7V123h12.5l3.9,21.2,2.9-10.8-.6-2.2-3.8-.8v-7.3h12.4l6.2,23,4.5-23.2,11.5.1v7.3l-3.6.8-7.5,36.6h-9.4l-5-18-4.6,18.1-8.7-.2Zm2.9-11.3,1.2,6.2h.5l1.5-6.1-3.2-.1Zm18,1.7,1.3,4.5h1.3l.9-4.6Zm-23.6-29.9,2.9,14.9-2.7-14.9Zm15.7,1.6.2.8-.7-2.5h-.2l.5,1.9Z"/><path class="cls-5" d="M85.25,113.15a18.37,18.37,0,0,1-6.9,1.3s-4.2-1.3-4.6-1.4l-.3,1.4h-8.3v-3.1l3.6-.8v-38l-3.6-.7v-3.1h14.6c12.8,0,17.2,10.7,17.2,22.7C96.85,100.65,93.95,109.55,85.25,113.15ZM84,74.35a7.62,7.62,0,0,0-4.4-1.6c-1.7,0-3.4.1-5.1,0v36.8a13.2,13.2,0,0,0,3.9.6,8.27,8.27,0,0,0,4.8-1.5c5.4-3.5,6.9-11.2,6.9-17.4C90.15,85.55,88.95,77.75,84,74.35Z"/><path class="cls-5" d="M63.65,116v-5.8l3.6-.8V73.85l-3.6-.8v-5.8h16.1A16.56,16.56,0,0,1,92,71.95c4.1,4.1,6.3,10.9,6.3,19.5a31.8,31.8,0,0,1-2.7,13.6,18.23,18.23,0,0,1-9.8,9.5,23.83,23.83,0,0,1-7.5,1.5h-.2l-.2-.1-3.1-.9-.2,1h-11Zm2.9-3.4v.5h5.7l.4-1.7,1.4.3c.3.1,2.6.8,4.5,1.3a19,19,0,0,0,6.2-1.2c8.8-3.7,10.6-13.1,10.6-20.3,0-5.5-.9-12.9-5.4-17.4a13.69,13.69,0,0,0-10.2-3.8H66.55v.5l3.6.8V112Zm11.9-1a15.47,15.47,0,0,1-4.3-.7l-1.1-.3V71.25h6.5a9.14,9.14,0,0,1,5.3,1.8c5.8,4.1,6.7,13.1,6.7,18.1s-1,14.4-7.6,18.7A8.86,8.86,0,0,1,78.45,111.65Zm-2.4-3.2a9.86,9.86,0,0,0,2.4.3,7.21,7.21,0,0,0,4-1.2c5.6-3.6,6.2-12.5,6.2-16.2s-.5-12.2-5.5-15.7a5.5,5.5,0,0,0-3.5-1.2h-3.7l.1,34Zm39.7,6.3c-5.1,0-13.1-3-13-19.6,0-16.1,7-19.9,13.1-19.9,5.8,0,13.2,3.5,13.2,19.9C128.95,111.15,120.95,114.75,115.75,114.75Zm0-35.7c-4.3,0-7.5,5-7.5,15.9,0,11.5,2.9,16,7.4,16,4.2,0,7.5-4.5,7.5-16C123.25,83.75,120.15,79.15,115.75,79Z"/><path class="cls-5" d="M115.75,116.25a12.84,12.84,0,0,1-9.2-3.7c-3.6-3.5-5.4-9.4-5.4-17.4,0-18.6,9.1-21.4,14.6-21.4a12.91,12.91,0,0,1,9.3,3.7q5.4,5.4,5.4,17.7c0,7.5-1.7,13.2-5.1,16.8A13.2,13.2,0,0,1,115.75,116.25Zm.1-39.5c-7.6,0-11.6,6.4-11.6,18.4q0,10.8,4.5,15.3a9.42,9.42,0,0,0,7.1,2.8c2.7,0,11.7-1.3,11.7-18.2,0-7.3-1.5-12.6-4.5-15.6a10.28,10.28,0,0,0-7.2-2.7Zm0,35.6a7,7,0,0,1-5-2c-2.7-2.7-3.9-7.7-3.9-15.4,0-15.6,6.2-17.4,8.9-17.4a7,7,0,0,1,4.9,2c2.7,2.7,4,7.8,4,15.3C124.75,110,119.15,112.35,115.85,112.35Zm0-31.8c-1.6,0-3,1-4,3.1-1.3,2.5-2,6.4-2,11.3,0,8.5,1.6,11.9,3,13.3a4,4,0,0,0,2.9,1.2c3.8,0,6-5.4,6-14.5,0-8.3-1.7-11.7-3.1-13.2A3.78,3.78,0,0,0,115.85,80.55Zm36.4,33.9c-5,0-16.9-2.8-16.9-19.6,0-16.3,9.6-19.4,15.7-19.4a16.57,16.57,0,0,1,7.5,1.8v7.2l-2.1.5-1.3-5.1a27.11,27.11,0,0,0-4-.4c-4.5,0-10,4.7-10,15.3,0,11.2,6.5,15.9,11.2,15.9a23.39,23.39,0,0,0,3.8-.9V95.35l-3.7-.7v-2.7h8.8v18.9Z"/><path class="cls-5" d="M152.25,115.85a18.42,18.42,0,0,1-12.8-5.2c-3.7-3.7-5.6-9-5.6-15.9,0-7.3,1.8-12.8,5.5-16.4a16.55,16.55,0,0,1,11.7-4.5,18.37,18.37,0,0,1,8.2,2l.7.5v9.2l-4.7,1.1-1.4-5.6-2.9-.3a7.11,7.11,0,0,0-5.5,3.1c-1.3,1.8-3,5.1-3,10.7,0,6.4,2.2,9.9,4,11.8a8.32,8.32,0,0,0,5.7,2.7,20.48,20.48,0,0,0,2.4-.5v-12l-3.7-.7v-5.4h11.7v21.4l-10,4h-.3Zm-1.4-38.9a13.69,13.69,0,0,0-9.6,3.6c-3,3-4.6,7.8-4.6,14.3,0,6,1.6,10.6,4.7,13.8a15.73,15.73,0,0,0,10.5,4.3l7.6-3V93.45H154l3.3.6v16.7l-1,.3a20.69,20.69,0,0,1-4.3,1,11.72,11.72,0,0,1-7.8-3.5c-2.2-2.2-4.9-6.5-4.9-13.9,0-6.5,2-10.4,3.7-12.5a10.23,10.23,0,0,1,7.9-4.3,31.25,31.25,0,0,1,4.3.4l.9.2.8,3v-3.2a15.89,15.89,0,0,0-6.1-1.3Zm-70.4,88.2a20.45,20.45,0,0,1-7.3-1.3c-8.8-3.5-12.2-11.9-12.2-21.3,0-12.5,6.1-22.5,18.2-22.5a18.52,18.52,0,0,1,8.6,2.1v8.3l-2.5.6-1.5-6a26.07,26.07,0,0,0-4.8-.5,8.67,8.67,0,0,0-4.6,1.5c-5.2,3.3-6.9,10.4-6.9,16.3,0,6.7,2.1,13.9,8,17.1a9.12,9.12,0,0,0,4.8,1.3,28.67,28.67,0,0,0,7.1-1.3l1.1,3.2C87.95,162.85,80.45,165.15,80.45,165.15Z"/><path class="cls-5" d="M80.35,166.65a20.81,20.81,0,0,1-7.8-1.5,19.33,19.33,0,0,1-10.2-9.1,27.83,27.83,0,0,1-2.9-13.6c0-6.7,1.7-12.5,4.9-16.8a17.7,17.7,0,0,1,14.8-7.2,20.4,20.4,0,0,1,9.4,2.3l.8.4v10.3l-5,1.2-1.6-6.4a21.86,21.86,0,0,0-3.6-.3,7.76,7.76,0,0,0-3.9,1.2c-5.6,3.5-6.2,11.7-6.2,15.1s.7,12.2,7.3,15.8a8,8,0,0,0,4,1.1,27.77,27.77,0,0,0,6.3-1.1l1.8-.4,2,6-1.5.4-4.5,1.4a31.73,31.73,0,0,1-4.1,1.2Zm-1.2-45.2c-12.3,0-16.7,10.8-16.7,21,0,7.1,1.9,16.3,11.2,20a18.37,18.37,0,0,0,6.5,1.3l3.3-1,3.1-1-.1-.5a25.09,25.09,0,0,1-6.1,1,10.84,10.84,0,0,1-5.5-1.5c-5.6-3.1-8.8-9.8-8.8-18.4,0-3.8.7-13.2,7.5-17.6A9.67,9.67,0,0,1,79,123a29.37,29.37,0,0,1,5.1.5l.9.2,1.2,5V123a16.8,16.8,0,0,0-7.1-1.6Zm36.8,43.7v-19.2h-14v19.2h-8.3v-2.7l3.1-.7v-32.8l-3.1-.7v-2.7h8.3v16.8h14v-16.8h8.3v2.7l-3.1.7v32.8l3.1.7v2.7Z"/><path class="cls-5" d="M92.15,166.65v-5.4l3.1-.7v-30.4l-3.1-.7v-5.3h11.2v16.7h11.1v-16.7h11.2v5.4l-3.1.7v30.4l3.1.7v5.4h-11.2v-19.2h-11.1v19.2l-11.2-.1Zm2.9-3h5.4v-19.2h17v19.2h5.4l-3.1-.7v-35.2l3.1-.7h-5.4v16.8h-17V127H95l3.1.7v35.2Zm46.8,1.8c-5.2,0-13.3-3.1-13.3-19.9,0-16.4,7.1-20.2,13.3-20.2,5.9,0,13.4,3.6,13.4,20.2C155.15,161.75,147,165.45,141.85,165.45Zm0-36.3c-4.4,0-7.6,5.1-7.6,16.1,0,11.7,3,16.2,7.6,16.2,4.3,0,7.6-4.6,7.6-16.2C149.35,133.95,146.35,129.15,141.85,129.15Z"/><path class="cls-5" d="M141.75,166.95a12.91,12.91,0,0,1-9.3-3.7c-3.6-3.6-5.4-9.6-5.4-17.7,0-18.9,9.3-21.7,14.7-21.7a13.14,13.14,0,0,1,9.4,3.7c3.6,3.6,5.4,9.7,5.4,17.9,0,7.6-1.7,13.4-5.1,17.1a13,13,0,0,1-9.7,4.4Zm0-40.2c-7.7,0-11.8,6.5-11.8,18.7,0,7.3,1.5,12.6,4.5,15.6a10.13,10.13,0,0,0,7.2,2.9c2.8,0,11.9-1.3,11.9-18.5,0-7.5-1.5-12.8-4.6-15.8a9.43,9.43,0,0,0-7.2-2.9Zm0,36.3a7.11,7.11,0,0,1-5.1-2.1c-2.7-2.7-4-7.8-4-15.6,0-15.9,6.3-17.6,9.1-17.6a6.72,6.72,0,0,1,5,2.1c2.7,2.7,4,7.9,4,15.5,0,5.8-.8,10.2-2.3,13.2-2,3.7-4.8,4.5-6.7,4.5Zm0-32.4c-1.7,0-3.1,1.1-4.1,3.1-1.3,2.6-2,6.5-2,11.5,0,8.6,1.7,12.1,3.1,13.5a4.23,4.23,0,0,0,3,1.2c3.9,0,6.1-5.4,6.1-14.7,0-8.4-1.7-11.9-3.2-13.4a4.77,4.77,0,0,0-2.9-1.2Zm57.2-1.8-7.4,36.2h-5.4l-7.1-25.4-6.5,25.4h-4.6l-7.2-36.2-3-.6v-2.7h7.8l5.5,30.3,6-22.5-1.2-4.4-3.3-.7v-2.7h7.9l8.5,31.8,6.3-31.9h6.9v2.7Z"/><path class="cls-5" d="M166.75,166.55l-7.2-36.5-3.2-.7v-5.4h10.5l4.5,25,4.2-15.8-.8-3-3.6-.7V124h10.5l7.2,26.8,5.3-26.8,9.6.1v5.4l-3.4.7-7.5,36.4h-7.7l-5.9-21.2-5.4,21.2h-7.1Zm-7.5-39.5,2.7.6,7.1,36h2.2l7.6-29.6,8.3,29.7h3l7.4-36,3-.6h-4.2l-6,30.8-2.9.1-8.2-30.8h-5.3l3,.6,1.6,5.7-6.1,22.9-2.9-.1-5.4-29.1-4.9-.2Z"/><path class="cls-4" d="M85.25,113.15a18.37,18.37,0,0,1-6.9,1.3s-4.2-1.3-4.6-1.4l-.3,1.4h-8.3v-3.1l3.6-.8v-38l-3.6-.7v-3.1h14.6c12.8,0,17.2,10.7,17.2,22.7C96.85,100.65,93.95,109.55,85.25,113.15ZM84,74.35a7.62,7.62,0,0,0-4.4-1.6c-1.7,0-3.4.1-5.1,0v36.8a13.2,13.2,0,0,0,3.9.6,8.27,8.27,0,0,0,4.8-1.5c5.4-3.5,6.9-11.2,6.9-17.4C90.15,85.55,88.95,77.75,84,74.35Z"/><path class="cls-4" d="M64.65,114.95v-3.8l3.6-.8V72.95l-3.6-.8v-3.8h15a15.65,15.65,0,0,1,11.6,4.4c4.9,4.9,6,12.9,6,18.7,0,7.8-2.1,18-11.8,22.1a19.39,19.39,0,0,1-7.1,1.3h-.1l-4.2-1.3-.3,1.3Zm.8-3.2v2.4H73l.3-1.5.4.1c.3.1,3.9,1.2,4.6,1.3a19,19,0,0,0,6.7-1.3c9.4-3.9,11.3-13.8,11.3-21.3,0-5.7-1-13.4-5.7-18.2a14.83,14.83,0,0,0-11-4.1H65.55v2.4l3.6.8v38.6Zm13-1.1a13.36,13.36,0,0,1-4-.6l-.3-.1V72.45h5.4a7.55,7.55,0,0,1,4.6,1.6,14.42,14.42,0,0,1,5.1,7.7,33.23,33.23,0,0,1,1.2,9.4A30,30,0,0,1,89,101a14.49,14.49,0,0,1-5.6,7.9A8.16,8.16,0,0,1,78.45,110.65Zm-3.5-1.4a13.45,13.45,0,0,0,3.5.5,8.56,8.56,0,0,0,4.6-1.4c5.8-3.8,6.7-12.3,6.7-17.1,0-3.7-.6-12.8-5.9-16.6a6.88,6.88,0,0,0-4.1-1.5H75Zm40.8,5.5c-5.1,0-13.1-3-13-19.6,0-16.1,7-19.9,13.1-19.9,5.8,0,13.2,3.5,13.2,19.9C128.95,111.15,120.95,114.75,115.75,114.75Zm0-35.7c-4.3,0-7.5,5-7.5,15.9,0,11.5,2.9,16,7.4,16,4.2,0,7.5-4.5,7.5-16C123.25,83.75,120.15,79.15,115.75,79Z"/><path class="cls-4" d="M115.75,115.25a11.55,11.55,0,0,1-8.4-3.4c-3.3-3.3-5-8.9-5-16.7,0-7.4,1.5-12.9,4.4-16.3a12.34,12.34,0,0,1,17.6-.6c3.4,3.3,5,8.9,5,16.9,0,7.2-1.6,12.6-4.8,16.1A12.08,12.08,0,0,1,115.75,115.25Zm.1-39.6a10.63,10.63,0,0,0-8.5,3.8c-2.8,3.3-4.2,8.5-4.2,15.7,0,7.5,1.6,12.9,4.8,16.1a10.47,10.47,0,0,0,7.8,3.1,10.87,10.87,0,0,0,8.2-3.7c3-3.3,4.6-8.6,4.6-15.6,0-7.6-1.6-13.1-4.8-16.3A11.1,11.1,0,0,0,115.85,75.65Zm0,35.7a6.31,6.31,0,0,1-4.3-1.7c-2.4-2.4-3.7-7.4-3.7-14.7,0-5.3.7-9.4,2.2-12.2s3.3-4.1,5.7-4.1a5.6,5.6,0,0,1,4.2,1.8c2.4,2.4,3.7,7.3,3.7,14.5,0,14.3-5,16.4-7.8,16.4Zm0-31.8c-2,0-3.8,1.3-5,3.6-1.3,2.7-2.1,6.7-2.1,11.8q0,10.65,3.3,14.1a5.14,5.14,0,0,0,3.7,1.5c4.5,0,7.1-5.5,7.1-15.6,0-6.9-1.2-11.7-3.4-13.9A5.08,5.08,0,0,0,115.85,79.55Zm36.4,34.9c-5,0-16.9-2.8-16.9-19.6,0-16.3,9.6-19.4,15.7-19.4a16.57,16.57,0,0,1,7.5,1.8v7.2l-2.1.5-1.3-5.1a27.11,27.11,0,0,0-4-.4c-4.5,0-10,4.7-10,15.3,0,11.2,6.5,15.9,11.2,15.9a23.39,23.39,0,0,0,3.8-.9V95.35l-3.7-.7v-2.7h8.8v18.9Z"/><path class="cls-4" d="M152.25,114.85a17.29,17.29,0,0,1-12-4.9c-3.5-3.5-5.3-8.6-5.3-15.1q0-10.5,5.1-15.6a15,15,0,0,1,11-4.1,16.37,16.37,0,0,1,7.6,1.8l.2.1v7.7l-2.8.6-1.3-5.2c-1.2-.2-2.5-.3-3.7-.4a8.2,8.2,0,0,0-6.4,3.5c-1.5,1.9-3.3,5.4-3.3,11.4,0,6.8,2.4,10.6,4.3,12.5A9.3,9.3,0,0,0,152,110a14.74,14.74,0,0,0,3.5-.8V95.65l-3.7-.7v-3.4h9.5v19.6Zm-1.4-39a14.58,14.58,0,0,0-10.3,3.9c-3.3,3.2-4.9,8.3-4.9,15,0,6.3,1.7,11.2,5,14.5a16.83,16.83,0,0,0,11.4,4.6l8.4-3.4V92.35h-8v1.9l3.7.7v15l-.3.1a13.67,13.67,0,0,1-4,.9,9.79,9.79,0,0,1-7-3.2c-2.1-2.1-4.6-6.1-4.6-13.1,0-6.2,1.9-9.9,3.4-11.9a8.91,8.91,0,0,1,7-3.8,27.13,27.13,0,0,1,4.1.4h.3l1.3,5,1.4-.3v-6.6a15,15,0,0,0-6.9-1.6Zm-70.4,89.3a20.45,20.45,0,0,1-7.3-1.3c-8.8-3.5-12.2-11.9-12.2-21.3,0-12.5,6.1-22.5,18.2-22.5a18.52,18.52,0,0,1,8.6,2.1v8.3l-2.5.6-1.5-6a26.07,26.07,0,0,0-4.8-.5,8.67,8.67,0,0,0-4.6,1.5c-5.2,3.3-6.9,10.4-6.9,16.3,0,6.7,2.1,13.9,8,17.1a9.12,9.12,0,0,0,4.8,1.3,28.67,28.67,0,0,0,7.1-1.3l1.1,3.2C87.95,162.85,80.45,165.15,80.45,165.15Z"/><path class="cls-4" d="M80.35,165.55a21.11,21.11,0,0,1-7.4-1.4,18,18,0,0,1-9.6-8.6,28.39,28.39,0,0,1-2.8-13.1c0-6.5,1.6-12,4.6-16.2a16.65,16.65,0,0,1,13.9-6.7,20.35,20.35,0,0,1,8.8,2.1l.2.1v8.8l-3.2.7-1.5-6.1a22.82,22.82,0,0,0-4.5-.4,7.67,7.67,0,0,0-4.4,1.4c-6,3.8-6.7,12.5-6.7,16,0,3.7.7,12.9,7.8,16.8a9.4,9.4,0,0,0,4.6,1.3,25.52,25.52,0,0,0,6.6-1.2l.8-.2,1.3,4-.4.1-4.5,1.4c-3.5,1.1-3.5,1.1-3.6,1.1v.1Zm-1.2-45.2c-13.1,0-17.8,11.4-17.8,22.1,0,7.4,2.1,17.1,11.9,20.9a18.66,18.66,0,0,0,7.1,1.3l3.4-1.1,4.2-1.3-.8-2.5a26.24,26.24,0,0,1-6.8,1.2,10.94,10.94,0,0,1-5-1.3c-7.5-4.1-8.2-13.6-8.2-17.5,0-3.7.7-12.6,7.1-16.7a8.36,8.36,0,0,1,4.9-1.5,27.15,27.15,0,0,1,4.9.5h.3l1.4,5.8,1.8-.4v-7.6A22.34,22.34,0,0,0,79.15,120.35Zm36.8,44.8v-19.2h-14v19.2h-8.3v-2.7l3.1-.7v-32.8l-3.1-.7v-2.7h8.3v16.8h14v-16.8h8.3v2.7l-3.1.7v32.8l3.1.7v2.7Z"/><path class="cls-4" d="M93.15,165.55v-3.4l3.1-.7v-32.1l-3.1-.8v-3.4h9.1v16.8h13.2v-16.8h9.1v3.4l-3.1.7v32.2l3.1.7v3.4h-9.1v-19.2h-13.2v19.2Zm.8-2.7v1.9h7.5v-19.2h14.8v19.2h7.5v-2l-3.1-.7v-33.4l3.1-.7v-2h-7.5v16.8h-14.8V126h-7.5v2l3.2.6V162Zm47.9,2.6c-5.2,0-13.3-3.1-13.3-19.9,0-16.4,7.1-20.2,13.3-20.2,5.9,0,13.4,3.6,13.4,20.2C155.15,161.75,147,165.45,141.85,165.45Zm0-36.3c-4.4,0-7.6,5.1-7.6,16.1,0,11.7,3,16.2,7.6,16.2,4.3,0,7.6-4.6,7.6-16.2C149.35,133.95,146.35,129.15,141.85,129.15Z"/><path class="cls-4" d="M141.75,165.85a11.61,11.61,0,0,1-8.5-3.4c-3.4-3.4-5.1-9.1-5.1-16.9,0-7.5,1.5-13.1,4.4-16.5a11.73,11.73,0,0,1,9.3-4.1,12,12,0,0,1,8.6,3.4c3.4,3.4,5.1,9.2,5.1,17.2,0,7.3-1.6,12.8-4.8,16.4A12.47,12.47,0,0,1,141.75,165.85Zm0-40.2a10.83,10.83,0,0,0-8.6,3.8c-2.8,3.3-4.2,8.7-4.2,16.1,0,7.6,1.6,13.1,4.9,16.3a10.86,10.86,0,0,0,8,3.2,11.39,11.39,0,0,0,8.4-3.8c3.1-3.4,4.6-8.7,4.6-15.8,0-7.8-1.6-13.4-4.9-16.6A11.74,11.74,0,0,0,141.75,125.65Zm0,36.3a5.82,5.82,0,0,1-4.3-1.8c-2.4-2.4-3.6-7.4-3.6-14.9,0-5.4.7-9.5,2.2-12.4s3.4-4.1,5.8-4.1a5.6,5.6,0,0,1,4.2,1.8c2.5,2.5,3.7,7.4,3.7,14.7,0,14.5-5,16.7-8,16.7Zm0-32.3c-2.1,0-3.8,1.3-5.1,3.7-1.3,2.7-2.1,6.8-2.1,12,0,7.2,1.1,12,3.4,14.3a5.14,5.14,0,0,0,3.7,1.5c4.6,0,7.2-5.6,7.2-15.8,0-7-1.2-11.9-3.5-14.2a4.75,4.75,0,0,0-3.6-1.5Zm57.2-.8-7.4,36.2h-5.4l-7.1-25.4-6.5,25.4h-4.6l-7.2-36.2-3-.6v-2.7h7.8l5.5,30.3,6-22.5-1.2-4.4-3.3-.7v-2.7h7.9l8.5,31.8,6.3-31.9h6.9v2.7Z"/><path class="cls-4" d="M167.65,165.45v-.3l-7.1-36-3.1-.6v-3.4h8.5v.3l5.3,28.6,5.5-20.7-1.1-4-3.4-.7v-3.4h8.6l8.2,30.4,6-30.5h7.6v3.4l-3.3.7-7.4,36.3h-6l-6.7-24.2-6.2,24.3-5.4-.2Zm-9.3-37.6,2.9.6,7.2,36.1h4l6.8-26.6,7.4,26.6h4.7l7.4-36.1,3.1-.7v-1.9h-6.1l-6.2,31.6h-.8l-8.6-31.6H173v2l3.2.7,1.3,4.7v.1l-6,22.5h-.8l-5.5-30h-7.1l.2,2Z"/><path class="cls-3" d="M209.35,127.25a2.35,2.35,0,1,1,2.3-2.4v.1a2.31,2.31,0,0,1-2.1,2.4C209.45,127.25,209.45,127.25,209.35,127.25Zm0-4.2a1.88,1.88,0,0,0-1.7,2,1.8,1.8,0,1,0,3.6-.2A1.76,1.76,0,0,0,209.35,123Zm-.4,3.1h-.5v-2.6h.9c.6,0,1,.2,1,.8a.75.75,0,0,1-.5.7h-.1l.6,1.1h-.6l-.6-1.1h-.3v1.1h.1Zm.5-1.5c.2,0,.4,0,.4-.3s-.3-.3-.5-.3h-.4v.5Z"/></svg>