<svg id="Capa_1" data-name="Capa 1" xmlns="http://www.w3.org/2000/svg" viewBox="0 0 270 206"><defs><style>.cls-1{fill:#fff;}.cls-2{fill:#ee3124;}.cls-3{fill:#ffc222;}</style></defs><title>marcas</title><polygon class="cls-1" points="55.85 55.23 144.29 55.23 144.29 71.02 55.85 71.02 55.85 55.23"/><path d="M146.26,70.22a1.06,1.06,0,1,1,1-1.06,1,1,0,0,1-1,1.06Zm0,.26a1.32,1.32,0,1,0-1.32-1.32,1.32,1.32,0,0,0,1.32,1.32Zm-.51-.58H146v-.64h.17l.39.64h.28l-.4-.66a.37.37,0,0,0,.39-.4c0-.31-.19-.44-.55-.44h-.56v1.5Zm.28-1.28h.25c.14,0,.3,0,.3.2s-.14.22-.31.22H146v-.43Z"/><polygon class="cls-2" points="56.45 55.83 71.5 55.83 71.5 70.48 56.45 70.48 56.45 55.83"/><polygon class="cls-1" points="56.98 56.35 70.96 56.35 70.96 69.95 56.98 69.95 56.98 56.35"/><polygon class="cls-2" points="66.12 65.24 70.42 65.24 70.42 69.43 66.12 69.43 66.12 65.24"/><polygon class="cls-2" points="66.12 56.87 70.42 56.87 70.42 61.06 66.12 61.06 66.12 56.87"/><polygon class="cls-2" points="57.57 65.24 61.87 65.24 61.87 69.43 57.57 69.43 57.57 65.24"/><polygon class="cls-2" points="57.57 56.87 61.87 56.87 61.87 61.06 57.57 61.06 57.57 56.87"/><polygon class="cls-2" points="61.84 61.06 66.14 61.06 66.14 65.24 61.84 65.24 61.84 61.06"/><polygon points="72.03 55.83 143.71 55.83 143.71 70.44 72.03 70.44 72.03 55.83"/><path class="cls-1" d="M80.51,58.68a6.3,6.3,0,0,0-2-.27h-3.6v.53h.49a.89.89,0,0,1,.71.26c.06.06.15.29.15,1v6.15a2.13,2.13,0,0,1-.12,1,.81.81,0,0,1-.74.33h-.49v.53h4.33v-.53h-.5A.85.85,0,0,1,78,67.4c-.06-.07-.16-.29-.16-1v-2.6c.24,0,.47.09.69.12a5.27,5.27,0,0,0,.75.05,3.14,3.14,0,0,0,2.25-.77,2.67,2.67,0,0,0,.8-2,2.42,2.42,0,0,0-.54-1.57,2.88,2.88,0,0,0-1.29-.93Zm-2.67.67a3.71,3.71,0,0,1,.77-.11,1.91,1.91,0,0,1,1,.24,1.62,1.62,0,0,1,.65.73,2.61,2.61,0,0,1,.23,1.09A2,2,0,0,1,80,62.68a1.49,1.49,0,0,1-1.14.52l-.47,0-.53-.08V59.34Z"/><path class="cls-1" d="M91.71,58.35h-.14v.53h.49a.88.88,0,0,1,.7.26c.06.07.16.3.16,1V64a6,6,0,0,1-.26,2.09,2.07,2.07,0,0,1-1,1,3.28,3.28,0,0,1-1.61.39,2.54,2.54,0,0,1-1.17-.24,1.89,1.89,0,0,1-.72-.61,2.49,2.49,0,0,1-.35-1.05,8.94,8.94,0,0,1-.1-1.25V60.16a1.88,1.88,0,0,1,.15-1,.77.77,0,0,1,.71-.31h.49v-.53H84.79v.53h.49a.85.85,0,0,1,.66.22,1.74,1.74,0,0,1,.2,1.06v3.71a8,8,0,0,0,.24,2.39,3.08,3.08,0,0,0,1.19,1.52,4.42,4.42,0,0,0,2.44.56,4.11,4.11,0,0,0,2.34-.59,2.92,2.92,0,0,0,1.17-1.42,6.9,6.9,0,0,0,.29-2.26V60.23a2,2,0,0,1,.12-.94.81.81,0,0,1,.74-.41h.49v-.53H91.71Z"/><path class="cls-1" d="M106.55,67.28a4.75,4.75,0,0,1-1.12-1.22l-1.85-2.56a3.22,3.22,0,0,0,1.65-.9,2.36,2.36,0,0,0,.61-1.61,2.27,2.27,0,0,0-.53-1.5,2.74,2.74,0,0,0-1.28-.85,8.44,8.44,0,0,0-2.27-.23h-3.6v.53h.49a.89.89,0,0,1,.7.26c.06.07.16.29.16,1v6.15a2.07,2.07,0,0,1-.12,1,.81.81,0,0,1-.74.33h-.49v.53h4.33v-.53H102a.85.85,0,0,1-.69-.26c-.06-.07-.16-.29-.16-1V63.74h.77l3.19,4.39,0,.06h2.75v-.52h-.12a2.77,2.77,0,0,1-1.21-.37Zm-5.42-8a5.32,5.32,0,0,1,1-.12,1.85,1.85,0,0,1,1.36.52,1.83,1.83,0,0,1,.51,1.35,1.74,1.74,0,0,1-.64,1.39,2.92,2.92,0,0,1-1.94.56h-.25V59.32Z"/><path class="cls-1" d="M110.79,58.4h-.14v.53h.47a1.2,1.2,0,0,1,.58.15.51.51,0,0,1,.22.23,2.94,2.94,0,0,1,.08.9v6.15a1.94,1.94,0,0,1-.14,1,.86.86,0,0,1-.74.29h-.47v.53H115v-.53h-.47a1.13,1.13,0,0,1-.57-.15.47.47,0,0,1-.23-.23,3,3,0,0,1-.08-.9V60.22c0-.7.09-.93.14-1a.87.87,0,0,1,.73-.29H115V58.4h-4.19Z"/><path class="cls-1" d="M129.18,58.8v-.4H125.6v.53h.46a.92.92,0,0,1,.72.25c.06.07.17.29.17,1v5.1l-5.62-6.84,0,0h-2.78v.53h.14a2.06,2.06,0,0,1,.58.06,2.16,2.16,0,0,1,.59.27,4.17,4.17,0,0,1,.57.59v6.54a1.94,1.94,0,0,1-.13,1,.84.84,0,0,1-.75.31H119v.53h3.58v-.53h-.47a.92.92,0,0,1-.72-.25c-.05-.06-.16-.29-.16-1V60.91l6.08,7.38,0,0h.45V60.19a2,2,0,0,1,.13-1,.85.85,0,0,1,.75-.31h.47V58.8Z"/><path class="cls-1" d="M140.93,67.65a1.37,1.37,0,0,1-.83-.29,3.57,3.57,0,0,1-.69-1.19l-3.24-7.9,0-.09h-.46l0,.09-3.4,7.81a4.18,4.18,0,0,1-.76,1.33,1.41,1.41,0,0,1-.7.24l-.11,0v.51h3.26v-.52h-.13a1.61,1.61,0,0,1-.82-.18.35.35,0,0,1-.16-.28,2.17,2.17,0,0,1,.23-.77l.61-1.4h3.51l.53,1.29a2.85,2.85,0,0,1,.27.91.35.35,0,0,1-.15.28,1.26,1.26,0,0,1-.69.16H137v.52h4v-.52Zm-5.46-6.81,1.37,3.35H134l1.46-3.35Z"/><path class="cls-2" d="M233,107c0-.1,0-.2,0-.3a5.28,5.28,0,0,0-2.34-4.43,4.74,4.74,0,0,0-1.79-.63A129.33,129.33,0,0,1,230.59,86a32.28,32.28,0,0,0,.51-4c0-.1,0-.19,0-.29a5.73,5.73,0,0,0-1.88-4.07L229,77.4l-.22-.19a5,5,0,0,0-4.18-1c-2.05.44-4.87,2.48-6.84,4.42-2.08-1.35-3.94-2.12-6.69-1.52A24.39,24.39,0,0,0,196.76,89c-.64.95-1.92,2.27-1.66,2.62-.39-2.49-.92-4.28-2.8-5.74A10.91,10.91,0,0,0,183.46,84h0a14.37,14.37,0,0,0-7.86,4.74,5.41,5.41,0,0,0-1.07-1.14,4.85,4.85,0,0,0-4.09-.91c-1.26.26-5.07,2.33-7.65,4-4.93,3.22-7.16,5.92-7.16,8.71,0,.11,0,.21,0,.32a6.12,6.12,0,0,0,.32,1.65,5.54,5.54,0,0,0-.57,2.4q0,.16,0,.32a5,5,0,0,0,1.89,3.85,4.63,4.63,0,0,0,1.2.66c-.22,2-.48,4.11-.67,5.64-.57,4.64-.81,6.67-.81,7.78,0,.14,0,.26,0,.38s0,.31,0,.46a35.12,35.12,0,0,0-.3,3.54c0,.14,0,.26,0,.37a4.65,4.65,0,0,0,1.69,3.46,5.16,5.16,0,0,0,4.4.67l7.24-1.49c4-.82,4.92-3.8,5.3-6.31a6.36,6.36,0,0,0,2.21,3.75,5,5,0,0,0,4.11.93,38.1,38.1,0,0,0,9.16-4.17,28.23,28.23,0,0,0,4.43-3.21,11.14,11.14,0,0,0,1.32,1.31,9.92,9.92,0,0,0,8.79,2,13.35,13.35,0,0,0,5.61-2.83,15.85,15.85,0,0,0,1.82-1.42,5.19,5.19,0,0,0,.6.6,4.74,4.74,0,0,0,4.14,1c1.68-.37,5.23-2.62,7.21-4,.9-.65,1.69-1.26,2.38-1.85C231.24,112,233,109.54,233,107Z"/><path class="cls-2" d="M158.29,116.12c.17-1.71.47-4.25.7-6.14.7-6,1.06-9.21,1.06-10.87,0-.18,0-.34,0-.48A8,8,0,0,0,158.3,94a13.64,13.64,0,0,0,3.16-8.64q0-.38,0-.77a8.9,8.9,0,0,0-3.22-6.48,9.17,9.17,0,0,0-7.94-1.55h0A13.44,13.44,0,0,0,140,89.62q0,.38,0,.77a8.94,8.94,0,0,0,2.95,6.23l-.4.27a5.61,5.61,0,0,0-1.41-1.66,5.18,5.18,0,0,0-2.85-1.07c.12-1,.21-1.88.25-2.59,0-.43,0-.81,0-1.17s0-.47,0-.69a5.57,5.57,0,0,0-2-4.15c-1.81-1.41-4-1.18-5.8-.82h0c-5.29,1.09-6.76,5.65-7.73,8.66-.9,2.79-1.3,3.73-2.73,4.25a17.4,17.4,0,0,0-2,.87,6.15,6.15,0,0,0-1.68-2.37A5.29,5.29,0,0,0,112,95h0c-2,.44-4,2-5.8,3.91a9.35,9.35,0,0,0-7-1c-4.85,1.09-9.37,4.45-12.82,9.5a24.91,24.91,0,0,0,.5-5.29q0-1.19-.08-2.51a7.86,7.86,0,0,0-3-5.76C79.44,90.33,70.86,89.79,65,91h0c-17.25,3.68-29,19.88-27.9,38.51.43,7.42,3.08,13.3,7.64,17,4.74,3.85,11.36,5.11,18.64,3.56,6.26-1.34,16.94-6.53,21.23-12.9A12,12,0,0,0,86,138.63a10.09,10.09,0,0,0,9.11,2.18,14.16,14.16,0,0,0,6.9-4.1c.1.09.19.19.29.28a5.21,5.21,0,0,0,4.64,1.16c1.72-.39,5.29-2.7,7.26-4.15.71-.53,1.36-1,1.95-1.54a7.27,7.27,0,0,0,2.44,3.92,5.64,5.64,0,0,0,4.7,1.06,55.43,55.43,0,0,0,9.89-3.94,33.85,33.85,0,0,0,4.92-3,6.66,6.66,0,0,0,2.19,3.43,5.87,5.87,0,0,0,5.09,1c1.64-.34,5.53-2.34,8.34-4.06,5.38-3.31,7.63-5.91,7.63-8.9,0-.12,0-.24,0-.36A6.65,6.65,0,0,0,158.29,116.12ZM63.17,133.59a1.33,1.33,0,0,1-1.21-.14c-.81-.52-1.89-2.24-2.34-5.33a4.32,4.32,0,0,0,1.11,1,4.75,4.75,0,0,0,4,.44l.43-.12C65.15,131.41,64.61,133.17,63.17,133.59Zm1.3-19.9a6.91,6.91,0,0,0-3.89,2.42c1.53-5.3,4.84-8.92,7.48-9.45,2.32-.46,2.57.09,3.59,2.45a13.84,13.84,0,0,0,1.54,2.83Zm71.64,2.63c-.16,0-.3.08-.45.12.07-.56.14-1.16.23-1.87v-.07s.48-3.15.81-5.9l.34-.07a5.42,5.42,0,0,0,2.28,2.45c-.11.92-.24,2-.34,2.82l0,.12-.31,2.54A4.87,4.87,0,0,0,136.1,116.32Z"/><path class="cls-1" d="M183.24,87.22h0c-3.73.82-6.74,3.82-9.16,9.13,0-.3,0-.62,0-.92s0-.83,0-1.23c-.11-2-.56-3.29-1.32-3.93a1.94,1.94,0,0,0-1.74-.38c-.94.21-11.91,6.16-11.7,9.81a1.86,1.86,0,0,0,1.74,2c.75.16,1.24.27,1.32,1.71.09,1.61-.54,7.05-1,11.42-.48,4.17-.78,6.78-.73,7.55a1.56,1.56,0,0,0,.48,1.18c.46.38,1.15.33,2,.14l6.79-1.49c2.24-.49,2.65-2,3-5,1.45-13.45,3.12-19.43,5.59-20a.86.86,0,0,1,.77.13,1.46,1.46,0,0,1,.39,1c.05.88-.39,4.54-.81,8.08-.53,4.39-1.07,8.94-1,10.4a4.51,4.51,0,0,0,1.21,3.29,2,2,0,0,0,1.77.39c2.63-.58,13.65-6.28,13.43-10.07-.09-1.56-1.35-1.69-2.27-1.79-1.12-.12-1.76-.24-1.82-1.38a49.17,49.17,0,0,1,.75-6.71,48.85,48.85,0,0,0,.78-7.26,6.59,6.59,0,0,0-2.26-4.84A7.27,7.27,0,0,0,183.24,87.22Z"/><path class="cls-1" d="M224.25,79.5h0c-2.05.45-4.8,3.38-6.37,5.11A6.52,6.52,0,0,0,211,82.4c-9.09,2-16.53,13.21-15.91,24,.21,3.74,1.52,6.78,3.67,8.58a7.55,7.55,0,0,0,6.7,1.48c3.58-.79,6.8-3.72,8.92-8,0,.3-.05.6-.06.9s0,.67,0,1a4.11,4.11,0,0,0,1.23,3,2.31,2.31,0,0,0,2.05.45c1.74-.38,11.32-6.29,11.16-9-.1-1.74-1.33-1.84-2.23-1.91s-1.69-.14-1.77-1.59c-.25-4.45,1-12.33,1.7-16.56a27.88,27.88,0,0,0,.45-3.26,2,2,0,0,0-.73-1.5A2.37,2.37,0,0,0,224.25,79.5ZM208.3,108.42a4.09,4.09,0,0,1-.89-2.79c-.26-4.55,1.79-16.75,5.19-17.5a.87.87,0,0,1,.79.18c.33.27.74,1,.84,2.67.25,4.46-1.85,16.89-5.19,17.62A.83.83,0,0,1,208.3,108.42Z"/><path class="cls-1" d="M65.62,92.52h0c-15.46,3.3-26,17.7-25,34.26.36,6.16,2.49,11,6.16,14,4,3.21,9.61,4.23,15.94,2.88,8.59-1.83,20.49-9.64,20.2-14.5l-.34-4a26.36,26.36,0,0,1,.93-8.06,11.86,11.86,0,0,0,.5-3.14,1.87,1.87,0,0,0-.62-1.41c-.62-.5-1.64-.55-3.44-.17L65,115.5a4.8,4.8,0,0,0-3.52,4.62,2.67,2.67,0,0,0,.85,2,2.61,2.61,0,0,0,2.27.35l2.71-.58a1.82,1.82,0,0,1,1.53.14,2,2,0,0,1,.52,1.49c.38,6.55-1.82,11.14-5.76,12a4.78,4.78,0,0,1-4.19-1c-2.23-1.81-3.68-5.71-4-10.68-.75-12.94,5.93-23.49,12.4-24.87,5.36-1.14,6.75,2.26,8,5.26.9,2.2,1.75,4.28,4.06,3.79,1.81-.38,3.86-2.55,3.39-10.66a3.77,3.77,0,0,0-1.55-2.73C78.72,92.21,71.51,91.27,65.62,92.52Z"/><path class="cls-1" d="M113.35,97.46c-2,.43-4.75,3.27-6.31,5a6.57,6.57,0,0,0-6.81-2.19c-9.05,1.93-16.45,13-15.83,23.63.22,3.74,1.55,6.77,3.74,8.55a7.62,7.62,0,0,0,6.61,1.44c3.53-.75,6.7-3.59,8.82-7.74,0,.59-.06,1.17,0,1.75a4.05,4.05,0,0,0,1.25,3,2.36,2.36,0,0,0,2,.44c1.6-.34,11.29-6,11.12-8.86-.1-1.73-1.34-1.84-2.25-1.92s-1.66-.14-1.74-1.55c-.26-4.39,1-12.15,1.67-16.32a27.57,27.57,0,0,0,.45-3.21,2,2,0,0,0-.76-1.51A2.41,2.41,0,0,0,113.35,97.46ZM97.56,125.9c-.29-.23-.78-.9-.89-2.75h0c-.25-4.36,1.81-16.49,5.11-17.19a.84.84,0,0,1,.74.17,3.83,3.83,0,0,1,.84,2.63c.26,4.39-1.81,16.61-5.1,17.31A.79.79,0,0,1,97.56,125.9Z"/><path class="cls-1" d="M131.7,86.81h0c-3.27.7-4.14,3.47-5,6.15s-1.55,5-4.29,6c-2.58,1-4.26,2.19-4.11,4.81a2.35,2.35,0,0,0,3.26,2.44l.58-.12L120.82,119c-.34,3.17-.52,4.88-.6,6a14,14,0,0,0,0,1.79,4.6,4.6,0,0,0,1.37,3.37,2.51,2.51,0,0,0,2.17.47c1.76-.37,15.63-5.62,15.36-10.12a3.25,3.25,0,0,0-1-2.41,1.74,1.74,0,0,0-1.52-.33,5.76,5.76,0,0,0-1.52.65,5.29,5.29,0,0,1-1.37.6,1,1,0,0,1-.82-.09,1.11,1.11,0,0,1-.3-.81,10.83,10.83,0,0,1,0-1.34c.06-1,.22-2.26.47-4.36l1-8.83,2.41-.51a4.31,4.31,0,0,0,3.51-4,4.86,4.86,0,0,0,0-.62,2.94,2.94,0,0,0-.94-2.19,2.32,2.32,0,0,0-2-.38l-2.24.48.32-2.94c.18-1.58.3-2.68.36-3.51a11,11,0,0,0,0-1.33,2,2,0,0,0-.67-1.51C134.27,86.55,133.29,86.48,131.7,86.81Z"/><path class="cls-1" d="M151.68,78.08h0a9.29,9.29,0,0,0-7.16,9.48,4.63,4.63,0,0,0,1.66,3.4c.86.7,2.44,1.42,5.06.86a9.3,9.3,0,0,0,7.16-9.48,4.63,4.63,0,0,0-1.66-3.4C155.87,78.24,154.29,77.52,151.68,78.08ZM154,93.45h0c-2,.43-13.18,5.39-12.93,9.67a2,2,0,0,0,1.77,1.91c.73.21,1.21.35,1.26,1.34,0,.34-.29,2.9-.59,5.37-.61,5.07-1.38,11.38-1.27,13.29a3.62,3.62,0,0,0,1,2.73,2.57,2.57,0,0,0,2.27.36c1.82-.39,12.86-6.24,12.7-9a2.62,2.62,0,0,0-2-2.71c-.67-.25-1-.39-1.08-1.25s.41-4.67.84-8.45c.53-4.55,1.07-9.26,1-10.47a3.3,3.3,0,0,0-1-2.43A2.29,2.29,0,0,0,154,93.45Z"/><g id="_Grupo_" data-name="&lt;Grupo&gt;"><path class="cls-3" d="M88.29,107.19a30.45,30.45,0,0,0-3.5,5.19l.28.53A36.19,36.19,0,0,1,88.29,107.19Zm0,0c.13-.18.27-.34.4-.5ZM66.93,123.93s.73-.4.73.81a14.67,14.67,0,0,1-2.15,8.06c1.63-1.31,3.09-4.93,2.74-8.44,0,0,0-1.48-1.14-1.06,0,0-6.31,2.43-6.68-2.18,0,0-.37-2.85,1-4.45,0,0-2.05,1.43-1.61,5.08C59.84,121.75,60.08,126.22,66.93,123.93ZM81.72,109c-10.18,4.16-4.37-17.3-19.14-5.14C77.32,93,70.73,115.34,81.72,109Zm68.22-15.7A6.15,6.15,0,0,1,143.72,90c-1.79-4.21,1.33-9,1.33-9a10.94,10.94,0,0,0-2.32,8.11C143.59,95.33,149.95,93.33,149.95,93.33Zm-48.07,14-.51.74c1.37,7.73-2.83,16.15-2.83,16.15C103.57,114.56,101.88,107.33,101.88,107.33ZM123.5,96.42c2.9-3.71,1.42-5,4-8.52C124.65,90.12,125.28,93.27,123.5,96.42Zm11.6,8.82a4.94,4.94,0,0,0,3.8-1.83,7.25,7.25,0,0,1-3.77,1.13Zm6,21c-.45-5.52,1.79-19.89,1.79-19.89a3,3,0,0,1-2.86-3.78l-.84.58c0,4,3,4,3,4a116.26,116.26,0,0,0-1.79,18.92c.34,10.9,16.71-3.27,16.71-3.27C141.13,135,141.07,126.25,141.07,126.25Zm-21.95,1c0-3.94,1.59-19.79,1.59-19.79-5.37.38-3.11-6.6-3.11-6.6-3.51,8,2.52,7.28,2.52,7.28-.53,4.47-1.72,19.11-1.72,19.11,0,13.19,19.42-2.58,19.42-2.58C118.27,138.52,119.13,127.3,119.13,127.3Zm-16.34,2.62-.69.79s1.65,7.88,14.66-4.29C116.76,126.41,104.58,137.3,102.79,129.91Zm-15.19,3.61a10.74,10.74,0,0,1-3.73-5.92v2.71a9.88,9.88,0,0,0,3,3.76,9.15,9.15,0,0,0,7.5,1.51,12.63,12.63,0,0,0,5.21-2.44A12.25,12.25,0,0,1,95.1,135,9.11,9.11,0,0,1,87.59,133.52ZM63.07,145.08c-6.78,1.44-12.85.35-17.08-3.09-3.93-3.19-6.22-8.37-6.6-15a36.23,36.23,0,0,1,8.47-25.79,36.18,36.18,0,0,0-8.91,26.29c.39,6.61,2.67,11.78,6.6,15,4.23,3.44,10.3,4.53,17.08,3.09s15.81-6.55,19.7-11.2C78.24,138.88,69.73,143.66,63.07,145.08Z"/></g><path class="cls-3" d="M164.36,92.69s-7.19,4.32-5.76,8.41a2.56,2.56,0,0,0,1.89,1.85s1-.23,1,1c0,0-1.82,18.51-1.74,19.51a2.09,2.09,0,0,0,2.12,1.62s3.41-.46,9.69-2a72.88,72.88,0,0,1-9.85,2.55s-3,.39-2.65-2.85l1.74-18.13a.9.9,0,0,0-.83-1.23,3.47,3.47,0,0,1-2.2-3.86S157.31,96.86,164.36,92.69Z"/><path class="cls-3" d="M178.79,88.12s-3.12,3.07-3.88,4.61l-.32-.11A17.91,17.91,0,0,1,178.79,88.12Z"/><path class="cls-3" d="M177,118.58c-.18-7.15,1.64-20,1.64-20l-.61.15c-1.82,14.19-1.76,19.62-1.76,19.62.77,10,15.16-2.26,15.16-2.26C177.23,127.09,177,118.58,177,118.58Z"/><g id="_Grupo_2" data-name="&lt;Grupo&gt;"><path class="cls-3" d="M199.2,89.93a30.6,30.6,0,0,0-3.5,5.19l.28.53A36.21,36.21,0,0,1,199.2,89.93Zm0,0c.13-.18.27-.34.4-.49Zm13.59.14-.51.74c1.37,7.73-2.83,16.15-2.83,16.15C214.49,97.29,212.79,90.07,212.79,90.07Zm-14.28,26.19a10.74,10.74,0,0,1-3.73-5.92V113a9.86,9.86,0,0,0,3,3.76,9.15,9.15,0,0,0,7.5,1.51,12.61,12.61,0,0,0,5.21-2.44,12.29,12.29,0,0,1-4.44,1.9A9.1,9.1,0,0,1,198.51,116.25Zm15.2-3.61-.69.79s1.65,7.88,14.66-4.29C227.68,109.14,215.49,120,213.7,112.65Z"/></g></svg>