<svg id="Capa_1" data-name="Capa 1" xmlns="http://www.w3.org/2000/svg" viewBox="0 0 270 206"><defs><style>.cls-1{fill:#c5c4c4;}.cls-2{fill:#1e96d2;}.cls-3{fill:#858584;}</style></defs><title>marcas</title><path class="cls-1" d="M138.19,40.67s-3.47,6.27-3.47,12.81,3.8,14.11,10.42,16.66,15.58,6.23,18.44,13.5C163.58,83.65,171.36,49.24,138.19,40.67Z"/><path class="cls-2" d="M190.5,131l1.76-7.75H167.13a13,13,0,0,1,1.53-4,14.28,14.28,0,0,1,3-3.28,13,13,0,0,1,3.81-2.34,12.42,12.42,0,0,1,4.24-.66h14.63l1.76-7.75h-15a27.39,27.39,0,0,0-5.78.56,26.74,26.74,0,0,0-5.6,1.94c-3.64,1.7-6.24,4.57-8.91,8.28a31.25,31.25,0,0,0-5.1,11.44,24.44,24.44,0,0,0-.06,11.69,11.83,11.83,0,0,0,5.77,7.75c5.9,3.28,17.46,2.09,25,2.09l1.72-7.56H172.48a6.7,6.7,0,0,1-3.6-.88,8.14,8.14,0,0,1-2.49-2.56,8,8,0,0,1-1.3-3.28,10.88,10.88,0,0,1,.28-3.72Z"/><path class="cls-2" d="M247.34,109.57a6.17,6.17,0,0,0-.62-.88,2.55,2.55,0,0,0-.58-.45,1.72,1.72,0,0,0,1.07-.5,1.45,1.45,0,0,0,.36-1,1.56,1.56,0,0,0-.23-.85,1.24,1.24,0,0,0-.63-.52,3.92,3.92,0,0,0-1.26-.15h-2.29v5.4h1.09v-2.25h.22a1.81,1.81,0,0,1,.55.06.84.84,0,0,1,.33.22,7.68,7.68,0,0,1,.57.79l.79,1.18H248Zm-2.3-2.06h-.81v-1.37h.85l.8,0a.67.67,0,0,1,.41.21.65.65,0,0,1,.15.44.71.71,0,0,1-.11.4.59.59,0,0,1-.31.23A4.2,4.2,0,0,1,245,107.51Z"/><polygon class="cls-2" points="239.46 108.91 238.48 105.23 236.85 105.23 236.85 110.63 237.86 110.63 237.86 106.38 238.93 110.63 239.98 110.63 241.05 106.38 241.05 110.63 242.06 110.63 242.06 105.23 240.42 105.23 239.46 108.91"/><path class="cls-2" d="M211.46,105.79a26.74,26.74,0,0,0-5.6,1.94c-3.64,1.7-6.24,4.57-8.91,8.28a31.25,31.25,0,0,0-5.1,11.44,24.44,24.44,0,0,0-.06,11.69,11.83,11.83,0,0,0,5.77,7.75c5.9,3.28,17.46,2.09,25,2.09l1.72-7.56H208.62a6.7,6.7,0,0,1-3.6-.88,8.14,8.14,0,0,1-2.49-2.56,9.38,9.38,0,0,1-1.3-3.28c-1.1-5.41,1.23-14.24,6.57-18.72a13,13,0,0,1,3.81-2.34,12.42,12.42,0,0,1,4.24-.66h14.63l1.76-7.75h-15A27.38,27.38,0,0,0,211.46,105.79Z"/><path class="cls-2" d="M147.61,105.23h-29s-4.54,20.87-6.62,31.65-6.75,12.3-6.75,12.3c16.23,0,16.75-14.9,16.75-14.9h19.09c12.72,0,16-14,16-18.57S154.62,105.23,147.61,105.23Zm-10,21H123.46l2.47-13h13.76c5.45,0,7.4.78,7.4,4.15A9.29,9.29,0,0,1,137.61,126.23Z"/><path class="cls-1" d="M116.71,105.23h-9.09s-4.54,22.56-6,29.05-6.36,7.4-9,7.4c-3.83,0-8.88-2.37-7.33-9.52,1.73-8,5.78-26.93,5.78-26.93H82.82s-5.06,24-5.58,26.33S76,149.18,91.91,149.18,109,138,109,138Z"/><path class="cls-1" d="M23,148.18s6.56,1,9.8-11,8.57-31.91,8.57-31.91H56.59l9.48,29.18,6-29.18h8.31l-9.74,44H61.26L49.71,113.51l-6,25.19S42.31,148.18,23,148.18Z"/><path class="cls-3" d="M27.81,160H23.57v1.39h4a1.93,1.93,0,0,1,1.27.31,1.63,1.63,0,0,1,.35,1.21v.89a1.63,1.63,0,0,1-.34,1.21,1.92,1.92,0,0,1-1.27.31h-4a1.92,1.92,0,0,1-1.27-.31A1.63,1.63,0,0,1,22,163.8v-.18l1.33-.28v.76H27.9v-1.48h-4a1.9,1.9,0,0,1-1.26-.31,1.65,1.65,0,0,1-.34-1.21v-.71a1.65,1.65,0,0,1,.34-1.21,1.9,1.9,0,0,1,1.26-.31h3.67a2,2,0,0,1,1.25.3,1.41,1.41,0,0,1,.36,1.11v.14l-1.33.31Z"/><path class="cls-3" d="M41.1,158.87v5.24h4.28v-5.24h1.5v4.93a1.65,1.65,0,0,1-.34,1.21,1.89,1.89,0,0,1-1.26.31H41.2a1.9,1.9,0,0,1-1.26-.31,1.65,1.65,0,0,1-.34-1.21v-4.93Z"/><path class="cls-3" d="M57.44,165.33v-6.46H63q1.45,0,1.45,1.25v1.44q0,1.25-1.45,1.25H58.92v2.52ZM62.3,160H58.92v1.74H62.3a1.1,1.1,0,0,0,.49-.08.48.48,0,0,0,.19-.44v-.7a.48.48,0,0,0-.19-.44A1.1,1.1,0,0,0,62.3,160Z"/><path class="cls-3" d="M74,165.33v-6.46h6.61V160H75.5v1.44h3v1.1h-3v1.6h5.17v1.21Z"/><path class="cls-3" d="M90.71,165.33v-6.46h5.53q1.45,0,1.45,1.25v1.51q0,1.25-1.45,1.25h-.85l3,2.44H96.22l-2.6-2.44H92.19v2.44ZM95.57,160H92.19v1.81h3.38a1.1,1.1,0,0,0,.49-.08.47.47,0,0,0,.19-.44v-.78a.47.47,0,0,0-.19-.44A1.11,1.11,0,0,0,95.57,160Z"/><path class="cls-3" d="M120.11,165.33v-6.46h5.53q1.45,0,1.45,1.25v1.44q0,1.25-1.45,1.25h-4.05v2.52ZM125,160h-3.38v1.74H125a1.1,1.1,0,0,0,.49-.08.48.48,0,0,0,.19-.44v-.7a.48.48,0,0,0-.19-.44A1.1,1.1,0,0,0,125,160Z"/><path class="cls-3" d="M136.67,165.33v-6.46h5.53q1.45,0,1.45,1.25v1.51q0,1.25-1.45,1.25h-.85l3,2.44h-2.15l-2.6-2.44h-1.43v2.44Zm4.86-5.36h-3.38v1.81h3.38a1.11,1.11,0,0,0,.49-.08.47.47,0,0,0,.19-.44v-.78a.47.47,0,0,0-.19-.44A1.11,1.11,0,0,0,141.52,160Z"/><path class="cls-3" d="M154,165.33v-6.46h6.61V160h-5.11v1.44h3v1.1h-3v1.6h5.17v1.21Z"/><path class="cls-3" d="M170.66,165.33v-6.46h1.21l3,3.9,3-3.9h1.2v6.46H177.7v-4a6.74,6.74,0,0,1,.05-.69,5,5,0,0,1-.38.68L175,164.56h-.3l-2.43-3.24a3,3,0,0,1-.39-.66q0,.39,0,.69v4Z"/><path class="cls-3" d="M189.52,165.33v-6.46H191v6.46Z"/><path class="cls-3" d="M203.08,158.87v5.24h4.28v-5.24h1.5v4.93a1.65,1.65,0,0,1-.34,1.21,1.9,1.9,0,0,1-1.26.31h-4.08a1.89,1.89,0,0,1-1.26-.31,1.65,1.65,0,0,1-.34-1.21v-4.93Z"/><path class="cls-3" d="M219.42,165.33v-6.46h1.21l3,3.9,3-3.9h1.2v6.46h-1.39v-4a6.72,6.72,0,0,1,.05-.69,5,5,0,0,1-.38.68l-2.43,3.23h-.3L221,161.31a3,3,0,0,1-.39-.66q0,.39,0,.69v4Z"/><path class="cls-3" d="M161,66.69s-.1.85-1.95,2.7a3.45,3.45,0,0,0-.79,1.25c-.05-.37-.12-.76-.19-1.16l1.91-2c1.79-1.83-.19-5-.19-5s-.06.82-1.76,2.65a3.26,3.26,0,0,0-.67,1.13q-.16-.59-.35-1.22c.31-.43.86-1.16,1.72-2.29,1.47-1.94-.76-4.68-.76-4.68s0,.78-1.35,2.7a3.18,3.18,0,0,0-.56,1.46c-.13-.34-.26-.68-.4-1,.23-.37.7-1.12,1.5-2.36,1.2-1.86-1-4.2-1-4.2s.09.7-1,2.55a3.07,3.07,0,0,0-.41,1.83q-.37-.78-.78-1.58c.19-.36.53-1,1.09-2.07.91-1.7-1.18-3.57-1.18-3.57s.13.6-.71,2.28a2.6,2.6,0,0,0-.23,1.46q-.4-.7-.85-1.41c.13-.33.35-.9.7-1.75.61-1.51-1.31-2.89-1.31-2.89s.16.5-.4,2a2.1,2.1,0,0,0-.12.93c-.26-.38-.54-.77-.82-1.16.09-.3.24-.79.46-1.52.42-1.35-1.35-2.4-1.35-2.4a3.15,3.15,0,0,1-.2,1.74,1.78,1.78,0,0,0,0,.68c-.32-.41-.66-.82-1-1.23.09-.31.23-.77.43-1.42.42-1.35-1.35-2.4-1.35-2.4a3.15,3.15,0,0,1-.2,1.74A2.14,2.14,0,0,0,147.1,48a1.93,1.93,0,0,0-1.38-.43,2.8,2.8,0,0,1-1.56-.05s.63,1.52,1.76,1.51h.18l.3,0a6.65,6.65,0,0,1,.93,0q.54.64,1,1.29a1.55,1.55,0,0,0-.5,0,2.8,2.8,0,0,1-1.56-.05s.63,1.52,1.76,1.51h.18l.3,0a7.07,7.07,0,0,1,.83,0c.29.4.58.8.85,1.19a1.8,1.8,0,0,0-.62-.09,3.22,3.22,0,0,1-1.78-.21s.58,1.81,1.87,1.9h.21l.35,0a7.79,7.79,0,0,1,1,.05c.23.37.45.73.67,1.09a2.12,2.12,0,0,0-.67-.17c-1.66-.1-2.07-.47-2.07-.47s.45,2.2,2,2.47h0l.21,0,.41,0a9,9,0,0,1,1.28.21c.2.38.39.76.57,1.13a2.44,2.44,0,0,0-.79-.28c-1.9-.28-2.33-.74-2.33-.74s.3,2.56,2,3h0l.24.05.47.06a10.19,10.19,0,0,1,1.48.37c.2.48.38,1,.56,1.42a2.84,2.84,0,0,0-1.28-.69c-2.05-.46-2.48-1-2.48-1s.12,2.83,2,3.47h0l.26.08.51.1a9.89,9.89,0,0,1,1.88.66q.32,1.07.56,2.07A3.21,3.21,0,0,0,155.26,66c-2.08-.75-2.47-1.37-2.47-1.37s-.24,3,1.59,3.88h0l0,0,.26.11.52.17A8.91,8.91,0,0,1,157.39,70c.09.52.16,1,.22,1.47a3.28,3.28,0,0,0-1.49-1.28c-2.15-.87-2.53-1.53-2.53-1.53s-.37,3.1,1.51,4.13h0l.05,0a2.38,2.38,0,0,0,.27.13l.54.2a11.22,11.22,0,0,1,1.89,1,18.71,18.71,0,0,1,0,2.2l.77.08a18.31,18.31,0,0,0,0-2.21c.39-.38,1.15-1.12,2.4-2.31C163,70.08,161,66.69,161,66.69Z"/><path class="cls-3" d="M152,67.65s0,.63-1.07,2.2a2.54,2.54,0,0,0-.42,1c-.09-.26-.18-.53-.28-.82l1.14-1.67c1.07-1.55-.76-3.59-.76-3.59s.06.6-.94,2.14a2.4,2.4,0,0,0-.35.9q-.19-.41-.4-.84c.17-.35.48-.95,1-1.87.82-1.59-1.14-3.3-1.14-3.3s.12.56-.64,2.13a2.34,2.34,0,0,0-.22,1.13l-.42-.69c.12-.3.37-.9.8-1.9.64-1.5-1.26-2.92-1.26-2.92s.15.5-.44,2a2.26,2.26,0,0,0-.07,1.38q-.36-.52-.76-1c.09-.29.26-.81.53-1.64.45-1.35-1.3-2.44-1.3-2.44a3.16,3.16,0,0,1-.23,1.74,1.91,1.91,0,0,0,0,1.09q-.38-.46-.79-.92c.05-.26.14-.7.29-1.36.25-1.17-1.31-1.93-1.31-1.93a2.67,2.67,0,0,1,0,1.49,1.55,1.55,0,0,0,0,.69l-.74-.74c0-.23.07-.61.14-1.16.13-1-1.28-1.58-1.28-1.58a2.32,2.32,0,0,1,.07,1.29,1.31,1.31,0,0,0,.05.5l-.88-.77c0-.24.07-.59.14-1.08.13-1-1.28-1.58-1.28-1.58a2.32,2.32,0,0,1,.07,1.29,1.58,1.58,0,0,0,.36,1.1,1.42,1.42,0,0,0-1.06-.14,2.06,2.06,0,0,1-1.14.16s.65,1,1.46.87h0l.11,0,.21-.07a4.9,4.9,0,0,1,.67-.14l.92.8a1.14,1.14,0,0,0-.36,0,2.06,2.06,0,0,1-1.14.16s.65,1,1.46.87h0l.11,0,.21-.07a5.19,5.19,0,0,1,.6-.13l.76.76a1.32,1.32,0,0,0-.46,0,2.37,2.37,0,0,1-1.32.07s.64,1.24,1.59,1.14h0l.13,0,.25-.06a5.74,5.74,0,0,1,.76-.09l.62.71a1.56,1.56,0,0,0-.5,0,2.81,2.81,0,0,1-1.56-.08s.6,1.54,1.73,1.55h.18l.3,0a6.6,6.6,0,0,1,1,0l.56.75a1.8,1.8,0,0,0-.61-.1,3.23,3.23,0,0,1-1.78-.25s.54,1.82,1.84,1.94h.21l.35,0a7.49,7.49,0,0,1,1.12.09c.2.32.4.65.58,1a2.09,2.09,0,0,0-1-.34c-1.54-.08-1.93-.41-1.93-.41s.44,2,1.85,2.27h0l.2,0H147a7.27,7.27,0,0,1,1.45.25q.37.74.66,1.43a2.36,2.36,0,0,0-1.31-.75c-1.6-.28-2-.68-2-.68s.2,2.18,1.64,2.61h0l.2,0,.4.06a6.55,6.55,0,0,1,1.72.56c.13.36.24.71.34,1a2.41,2.41,0,0,0-1.24-.74c-1.67-.36-2-.8-2-.8a5.05,5.05,0,0,0,.14.86c1.5.6,3.06,1.25,4.62,2l1.05-1.42C153.87,69.87,152,67.65,152,67.65Z"/><path class="cls-1" d="M137.41,40.67s-30.18,5.84-25.5,42.46c0,0,11.17,1.32,16-3.95s8.44-10.21,6.36-18.58S133.69,46.77,137.41,40.67Z"/><path class="cls-3" d="M130.25,54.85a1.1,1.1,0,0,0-.56-.42,6.34,6.34,0,0,0-6.34,1.95,13.45,13.45,0,0,1-5.48,3.77c-1.56.52-5.32,2.21-4,6.36,1.18,3.78,1.29,8.5,2.08,9.53h0s2.34,4.35,5,2.8a15.23,15.23,0,0,0,7.3-9.64c1.07-5,4.09-8.76,4.77-9.84S132.21,55.49,130.25,54.85Zm-14.52,9.6c-.29-.8,1.46-1.58,2.92-1.87a12.86,12.86,0,0,0,2.53-.78s1.95-1.75,3.6-3.21,2.63-1.85,2.82-1.36.39.88-2,3.21a15.74,15.74,0,0,0-4.38,8.67c-.68,3.41-1.85,3.51-1.85,1.17s1-6.72-.78-6.23S116,65.24,115.73,64.45Zm15.19-3.39a26.71,26.71,0,0,0-3.51,7.86c-.78,2.79-.91,4.45-4.35,7.61,0,0-2.71,2.76-4.07,1.88a11.56,11.56,0,0,1-2.29-2h0c.91.23,2.94.24,5.33-2.92,3.25-4.28,4.28-11,6.36-13.37a7.37,7.37,0,0,0,2.11-4.43,3.77,3.77,0,0,1,1.65,1.64C132.48,58.39,132.55,58.65,130.92,61.05Z"/><path class="cls-1" d="M113.58,85.24a32.57,32.57,0,0,0,23.9,10.09c15.45,0,25.84-10.65,25.84-10.65s-5.86-11.81-19.16-11.81S132.66,83.46,113.58,85.24Z"/><path class="cls-3" d="M120.08,85.85s7.24.28,13.76-6.67V87.7L136.77,90l-3.63,1.27-2.7-1.56S122,88.68,120.08,85.85Z"/><path class="cls-3" d="M145.14,74.56c-5.06,5.75-2.82,10.69-2.82,10.69,6.91,2.8,11.59.61,11.59.61C154.2,74.75,145.14,74.56,145.14,74.56ZM147.87,81a1.85,1.85,0,1,1,1.85-1.85A1.85,1.85,0,0,1,147.87,81Z"/><path class="cls-3" d="M142.61,86.67a16.06,16.06,0,0,0,6.82,6.59A6.94,6.94,0,0,0,153,89S148.45,90,142.61,86.67Z"/><path class="cls-3" d="M142.61,89.16s-1.17,2.34,1.27,5.16c0,0,1.85.39,2.24-.49C146.11,93.84,143.39,91.4,142.61,89.16Z"/><path class="cls-3" d="M140.73,90.66s-.71.89-.52,3.75a5.68,5.68,0,0,0,2.12,0A10,10,0,0,1,140.73,90.66Z"/><path class="cls-3" d="M139.17,91.31s-1.75,1.43-1.95,2.53c0,0-.26.69,1.95.68A4.76,4.76,0,0,1,139.17,91.31Z"/><path class="cls-3" d="M134.72,92.28l1.21,1,1.56-1.95A7.61,7.61,0,0,0,134.72,92.28Z"/></svg>