<svg id="Capa_1" data-name="Capa 1" xmlns="http://www.w3.org/2000/svg" viewBox="0 0 270 206"><defs><style>.cls-1{fill:#4358bc;}</style></defs><title>marcas</title><path class="cls-1" d="M116.7,79.34c-3.37-.31-13.4,2.35-16.77,3.17a43.38,43.38,0,0,1-8.28.82A50.56,50.56,0,0,1,86.74,98c-4.09,8.18-9,18-9.82,22.09s-2.45,5.73,0,4.91a53.41,53.41,0,0,1,9-1.64c.82,0,.82,0,1.64-1.64S93.29,107,93.29,107a55.9,55.9,0,0,0,19.94-4.29c9.82-4.29,12.58-9.2,13.09-15.75S120.08,79.64,116.7,79.34Zm.92,9.24c-.14,3.14-1.7,6.54-8.18,10.63s-16,4.29-16,4.29c-.28,0-.5,0-.54-.18a.18.18,0,0,1,0-.1l7.43-17.38a1.23,1.23,0,0,1,1-1c.89-.27,6.48-2,10.77-1.77S117.76,85.44,117.62,88.57Z"/><path class="cls-1" d="M158,111.6c-.4-1.08-3.78-13.69-5.69-23.5s-3.48-10.7-4.36-11.25-4.7-1.5-6.34.34-7.7,9.48-12.2,15.61-24.75,28.09-24.75,28.09a.24.24,0,0,0,0,.35s7.18.08,8.07,0a1.89,1.89,0,0,0,1.35-.84s6.54-9,7.16-10.07,1.07-1.07,2-1c3.27.1,20.25-3.27,21-3.43s.87.82.87.82l.56,5.73c.41,2,0,2.81,2.1,2.25s9.1-.82,9.82-1.23S158.36,112.52,158,111.6Zm-16.05-11c-1.38.72-15.34,4.4-15.34,4.4s-1.5.27,0-1.64L139.2,87.26a1.58,1.58,0,0,1,1.12-.51c.61.05.82,2,.82,2l1.64,9.41A2,2,0,0,1,142,100.55Z"/><path class="cls-1" d="M167.6,75.28H176s2.52,0,2,3.27-5.52,25.7-5.52,25.7-.89,1.77.34,2,16.84-1.64,16.84-1.64,1.64-.31,1.67.78a18.8,18.8,0,0,1-.31,3A2,2,0,0,1,189,110c-1.91.07-22,2.66-22,2.66s-5,.34-6.1-1.64-.68-4.74-.58-5.83,5.45-22.16,5.91-26.45C166.65,75,167.6,75.28,167.6,75.28Z"/><path class="cls-1" d="M167.42,118.6a2,2,0,0,0-1.74-1,3.49,3.49,0,0,0-1.39.16,9.12,9.12,0,0,0-2.74,1.55c-1.33,1.1-2.6,3.08-3.69,7.23-1.84,7,2,9.77,4.35,8.69s2.61-4.76,2.61-4.76a3.34,3.34,0,0,1-.87-2.15c.05-1.18.56-1.62,1.74-1.8s1.59-.09,1.74.83-1.12,8.85-3.94,9.82-7.87.05-8.44-6.8c-.54-6.53,2.73-12.08,7.82-14.45l.77-.33a4.81,4.81,0,0,1,1.81-.36,3.61,3.61,0,0,1,2,.62,2.24,2.24,0,0,1,.83,2.76C167.72,119.05,167.42,118.6,167.42,118.6Z"/><path class="cls-1" d="M174.72,131.93a5.15,5.15,0,0,1-3.55,3.51c-1.68.37-2.5-1.59-2.3-4,.49-5.73,2.34-8.47,3.29-9.82a13.35,13.35,0,0,1,2.15-2.32c2.69-2.39,3.2.55,3.2.55s.31-1.12.85-1.26a.89.89,0,0,1,1,1.23s-1.23,6.17-2.15,7.43-1.7-.07-1.33-.91A15.52,15.52,0,0,0,177,122c0-1.09-1-1.57-1.6-1.12s-2.8,1.6-4.5,6.85.14,6.54,1.6,4.67,1.57-3.78,1.91-4.23a.9.9,0,0,1,1.53.48c.24.89.37,2.52,1,2.11s.92-1.43,1.53-1.43.27,3-1.19,4.33S174.89,133.81,174.72,131.93Z"/><path class="cls-1" d="M181.95,121s-1.47.65-1.67,0,.1-1.43,1.91-2.28c-.14-2.62.27-4.29,1.3-4.6s1.26.85.85,1.84a8.92,8.92,0,0,0-.44,2.59s1.7-.1,2.15-.68,1-.2.92.24a2.51,2.51,0,0,1-1.87,2.11c-1.33.2-1.26.61-1.26.61s-.89,7.19-.89,8.32.78.89,1.36-.31,1.06-1.43,1.26-.89-.51,2.76-1.36,4.33-2.91,1.27-3.1-1.4c-.15-2,1-10.06,1-10.06Z"/><path class="cls-1" d="M194.84,117a3.25,3.25,0,0,0-3-1.19,3.16,3.16,0,0,0-1.53.71c-2,1.67-3.47,6.2-3.34,11.42s4,4.16,6.1.48a16.38,16.38,0,0,0,1.37-3,16.88,16.88,0,0,0,.88-5.69C195.32,117.73,195,117.24,194.84,117Zm-1.72,7.47a9.14,9.14,0,0,1-2.28,4.23c-.85,1-1.84.51-2-1.53a16.7,16.7,0,0,1,1.67-7.81c1.09-1.77,2.42-.94,2.42-.94C193.84,119.18,194,121.71,193.13,124.43Z"/><path class="cls-1" d="M75.37,118.6l-.9,2.67s-3.68.57-4-2.77,2.73-13.91,3.14-18.61,1.91-15.54,2-22S73.72,67.24,77.27,67s10.5,5.52,33.81,5.22,61-4.12,70.56-8.35,12.48-1.5,13.67,2.59,4.19,52,4.19,52-.14,4.48-1.91,4.62c.55-1.36-.27-6.83-1.23-7.78,0-8-3.14-47.31-3.14-47.31s-1.5-5-4.36-4-10.63,5.73-37.22,8.45-54.95,4-61.49,2-7.77-3.54-9.27-3.14-1.23,1-1.5,6-4.24,29.8-5.42,35.34C72.63,118.91,73.56,118.32,75.37,118.6Z"/><path class="cls-1" d="M127.51,142.5a6.54,6.54,0,0,0,3.31,1.73c3.22.54,5.93-2.19,7.46-3.09,3.27-1.91,15.41-7.17,15.41-7.17l-1-3.75a53.59,53.59,0,0,0-12.26,5.21c-1.83,1.08-3.9,2.46-6.9,2.63a10.88,10.88,0,0,1-6.19-1.41c-5.45-3.82-31.73-14.24-36.91-15.37l-1.16,3.09C115.61,135.3,125,140.25,127.51,142.5Z"/></svg>