<svg id="Capa_1" data-name="Capa 1" xmlns="http://www.w3.org/2000/svg" viewBox="0 0 270 206"><defs><style>.cls-1{fill:#231f20;}.cls-2{fill:#fff;}.cls-3{fill:#ec3124;}</style></defs><title>marcas</title><path class="cls-1" d="M98.05,77c-4.2,0-8.5.2-12.7.2-3.5,0-6.1-.1-8.8-.2v1.5H78c3.6,0,5.2.9,5.2,4.3v25.5c0,3.4-1.6,4.3-5.2,4.3h-1.4v1.5c2.8,0,5.3-.2,8.8-.2s6.7.1,10.2.2v-1.5h-2.3c-3.1,0-4.5-.6-4.5-5.6V96.55q3.6.3,7.2.3c14.4,0,18.6-5.3,18.6-10C114.45,82.75,110.55,77,98.05,77Zm-1.3,17.8a27.88,27.88,0,0,1-8.1-1.2V78.75c1.4-.1,3.1-.2,4.9-.2,8.3,0,13.4,3.2,13.4,9.3C107,91,104.55,94.85,96.75,94.85Zm45.1,4.4c3.2-.7,9.2-2.4,9.2-8.1,0-2-2.1-8-13.6-8-2.9,0-6,.1-10.3.1-2.9,0-6,0-8.3-.1v1.3H120c3,0,4.3.7,4.3,3.6v21.1c0,2.8-1.3,3.6-4.3,3.6h-1.2V114c2.3,0,5.4-.1,8.3-.1s5.6,0,8.4.1v-1.2h-1.9c-2.6,0-3.7-.5-3.7-4.6V100c5,.1,5.8.2,7.3,1.8l7.6,8.3a6.79,6.79,0,0,0,1.2,1.2c6,5,11.7,3.4,11.7,3.4v-.6c-4.2,0-15.9-14.8-15.9-14.8Zm-7.4-.9a31.45,31.45,0,0,1-4.4-.3V85c1.3-.1,2.5-.2,4.1-.2,9,0,11,5.3,11,7.2-.1,4.5-4.9,6.3-10.7,6.3Zm39.4-15.9c-9.3,0-17.7,6.7-17.7,16.4,0,8.6,7.4,15.7,17.6,15.7,11.3,0,17.8-8.3,17.8-16-.1-9.1-8.3-16.1-17.7-16.1Zm.1,30.1c-7.9,0-12.8-7.6-12.8-14.5,0-9.9,6.1-13.5,12.6-13.5,8.1,0,12.7,7.5,12.7,14.4C186.45,106.75,182.55,112.55,174,112.55Zm-9.5,35.6-16.7-26.5h-1.2l-8.5,15a12.1,12.1,0,0,0-1.9-.1c-3.4.2-7.6,1-9.7,5.7-.1.2,0,.3.2.2a9.3,9.3,0,0,1,9.8-2.9l-4.7,8.2c-2,3.6-3.4,4.7-6.9,4.7h-.8v1.3c1.6-.1,12.1-.1,14.4,0l.7-1.3s-4.7.1-4.7-1.4a6.8,6.8,0,0,1,1.1-3.1L139,141l.3-.5.6.3a19.23,19.23,0,0,0,6.6,1.9,12.58,12.58,0,0,0,7.5-1.9l.2.2,4.7,7.8a6,6,0,0,1,.9,2.2c0,.9-1.2,1.4-3.3,1.4h-1.6v1.3c2.4-.1,5.6-.1,9-.1s6.4,0,8.8.1v-1.3h-1.4c-3.3-.1-5.3-1.8-6.8-4.3Zm-12-7.7c-2.2.4-5.2-.5-9.6-2.4-.8-.3-1.5-.6-2.3-.9l4.9-9.7,7.3,11.9.5.8a1.91,1.91,0,0,1-.8.3Zm57.4-17.5c-2.4,0-5,0-6.9-.1v1.3h.8c3.5,0,4.5,1,4.6,6l.4,17.8h-.1L184,123c-1.6,0-3.3.1-5.1.1s-4,0-5.7-.1v1.3h1.7c3.2,0,4.7.7,4.7,3.8,0,5-.1,13.3-.4,19-.2,4.5-.8,5.5-4.2,5.5h-1v1.3c2,0,4.7-.1,7.1-.1s5,0,7.1.1v-1.3h-1.3c-3.1,0-4.2-1-4.2-4.5-.3-6.7-.4-13.4-.4-20.1h.1l26.4,26.4h1.9l1.2-25.3c.2-4.2,2.1-4.7,4.1-4.7h1V123c-2.4-.1-4.7,0-7.1,0Zm-86.7,24.2s-2.3,4.3-3.5,4.6-10.3.1-10.3.1c-6.2-.2-7.1-1.2-7.1-4.2v-20.1c0-2.8,1.3-3.6,4.3-3.6h1.5v-1.3c-3.1,0-5.8.1-8.6.1s-6,0-8.3-.1V124h1.2c3,0,4.3.7,4.3,3.6v21.1c0,2.8-1.3,3.6-4.3,3.6h-1.2v1.3c2.3,0,27.8-.2,29.8-.1l3-6.2-.8-.1Zm-52.4-30.5c-4.2,0-8.5.2-12.7.2-3.5,0-6.1-.1-8.8-.2v1.5h1.4c3.6,0,5.2.9,5.2,4.3V148c0,3.4-1.6,4.3-5.2,4.3h-1.4v1.5c2.8,0,5.3-.2,8.8-.2s6.7.1,10.2.2v-1.5H66c-3.1,0-4.5-.6-4.5-5.6v-10.5q3.6.3,7.2.3c14.4,0,18.6-5.3,18.6-10,.1-4.1-3.9-9.9-16.5-9.8Zm-1.2,17.9a27.88,27.88,0,0,1-8.1-1.2v-14.9c1.4-.1,3.1-.2,4.9-.2,8.3,0,13.4,3.2,13.4,9.3C79.75,130.55,77.25,134.45,69.55,134.55Z"/><path class="cls-2" d="M76.45,51.75h115v20.7h-115Z"/><path class="cls-3" d="M77.15,52.45h19.3v19.3H77.15Z"/><path class="cls-1" d="M97.05,52.45h93.7v19.3H97.05Z"/><path class="cls-2" d="M108.45,56a8.63,8.63,0,0,0-2.8-.4h-4.8v.7h.7a1.4,1.4,0,0,1,.9.3,2.2,2.2,0,0,1,.2,1.4v8.2a3,3,0,0,1-.2,1.3,1,1,0,0,1-1,.4h-.7v.7h5.8v-.7h-.7a1.4,1.4,0,0,1-.9-.3,2.2,2.2,0,0,1-.2-1.4v-3.4l.9.2h1a4.06,4.06,0,0,0,3-1,3.86,3.86,0,0,0,1.1-2.7,3.14,3.14,0,0,0-.7-2.1A2.48,2.48,0,0,0,108.45,56Zm-3.5.9a3.4,3.4,0,0,1,1-.1,3.08,3.08,0,0,1,1.3.3,2.19,2.19,0,0,1,.9,1,3.19,3.19,0,0,1,.3,1.4,2.79,2.79,0,0,1-.6,1.8,2.13,2.13,0,0,1-1.5.7h-.7l-.7-.1v-5Zm17.6-1.3v.7h.7a1.4,1.4,0,0,1,.9.3,2.2,2.2,0,0,1,.2,1.4v5.1a8.92,8.92,0,0,1-.3,2.8,2.74,2.74,0,0,1-1.3,1.3,4.06,4.06,0,0,1-2.1.5,4.53,4.53,0,0,1-1.6-.3,3.92,3.92,0,0,1-1-.8,3.36,3.36,0,0,1-.5-1.4,9.15,9.15,0,0,1-.1-1.7V58a3,3,0,0,1,.2-1.3.87.87,0,0,1,.9-.4h.7v-.7h-5.7v.7h.6a1.61,1.61,0,0,1,.9.3,3.19,3.19,0,0,1,.3,1.4v4.9a8.72,8.72,0,0,0,.3,3.2,4.47,4.47,0,0,0,1.6,2,5.2,5.2,0,0,0,3.2.7,4.83,4.83,0,0,0,3.1-.8,3.58,3.58,0,0,0,1.5-1.9,10.32,10.32,0,0,0,.4-3V58a2.34,2.34,0,0,1,.2-1.2.88.88,0,0,1,1-.5h.7v-.7h-4.8Zm19.1,11.8a5.72,5.72,0,0,1-1.5-1.6l-2.5-3.4a4.77,4.77,0,0,0,2.2-1.2,3.44,3.44,0,0,0,.8-2.1,3.06,3.06,0,0,0-.7-2,3.37,3.37,0,0,0-1.7-1.1,15.26,15.26,0,0,0-3-.3h-4.8v.7h.7a1.4,1.4,0,0,1,.9.3,2.2,2.2,0,0,1,.2,1.4v8.2a3,3,0,0,1-.2,1.3,1,1,0,0,1-1,.4h-.7v.7H136V68h-.7a1.4,1.4,0,0,1-.9-.3,2.2,2.2,0,0,1-.2-1.4v-3.4h1l4.3,5.9h3.7V68h-.2a4.23,4.23,0,0,1-1.4-.6Zm-7.2-10.5c.4-.1.8-.1,1.3-.2a2.4,2.4,0,0,1,2.5,2.5,2.34,2.34,0,0,1-.8,1.8,4,4,0,0,1-2.6.7h-.3v-4.8Zm12.2-1.3v.7h.6a2.35,2.35,0,0,1,.8.2l.3.3a4.87,4.87,0,0,1,.1,1.2v8.2a2.2,2.2,0,0,1-.2,1.4,1.16,1.16,0,0,1-1,.4h-.6v.6h5.7v-.7h-.6a1.45,1.45,0,0,1-.7-.2l-.3-.3a4.87,4.87,0,0,1-.1-1.2V58a2.2,2.2,0,0,1,.2-1.4,1.16,1.16,0,0,1,1-.4h.6v-.7Zm24.1,0h-4.7v.7h.6a1.69,1.69,0,0,1,1,.3,2.2,2.2,0,0,1,.2,1.4v6.7l-7.5-9.1h-3.7v.7h.1a2.2,2.2,0,0,1,.8.1,3,3,0,0,1,.8.4,2.7,2.7,0,0,1,.7.8v8.7a3,3,0,0,1-.2,1.3,1.16,1.16,0,0,1-1,.4h-.6v.7H162V68h-.6a1.69,1.69,0,0,1-1-.3,2.2,2.2,0,0,1-.2-1.4V59l8.1,9.8h.6V58a2,2,0,0,1,.2-1.3,1.16,1.16,0,0,1,1-.4h.6l.1-.7Zm16,12.3a1.5,1.5,0,0,1-1.1-.4,5.07,5.07,0,0,1-.9-1.6l-4.4-10.6h-.6l-4.6,10.5a8.11,8.11,0,0,1-1,1.8,1.61,1.61,0,0,1-.9.3h-.2v.7h4.3v-.7h-.2a4.25,4.25,0,0,1-1.1-.2.52.52,0,0,1-.2-.4,1.69,1.69,0,0,1,.3-1l.8-1.9h4.7l.7,1.7a5.64,5.64,0,0,1,.4,1.2.76.76,0,0,1-.2.4,1.49,1.49,0,0,1-.9.2h-.2v.7h5.4v-.7Zm-7.2-9,1.8,4.4h-3.7l1.9-4.4Zm-101.7-5.8h17.9V71H77.85Z"/><path class="cls-3" d="M78.55,64.85h5.5v5.5h-5.5Zm11,0h5.5v5.5h-5.5Zm-5.5-5.5h5.5v5.5h-5.5Zm-5.5-5.5h5.5v5.5h-5.5Zm11,0h5.5v5.5h-5.5Z"/><path class="cls-1" d="M219.35,125.45a1.4,1.4,0,1,1,1.4-1.4A1.51,1.51,0,0,1,219.35,125.45Zm0-2.6a1.15,1.15,0,1,0,.1,2.3,1.11,1.11,0,0,0,1.1-1.1A1.38,1.38,0,0,0,219.35,122.85Zm-.6.5h.7a.41.41,0,0,1,.2.8h-.2c.2.1.3.2.3.4l.2.3h-.3l-.1-.2c-.2-.3-.3-.4-.4-.4H219v.6h-.4Zm.6.6c.1,0,.3-.1.3-.2a.22.22,0,0,0-.2-.2h-.4v.4h.3Zm-26-69.5a1.4,1.4,0,1,1,1.4-1.4A1.37,1.37,0,0,1,193.35,54.45Zm0-2.5a1.15,1.15,0,1,0,.1,2.3,1.11,1.11,0,0,0,1.1-1.1A1.38,1.38,0,0,0,193.35,51.95Zm-.6.5h.7a.41.41,0,1,1,.2.8h-.2c.2.1.3.2.3.4l.2.3h-.3l-.1-.2c-.2-.3-.3-.4-.4-.4H193v.6h-.4Zm.6.7c.1,0,.3-.1.3-.2a.22.22,0,0,0-.2-.2h-.4v.4h.3Z"/></svg>