<svg id="Capa_1" data-name="Capa 1" xmlns="http://www.w3.org/2000/svg" viewBox="0 0 270 206"><defs><style>.cls-1{fill:#ca2229;}</style></defs><title>marcas</title><path class="cls-1" d="M131.67,79.43a3.85,3.85,0,1,0-3.79-3.79,3.85,3.85,0,0,0,3.79,3.79Zm0,8.82a3.85,3.85,0,1,0-3.85-3.85A3.85,3.85,0,0,0,131.67,88.25Zm-14-2.22a3.85,3.85,0,1,0,3.85-3.85A3.86,3.86,0,0,0,117.64,86ZM142,89.42a3.85,3.85,0,1,0-3.86-3.85A3.86,3.86,0,0,0,142,89.42Zm1.88-8.69A3.85,3.85,0,1,0,140,76.87a3.85,3.85,0,0,0,3.85,3.85h0Zm-24.38.19a3.85,3.85,0,1,0-3.85-3.85A3.88,3.88,0,0,0,119.46,80.91Zm32.24,4.38a3.67,3.67,0,0,0-2,.55,3.76,3.76,0,0,0-1.88,3.3,3.83,3.83,0,0,0,1.88,3.3,4,4,0,0,0,2,.55,3.85,3.85,0,0,0,0-7.71Zm3.79-8.2a3.85,3.85,0,1,0,3.85,3.85,3.87,3.87,0,0,0-3.85-3.85Zm-5.77,17.54c-11.37-6-23.4-6.38-35.6-.22-.19.09-.34.19-.49.25-1.17.93-1.54,1.76-1.11,2.53.25.71.86.8,1.6.62a5.88,5.88,0,0,0,.89-.28c11.65-6.23,23.55-6.66,34.46.12l.25.09a1.67,1.67,0,0,0,1.76-.37,2,2,0,0,0-.49-2.07q-.62-.37-1.26-.68Z"/><path class="cls-1" d="M149.27,98.73c-9.59-6.41-20.81-7-33.76-.56-1,.8-1.36,1.57-1,2.25.31.89,1.23.68,2.25.31,10.51-5.61,21.27-6,31.14.12a1.5,1.5,0,0,0,1.79-.28.12.12,0,0,1,0-.09,1.72,1.72,0,0,0-.46-1.76Zm-33.39-9.37a3.86,3.86,0,0,0-1.76-3.24,3.79,3.79,0,0,0-2.1-.62,3.85,3.85,0,1,0,0,7.71,3.79,3.79,0,0,0,2.1-.62,3.86,3.86,0,0,0,1.76-3.24Zm-4.19-8.23A3.85,3.85,0,1,0,104,81s0,.09,0,.14a3.85,3.85,0,0,0,7.71,0ZM91.75,109.18c.43-1.66.22-2.77-.68-3.3a3,3,0,0,0-2.87-.74c-.22.09-.46.19-.71.31-2.56,2.74-5.15,5.46-7.74,8.2-2.74-2.74-5.4-5.33-8.17-8.08a2.7,2.7,0,0,0-3,0,2.61,2.61,0,0,0-.62.49,3.34,3.34,0,0,0-.37,3.85c.34.34.65.68,1,1,2.8,3.05,5.64,6.1,8.48,9.16v11.5c.74,1.51,1.73,2.25,2.93,2.13a2.89,2.89,0,0,0,2.9-1.91v-12l5.3-6.41c1.2-1.42,2.38-2.87,3.55-4.25Zm13.62-4.59a2.75,2.75,0,0,0-3.24,1.17c-.86,1-1.7,2.13-2.53,3.21-3.95,5.06-7.68,10.3-11.41,15.54-1.17,1.69-2.37,3.36-3.58,5.06A3,3,0,0,0,85.73,133a3.78,3.78,0,0,0,2.47.65,4.09,4.09,0,0,0,1.39-.46c1.39-1.79,2.74-3.61,4.13-5.39h7.86v3.7a3,3,0,0,0,3.17,2.19,2.74,2.74,0,0,0,3-2.44V106.93c-.21-1.51-1-2.31-2.34-2.34Zm-5.76,17.08c-.59,0-1.2,0-1.79,0A21.71,21.71,0,0,1,99.61,119a25.51,25.51,0,0,1,1.73-2c0,1.54.06,3.11.06,4.62-.62,0-1.2,0-1.79,0Zm-44-16.46A14.48,14.48,0,0,0,41.5,116.36a14.34,14.34,0,0,0,0,6.47A14.44,14.44,0,1,0,55.59,105.2Zm0,22.2a7.8,7.8,0,1,1,7.8-7.8A7.81,7.81,0,0,1,55.59,127.4Z"/><path class="cls-1" d="M41.5,129.65,37,123c.74-.86,1.51-1.69,2.28-2.53a10.46,10.46,0,0,0,1.57-6.26c-.4-2.74-1.3-4.84-2.87-6.1a8.29,8.29,0,0,0-6.44-2.65c-.12,0-.22,0-.31,0a12.39,12.39,0,0,0-6,2.37,11.84,11.84,0,0,0-3.36,5.06l.37,17.82c.37,2.4,1.51,3.58,3.36,3.55a3,3,0,0,0,2.9-2.47c0-2.5.09-5,.12-7.55a.61.61,0,0,1,.31-.83c.83.19,1,.8,1.29,1.33s.65.83,1,1.23c2,2.56,4,5.09,6.07,7.61a3.23,3.23,0,0,0,3.67-.31,3.7,3.7,0,0,0,.56-.86,2.85,2.85,0,0,0,.06-2.68s0-.06-.06-.09ZM31.2,118.12a3.25,3.25,0,1,1,3.24-3.24A3.24,3.24,0,0,1,31.2,118.12Zm186.66-13.6a3,3,0,0,0-3.24,2.77v23.61a2.88,2.88,0,0,0,3.11,2.44,3.64,3.64,0,0,0,3.61-2.47V107.18A3.14,3.14,0,0,0,217.86,104.53Zm27.1-.19a3,3,0,0,0-2.9,2.07v14.09c-3.05-5.06-6.1-10.14-9.16-15.17-1-1-2.4-1.26-4.19-.71a3.78,3.78,0,0,0-2.53,2.77V131c.06,1.54,1.11,2.25,3.14,2.19a3,3,0,0,0,3-2.19c0-4.9,0-9.83-.06-14.74q4.49,7.67,8.94,15.35a3.17,3.17,0,0,0,3.51,1.42,3.67,3.67,0,0,0,3.42-2.53v-24a3.12,3.12,0,0,0-3.18-2.13Zm-37.89.25a3,3,0,0,0-2.9,2.06v14.09c-3.05-5.06-6.1-10.14-9.16-15.17-1-1-2.4-1.26-4.19-.71a3.84,3.84,0,0,0-2.53,2.77v23.61c.06,1.51,1.11,2.22,3.17,2.16a3,3,0,0,0,3-2.16c0-4.93,0-9.86-.06-14.77l9,15.35a3.11,3.11,0,0,0,3.48,1.42,3.64,3.64,0,0,0,3.42-2.53v-24a3.1,3.1,0,0,0-3.17-2.12ZM158.15,124.1a10.25,10.25,0,0,1-5.49,3.17c-2.37.31-4.22-.09-5.46-1.23a8.31,8.31,0,0,1-3.24-4.56,10.28,10.28,0,0,1,.09-5.12,7,7,0,0,1,3.14-3.82,8.35,8.35,0,0,1,4.56-1.26,9.53,9.53,0,0,1,5.43,2.34,3.2,3.2,0,0,0,4.25.06,3.39,3.39,0,0,0,.15-4.35c-.37-.62-2.28-4.47-10.24-4.62a14.3,14.3,0,0,0-14.43,14.4,14.45,14.45,0,0,0,14.43,14.43c8,0,9.93-3.79,10.79-5.24a3.09,3.09,0,0,0-.4-3.55,3.06,3.06,0,0,0-3.61-.65ZM172.24,109q-1.24-1.62-2.53-3.21a2.75,2.75,0,0,0-3.24-1.17,2.3,2.3,0,0,0-2.34,2.34v24.29a2.69,2.69,0,0,0,2.93,2.44,3.05,3.05,0,0,0,3.21-2.19v-3.7h7.86c1.39,1.79,2.74,3.61,4.13,5.39a3.64,3.64,0,0,0,3.86-.18,3,3,0,0,0,1.11-3.42c-4.93-6.91-9.77-13.87-15-20.59Zm0,12.7c-.59,0-1.2,0-1.79,0,0-1.51.06-3.08.06-4.62a25.51,25.51,0,0,1,1.73,2A21.84,21.84,0,0,1,174,121.7c-.62,0-1.2,0-1.79,0Zm-46.79,5.45H118V107c-.09-3.17-6.29-3.14-6.29,0v24.42c.09,1,.46,1.57,1.14,1.66h12.61c3.24-.06,3.3-6.07,0-6Z"/></svg>