<svg id="Capa_1" data-name="Capa 1" xmlns="http://www.w3.org/2000/svg" viewBox="0 0 246 186">
  <defs>
    <style>
      .cls-1 {
        fill: #181e0d;
      }

      .cls-2 {
        font-size: 22px;
        font-family: GothamMedium, Gotham Medium;
        letter-spacing: 0.02em;
      }

      .cls-11, .cls-2 {
        fill: #fff;
      }

      .cls-3 {
        fill: #ffd5be;
      }

      .cls-4 {
        fill: #ffa86a;
      }

      .cls-5 {
        fill: #593222;
      }

      .cls-6 {
        fill: #992b34;
      }

      .cls-7 {
        fill: #e1bfac;
      }

      .cls-8 {
        fill: #cb464c;
      }

      .cls-9 {
        fill: #ffd3bc;
      }

      .cls-10 {
        fill: #3c2526;
      }

      .cls-12 {
        fill: #0a0c05;
      }
    </style>
  </defs>
  <title>Periocidad</title>
  <g>
    <rect class="cls-1" x="3.29" y="119.52" width="239.43" height="66.48" rx="33.24" ry="33.24"/>
    <text class="cls-2" transform="translate(54.83 165.42)">BIMESTRAL</text>
    <g>
      <path class="cls-3" d="M180.59,57.8s8.86,19.69,1.53,34.69a95.2,95.2,0,0,1,9.67,27h-26Z"/>
      <path class="cls-4" d="M114.21,42.62s-2.43-27.13,8.57-39.13c12.6,0,15.39,24.33,15.39,24.33Z"/>
      <path class="cls-4" d="M114,119.52l-5.17-42L175,87.69a35.14,35.14,0,0,1-2.18,21.88,33.56,33.56,0,0,1-7,9.95Z"/>
      <path class="cls-3" d="M137.31,109.91c23.65,3.92,42.9-21.84,39.8-35.14-4.3-18.48-55.23-27.81-65.67-12.35C103.77,73.79,113,105.88,137.31,109.91Z"/>
      <path class="cls-5" d="M135.37,25.38s-7.1-16.86-10.85-16.86-8.39,30.38-8.39,30.38Z"/>
      <path class="cls-4" d="M178.85,60.08S196.06,39,193.66,22.87c-10.44-7.05-26.38,11.54-26.38,11.54Z"/>
      <path class="cls-5" d="M171,34s15.32-10,18.43-7.9-10.05,29.87-10.05,29.87Z"/>
      <polygon class="cls-5" points="124.53 72.18 126.82 99.42 147.08 103.2 159.19 77.48 124.53 72.18"/>
      <polygon class="cls-6" points="129.03 92.05 128.79 79.91 142.66 77.48 153.11 84.76 146.75 96.16 129.03 92.05"/>
      <circle class="cls-7" cx="137.31" cy="99.42" r="10.49"/>
      <path class="cls-8" d="M135.83,103h0A9.1,9.1,0,0,1,129,92l4-17.27,17.73,4.12-4,17.27A9.1,9.1,0,0,1,135.83,103Z"/>
      <path class="cls-4" d="M124.53,72.18l-13.08-9.75.41-9.46a29.45,29.45,0,0,1,27.93-28.15h0l10.64,9.67,18-3.56h0c11,11.38,16.1,29.84,8.71,43.84l-17.55.16Z"/>
      <circle class="cls-9" cx="133.67" cy="72.18" r="9.14"/>
      <circle class="cls-9" cx="150.42" cy="74.93" r="9.14"/>
      <path class="cls-10" d="M138.64,63.06c-1.82-.3-3.53,2.16-3.23,4.7.6,5.11,3.37,9.09,7.26,9.72s7.78-2.27,10-6.92c1.09-2.32.24-5.18-1.58-5.48Z"/>
      <circle class="cls-5" cx="132.72" cy="51.39" r="7.06"/>
      <circle class="cls-5" cx="161.34" cy="58.46" r="7.06"/>
      <circle class="cls-10" cx="133.37" cy="52.67" r="3.97"/>
      <circle class="cls-11" cx="132.06" cy="50.01" r="1.31"/>
      <circle class="cls-10" cx="160.09" cy="58.46" r="3.97"/>
      <circle class="cls-11" cx="158.78" cy="55.8" r="1.31"/>
      <path class="cls-12" d="M54.78,119.62c1.42,10.14,9.2,18,18.45,19.13,11,1.4,22.11-6.84,24.05-19.13Z"/>
      <circle class="cls-3" cx="73.23" cy="117.87" r="13.45"/>
    </g>
  </g>
</svg>
