<svg id="Capa_1" data-name="Capa 1" xmlns="http://www.w3.org/2000/svg" viewBox="0 0 246 175">
  <defs>
    <style>
      .cls-1 {
        fill: #181e0d;
      }

      .cls-2 {
        font-size: 22px;
        font-family: GothamMedium, Gotham Medium;
        letter-spacing: 0.02em;
      }

      .cls-2, .cls-7 {
        fill: #fff;
      }

      .cls-3 {
        fill: #734b33;
      }

      .cls-4 {
        fill: #3c2526;
      }

      .cls-5 {
        fill: #1c1c1c;
      }

      .cls-6 {
        fill: #672b25;
      }

      .cls-8 {
        fill: #b37e2f;
      }

      .cls-9 {
        fill: #751c1c;
      }

      .cls-10 {
        fill: #cb464c;
      }

      .cls-11 {
        fill: #943231;
      }

      .cls-12 {
        fill: #0a0c05;
      }
    </style>
  </defs>
  <title>Periocidad</title>
  <g>
    <rect class="cls-1" x="3.29" y="108.52" width="239.43" height="66.48" rx="33.24" ry="33.24"/>
    <text class="cls-2" transform="translate(64.88 154.42)">MENSUAL</text>
    <g>
      <g>
        <path class="cls-3" d="M89,108.55,95.35,35H150.6l6.4,73.56Z"/>
        <path class="cls-4" d="M95.35,16.9H150.6a0,0,0,0,1,0,0V76.5a16.92,16.92,0,0,1-16.92,16.92h-21.4A16.92,16.92,0,0,1,95.35,76.5V16.9A0,0,0,0,1,95.35,16.9Z"/>
        <path class="cls-5" d="M123.75,83.59H122.2A27,27,0,0,1,95.35,56.46v14A27,27,0,0,0,122.2,97.55h1.56A27,27,0,0,0,150.6,70.42v-14A27,27,0,0,1,123.75,83.59Z"/>
        <g>
          <path class="cls-6" d="M146.37,8.36a19.86,19.86,0,0,0-14.12-5.91H113.7A19.86,19.86,0,0,0,99.58,8.36a20.3,20.3,0,0,0-5.85,14.27v5.49a20.38,20.38,0,0,0,1.43,7.5l10.27,26L123,43.83l17.55,17.74,10.27-26a20.38,20.38,0,0,0,1.43-7.5V22.63A20.3,20.3,0,0,0,146.37,8.36Z"/>
          <path class="cls-6" d="M146.37,8.36a19.86,19.86,0,0,0-14.12-5.91H113.7A19.86,19.86,0,0,0,99.58,8.36a20.3,20.3,0,0,0-5.85,14.27v5.49a20.38,20.38,0,0,0,1.43,7.5l10.27,26L123,43.83l17.55,17.74,10.27-26a20.38,20.38,0,0,0,1.43-7.5V22.63A20.3,20.3,0,0,0,146.37,8.36Z"/>
          <path class="cls-6" d="M146.37,8.36a19.86,19.86,0,0,0-14.12-5.91H113.7A19.86,19.86,0,0,0,99.58,8.36a20.3,20.3,0,0,0-5.85,14.27v5.49a20.38,20.38,0,0,0,1.43,7.5l10.27,26L123,43.83l17.55,17.74,10.27-26a20.38,20.38,0,0,0,1.43-7.5V22.63A20.3,20.3,0,0,0,146.37,8.36Z"/>
          <path class="cls-6" d="M146.37,8.36a19.86,19.86,0,0,0-14.12-5.91H113.7A19.86,19.86,0,0,0,99.58,8.36a20.3,20.3,0,0,0-5.85,14.27v5.49a20.38,20.38,0,0,0,1.43,7.5l10.27,26L123,43.83l17.55,17.74,10.27-26a20.38,20.38,0,0,0,1.43-7.5V22.63A20.3,20.3,0,0,0,146.37,8.36Z"/>
          <path class="cls-6" d="M146.37,8.36a19.86,19.86,0,0,0-14.12-5.91H113.7A19.86,19.86,0,0,0,99.58,8.36a20.3,20.3,0,0,0-5.85,14.27v5.49a20.38,20.38,0,0,0,1.43,7.5l10.27,26L123,43.83l17.55,17.74,10.27-26a20.38,20.38,0,0,0,1.43-7.5V22.63A20.3,20.3,0,0,0,146.37,8.36Z"/>
          <path class="cls-3" d="M146.37,8.36a19.86,19.86,0,0,0-14.12-5.91H113.7A19.86,19.86,0,0,0,99.58,8.36a20.3,20.3,0,0,0-5.85,14.27v5.49a20.38,20.38,0,0,0,1.43,7.5l10.27,26L123,43.83l17.55,17.74,10.27-26a20.38,20.38,0,0,0,1.43-7.5V22.63A20.3,20.3,0,0,0,146.37,8.36Z"/>
        </g>
        <ellipse class="cls-4" cx="111.5" cy="25.9" rx="5.1" ry="5.15"/>
        <ellipse class="cls-4" cx="134.45" cy="25.9" rx="5.1" ry="5.15"/>
        <path class="cls-4" d="M110.87,2.11H96.93c-7.24,0-14,5.4-18,14.4L76.8,21.2c-2.46,5.52-2,12.87,1.16,17.55h0c3.93,5.86,10.4,5.33,13.87-1.15Z"/>
        <path class="cls-4" d="M132.78,2.11h13.94c7.24,0,14,5.4,18,14.4l2.1,4.69c2.46,5.52,2,12.87-1.16,17.55h0c-3.93,5.86-10.4,5.33-13.87-1.15Z"/>
        <ellipse class="cls-7" cx="108.92" cy="23.54" rx="1.86" ry="1.88"/>
        <ellipse class="cls-7" cx="132" cy="23.54" rx="1.86" ry="1.88"/>
        <path class="cls-8" d="M140.52,61.57a17.58,17.58,0,1,1-35.1,0L123,43.83Z"/>
        <path class="cls-4" d="M116,39.23a2.85,2.85,0,0,0-2.63,3.91,10.16,10.16,0,0,0,18.87,0,2.85,2.85,0,0,0-2.63-3.91Z"/>
        <path class="cls-8" d="M105.43,61.57,99.36,46.23A49,49,0,0,0,108.92,58a48.52,48.52,0,0,0,13.87,8.77Z"/>
        <path class="cls-8" d="M140.52,61.57l6.07-15.34A49,49,0,0,1,137,58a48.52,48.52,0,0,1-13.87,8.77Z"/>
        <path class="cls-9" d="M127.54,75.82a12.65,12.65,0,0,1-8.76,0c-4.92-1.88-8.33-6.92-8.76-12.91H136.3C135.87,68.9,132.46,73.94,127.54,75.82Z"/>
        <path class="cls-10" d="M116.78,63v0h12.77v0a6.42,6.42,0,0,1-6.38,6.45h0A6.42,6.42,0,0,1,116.78,63Z"/>
        <polygon class="cls-11" points="116.78 65.01 123.16 66.36 129.55 65.01 129.55 62.91 116.78 62.91 116.78 65.01"/>
      </g>
      <path class="cls-12" d="M51.19,108.62c-1.39,10.42,8.25,19.24,19.08,19.12,10.66-.11,20-8.87,18.59-19.12Z"/>
      <path class="cls-12" d="M157.13,108.62c-1.39,10.42,8.25,19.24,19.08,19.12,10.66-.11,20-8.87,18.59-19.12Z"/>
      <circle class="cls-3" cx="69.51" cy="108.52" r="13.5"/>
      <circle class="cls-3" cx="174.14" cy="108.52" r="13.5"/>
    </g>
  </g>
</svg>
