<svg id="Capa_1" data-name="Capa 1" xmlns="http://www.w3.org/2000/svg" viewBox="0 0 246 177">
  <defs>
    <style>
      .cls-1 {
        fill: #181e0d;
      }

      .cls-2 {
        font-size: 22px;
        font-family: GothamMedium, Gotham Medium;
        letter-spacing: 0.02em;
      }

      .cls-2, .cls-6 {
        fill: #fff;
      }

      .cls-3 {
        fill: #b58778;
      }

      .cls-4 {
        fill: #a17b69;
      }

      .cls-5 {
        fill: #000100;
      }

      .cls-7 {
        fill: #804641;
      }

      .cls-8 {
        fill: #e1424e;
      }

      .cls-9 {
        fill: #8f5a50;
      }

      .cls-10 {
        fill: #663432;
      }

      .cls-11 {
        fill: #0a0c05;
      }
    </style>
  </defs>
  <title>Periocidad</title>
  <g>
    <rect class="cls-1" x="3.29" y="110.52" width="239.43" height="66.48" rx="33.24" ry="33.24"/>
    <text class="cls-2" transform="translate(51.19 156.42)">SEMESTRAL</text>
    <g>
      <polygon class="cls-3" points="80.95 72.81 63.94 110.52 132.97 110.52 132.54 83.35 80.95 72.81"/>
      <path class="cls-4" d="M107.44,99.81s-12.51-2.93-14.92-10.6L90.6,84.63l-12-6.72,2.3-5.1,51.59,10.55V94s-7.77,3.58-10.85,4.33C118.69,101.29,112.69,103.33,107.44,99.81Z"/>
      <path class="cls-3" d="M93.64,6.48a62.7,62.7,0,0,1,38.61,0c1.55.23,14.91,2.49,21.56,14.9a29.38,29.38,0,0,1,2.46,20.54c.34,2.91,1.5,15.73-7.23,26.91-8.21,10.51-22,15.57-35.94,13.35C99.27,84.34,85.53,79.3,77.27,68.83c-9.17-11.62-7.73-25-7.38-27.78a33.59,33.59,0,0,1,4.77-20.11A34,34,0,0,1,93.64,6.48Z"/>
      <circle class="cls-5" cx="96.59" cy="45.48" r="7.96"/>
      <circle class="cls-6" cx="92.82" cy="41.06" r="3.04"/>
      <circle class="cls-5" cx="132.97" cy="45.48" r="7.96"/>
      <circle class="cls-6" cx="129.21" cy="41.06" r="3.04"/>
      <ellipse class="cls-3" cx="113.09" cy="83.35" rx="19.45" ry="14.52"/>
      <path class="cls-7" d="M93.64,84.46s-5.12-1.32-5.26-6.35A77.36,77.36,0,0,1,93.64,84.46Z"/>
      <circle class="cls-7" cx="113.1" cy="83.18" r="10.3"/>
      <path class="cls-8" d="M104.65,72.69V82.9a8.76,8.76,0,0,0,17.52,0V72.69Z"/>
      <ellipse class="cls-9" cx="101.88" cy="76.27" rx="13.73" ry="10.25"/>
      <ellipse class="cls-9" cx="124.29" cy="76.27" rx="13.73" ry="10.25"/>
      <path class="cls-5" d="M116.61,74.91h-5.22a6.37,6.37,0,0,1-6-3.87l-1.53-4c-1.4-3.69,1.68-7.51,6-7.51h8c4.24,0,7.3,3.62,6.13,7.25l-1.3,4A6.32,6.32,0,0,1,116.61,74.91Z"/>
      <path class="cls-7" d="M57.6,26.59S64.87-11,93.64,6.48C83.06,14.87,79.59,10.38,77.56,31.8s-6.94,25.9-11,25.46S61.79,46.84,62.23,39A16.49,16.49,0,0,0,57.6,26.59Z"/>
      <path class="cls-10" d="M88.63,7.64s-12.22-2.31-14.4,6.8,0,23.09,0,23.09,1.3-17.15,3.47-21.93S84.8,8.36,88.63,7.64Z"/>
      <path class="cls-7" d="M168.29,26.59S161-11,132.25,6.48c10.58,8.39,14.05,3.91,16.08,25.32s6.94,25.9,11,25.46S164.1,46.84,163.66,39A16.49,16.49,0,0,1,168.29,26.59Z"/>
      <path class="cls-10" d="M137.26,7.64s12.22-2.31,14.4,6.8,0,23.09,0,23.09-1.3-17.15-3.47-21.93S141.09,8.36,137.26,7.64Z"/>
      <path class="cls-6" d="M110.57,104.21a27.56,27.56,0,0,0-19,6.31h34.61A27.15,27.15,0,0,0,110.57,104.21Z"/>
      <path class="cls-11" d="M195.12,110.36c-1.42,10.14-9.2,18-18.45,19.13-11,1.4-22.11-6.84-24.05-19.12Z"/>
      <circle class="cls-3" cx="176.67" cy="108.6" r="13.45"/>
    </g>
  </g>
</svg>
