<svg id="Capa_1" data-name="Capa 1" xmlns="http://www.w3.org/2000/svg" viewBox="0 0 352.14 230.42"><defs><style>.cls-1{fill:#a4ea3c;}.cls-2{font-size:22px;font-family:GothamMedium, Gotham Medium;letter-spacing:0.02em;}.cls-2,.cls-6{fill:#fff;}.cls-3{fill:#bb8d78;}.cls-4{fill:#a77b69;}.cls-5{fill:#000100;}.cls-7{fill:#814641;}.cls-8{fill:#e7424e;}.cls-9{fill:#955a50;}.cls-10{fill:#663432;}.cls-11{fill:#60c11e;}</style></defs><title>Semestral</title><rect class="cls-1" x="20.1" y="136.31" width="311.95" height="66.48" rx="33.24" ry="33.24"/><text class="cls-2" transform="translate(104.92 182.21)">SEMESTRAL</text><polygon class="cls-3" points="132.96 98.6 115.94 136.31 184.98 136.31 184.55 109.15 132.96 98.6"/><path class="cls-4" d="M159.45,125.6s-12.51-2.93-14.92-10.6l-1.92-4.58-12-6.72,2.3-5.1,51.59,10.55v10.69s-7.77,3.58-10.85,4.33C170.7,127.09,164.7,129.12,159.45,125.6Z"/><path class="cls-3" d="M145.65,32.27a62.7,62.7,0,0,1,38.61,0c1.55.23,14.91,2.49,21.56,14.9a29.38,29.38,0,0,1,2.46,20.54c.34,2.91,1.5,15.73-7.23,26.91-8.21,10.51-22,15.57-35.94,13.35-13.82,2.16-27.56-2.89-35.82-13.35-9.17-11.62-7.73-25-7.38-27.78a33.59,33.59,0,0,1,4.77-20.11A34,34,0,0,1,145.65,32.27Z"/><circle class="cls-5" cx="148.6" cy="71.27" r="7.96"/><circle class="cls-6" cx="144.83" cy="66.85" r="3.04"/><circle class="cls-5" cx="184.98" cy="71.27" r="7.96"/><circle class="cls-6" cx="181.22" cy="66.85" r="3.04"/><ellipse class="cls-3" cx="165.1" cy="109.15" rx="19.45" ry="14.52"/><path class="cls-7" d="M145.65,110.25s-5.12-1.32-5.26-6.35A77.36,77.36,0,0,1,145.65,110.25Z"/><circle class="cls-7" cx="165.11" cy="108.97" r="10.3"/><path class="cls-8" d="M156.66,98.49v10.21a8.76,8.76,0,1,0,17.52,0V98.49Z"/><ellipse class="cls-9" cx="153.89" cy="102.06" rx="13.73" ry="10.25"/><ellipse class="cls-9" cx="176.3" cy="102.06" rx="13.73" ry="10.25"/><path class="cls-5" d="M168.62,100.7H163.4a6.37,6.37,0,0,1-6-3.87l-1.53-4c-1.4-3.69,1.68-7.51,6-7.51h8c4.24,0,7.3,3.62,6.13,7.25l-1.3,4A6.32,6.32,0,0,1,168.62,100.7Z"/><path class="cls-7" d="M109.61,52.38s7.27-37.62,36-20.11c-10.58,8.39-14.05,3.91-16.08,25.32s-6.94,25.9-11,25.46-4.77-10.42-4.34-18.23A16.49,16.49,0,0,0,109.61,52.38Z"/><path class="cls-10" d="M140.64,33.43s-12.22-2.31-14.4,6.8,0,23.09,0,23.09,1.3-17.15,3.47-21.93S136.8,34.15,140.64,33.43Z"/><path class="cls-7" d="M220.3,52.38s-7.27-37.62-36-20.11c10.58,8.39,14.05,3.91,16.08,25.32s6.94,25.9,11,25.46,4.77-10.42,4.34-18.23A16.49,16.49,0,0,1,220.3,52.38Z"/><path class="cls-10" d="M189.27,33.43s12.22-2.31,14.4,6.8,0,23.09,0,23.09-1.3-17.15-3.47-21.93S193.1,34.15,189.27,33.43Z"/><path class="cls-6" d="M162.57,130a27.56,27.56,0,0,0-19,6.31h34.61A27.15,27.15,0,0,0,162.57,130Z"/><path class="cls-11" d="M247.13,136.15c-1.42,10.14-9.2,18-18.45,19.13-11,1.4-22.11-6.84-24.05-19.12Z"/><circle class="cls-3" cx="228.68" cy="134.39" r="13.45"/></svg>