<svg id="Capa_1" data-name="Capa 1" xmlns="http://www.w3.org/2000/svg" viewBox="0 0 246 177">
  <defs>
    <style>
      .cls-1 {
        fill: #181e0d;
      }

      .cls-2 {
        font-size: 22px;
        font-family: GothamMedium, Gotham Medium;
        letter-spacing: 0.02em;
      }

      .cls-2, .cls-8 {
        fill: #fff;
      }

      .cls-3 {
        fill: #4f4345;
      }

      .cls-4 {
        fill: #353030;
      }

      .cls-5 {
        fill: #d4c0b3;
      }

      .cls-6 {
        fill: #fff4e4;
      }

      .cls-7 {
        fill: #000100;
      }

      .cls-9 {
        fill: #3c2526;
      }

      .cls-10 {
        fill: #e1424e;
      }

      .cls-11 {
        fill: #0a0c05;
      }
    </style>
  </defs>
  <title>Periocidad</title>
  <g>
    <rect class="cls-1" x="3.29" y="110.52" width="239.43" height="66.48" rx="33.24" ry="33.24"/>
    <text class="cls-2" transform="translate(46.75 156.42)">TRIMESTRAL</text>
    <g>
      <polygon class="cls-3" points="100.95 87.08 92.99 110.52 154.66 110.52 145.73 87.64 100.95 87.08"/>
      <path class="cls-4" d="M122.77,101.82A24.67,24.67,0,0,1,101,87.08l44.78.56A24.68,24.68,0,0,1,122.77,101.82Z"/>
      <ellipse class="cls-3" cx="123.82" cy="42.56" rx="40.67" ry="40.26"/>
      <ellipse class="cls-5" cx="123.66" cy="69.16" rx="31" ry="26.33"/>
      <circle class="cls-3" cx="123.82" cy="41.99" r="30.83"/>
      <ellipse class="cls-3" cx="107.72" cy="54.82" rx="15.06" ry="14.67"/>
      <ellipse class="cls-3" cx="142.28" cy="54.82" rx="15.06" ry="14.67"/>
      <path class="cls-6" d="M120.82,50.82h5.33a12.5,12.5,0,0,1,12.5,12.5v22a9.5,9.5,0,0,1-9.5,9.5H117.82a9.5,9.5,0,0,1-9.5-9.5v-22A12.5,12.5,0,0,1,120.82,50.82Z"/>
      <path class="cls-4" d="M115.38,57.93c-2.36-.08-4.13,3.31-3.34,6.5,1.59,6.4,5.76,11,10.81,11.19s9.52-4.15,11.54-10.42c1-3.12-.53-6.63-2.89-6.71Z"/>
      <circle class="cls-7" cx="108.41" cy="43.24" r="5.75"/>
      <circle class="cls-7" cx="139.98" cy="43.24" r="5.75"/>
      <path class="cls-6" d="M123,11.16h0a3.67,3.67,0,0,1,3.67,3.67V53.16a0,0,0,0,1,0,0h-7.33a0,0,0,0,1,0,0V14.82A3.67,3.67,0,0,1,123,11.16Z"/>
      <circle class="cls-8" cx="105.53" cy="40.36" r="2.88"/>
      <circle class="cls-8" cx="137.66" cy="40.36" r="2.88" transform="translate(11.78 109.16) rotate(-45)"/>
      <path class="cls-9" d="M123.27,89.4A11.13,11.13,0,0,0,134.4,78.27H112.15A11.13,11.13,0,0,0,123.27,89.4Z"/>
      <path class="cls-10" d="M123,85.68a7.4,7.4,0,0,0,7.4-7.4H115.59A7.4,7.4,0,0,0,123,85.68Z"/>
      <path class="cls-4" d="M101,9.27c-8.63,49.4-14.43,57.65-17.8,57.5-8-.35-19.94-49.31-3.17-59.22C81.94,6.39,88.13,3.49,101,9.27Z"/>
      <path class="cls-4" d="M145.73,9.27c8.63,49.4,14.43,57.65,17.8,57.5,8-.35,19.94-49.31,3.17-59.22C164.74,6.39,158.56,3.49,145.73,9.27Z"/>
      <path class="cls-6" d="M101,110.52a46.83,46.83,0,0,1,44.78,0Z"/>
      <path class="cls-11" d="M52.74,110.52a16.77,16.77,0,0,0,33.49,0Z"/>
      <path class="cls-11" d="M158.44,110.52a16.77,16.77,0,0,0,33.49,0Z"/>
      <circle class="cls-3" cx="68.49" cy="107.67" r="11"/>
      <circle class="cls-3" cx="175.18" cy="107.67" r="11"/>
    </g>
  </g>
</svg>
