<svg id="Capa_1" data-name="Capa 1" xmlns="http://www.w3.org/2000/svg" viewBox="0 0 352.14 230.42"><defs><style>.cls-1{fill:#a4ea3c;}.cls-2{font-size:22px;font-family:GothamMedium, Gotham Medium;letter-spacing:0.02em;}.cls-2,.cls-8{fill:#fff;}.cls-3{fill:#4f4345;}.cls-4{fill:#353030;}.cls-5{fill:#dac6b9;}.cls-6{fill:#fffaea;}.cls-7{fill:#000100;}.cls-9{fill:#3c2526;}.cls-10{fill:#e7424e;}.cls-11{fill:#60c11e;}</style></defs><title>Trimestral</title><rect class="cls-1" x="20.1" y="136.08" width="311.95" height="66.48" rx="33.24" ry="33.24"/><text class="cls-2" transform="translate(100.49 181.98)">TRIMESTRAL</text><polygon class="cls-3" points="154.69 112.64 146.73 136.08 208.39 136.08 199.47 113.2 154.69 112.64"/><path class="cls-4" d="M176.51,127.38a24.67,24.67,0,0,1-21.82-14.74l44.78.56A24.68,24.68,0,0,1,176.51,127.38Z"/><ellipse class="cls-3" cx="177.56" cy="68.12" rx="40.67" ry="40.26"/><ellipse class="cls-5" cx="177.39" cy="94.71" rx="31" ry="26.33"/><circle class="cls-3" cx="177.56" cy="67.55" r="30.83"/><ellipse class="cls-3" cx="161.45" cy="80.38" rx="15.06" ry="14.67"/><ellipse class="cls-3" cx="196.02" cy="80.38" rx="15.06" ry="14.67"/><path class="cls-6" d="M174.56,76.38h5.33a12.5,12.5,0,0,1,12.5,12.5v22a9.5,9.5,0,0,1-9.5,9.5H171.56a9.5,9.5,0,0,1-9.5-9.5v-22A12.5,12.5,0,0,1,174.56,76.38Z"/><path class="cls-4" d="M169.12,83.49c-2.36-.08-4.13,3.31-3.34,6.5,1.59,6.4,5.76,11,10.81,11.19S186.1,97,188.12,90.74c1-3.12-.53-6.63-2.89-6.71Z"/><circle class="cls-7" cx="162.14" cy="68.8" r="5.75"/><circle class="cls-7" cx="193.72" cy="68.8" r="5.75"/><path class="cls-6" d="M176.73,36.71h0a3.67,3.67,0,0,1,3.67,3.67V78.71a0,0,0,0,1,0,0h-7.33a0,0,0,0,1,0,0V40.38A3.67,3.67,0,0,1,176.73,36.71Z"/><circle class="cls-8" cx="159.27" cy="65.92" r="2.88"/><circle class="cls-8" cx="191.39" cy="65.92" r="2.88" transform="translate(9.44 154.64) rotate(-45)"/><path class="cls-9" d="M177,115a11.13,11.13,0,0,0,11.13-11.12H165.88A11.13,11.13,0,0,0,177,115Z"/><path class="cls-10" d="M176.73,111.24a7.4,7.4,0,0,0,7.4-7.4H169.32A7.4,7.4,0,0,0,176.73,111.24Z"/><path class="cls-4" d="M154.69,34.83c-8.63,49.4-14.43,57.65-17.8,57.5C128.86,92,117,43,133.72,33.1,135.68,31.95,141.86,29.05,154.69,34.83Z"/><path class="cls-4" d="M199.47,34.83c8.63,49.4,14.43,57.65,17.8,57.5,8-.35,19.94-49.31,3.17-59.22C218.48,31.95,212.29,29.05,199.47,34.83Z"/><path class="cls-6" d="M154.69,136.08a46.83,46.83,0,0,1,44.78,0Z"/><path class="cls-11" d="M106.47,136.08a16.77,16.77,0,0,0,33.49,0Z"/><path class="cls-11" d="M212.18,136.08a16.77,16.77,0,0,0,33.49,0Z"/><circle class="cls-3" cx="122.23" cy="133.23" r="11"/><circle class="cls-3" cx="228.92" cy="133.23" r="11"/></svg>