<svg id="Capa_1" data-name="Capa 1" xmlns="http://www.w3.org/2000/svg" viewBox="0 0 316 183">
  <defs>
    <style>
      .cls-1 {
        fill: #181e0d;
      }

      .cls-2 {
        font-size: 22px;
        font-family: GothamMedium, Gotham Medium;
        letter-spacing: 0.02em;
      }

      .cls-10, .cls-2 {
        fill: #fff;
      }

      .cls-3 {
        fill: #d3af84;
      }

      .cls-4 {
        fill: #efc589;
      }

      .cls-5 {
        fill: #965500;
      }

      .cls-6 {
        fill: #e1424e;
      }

      .cls-7 {
        fill: #d3374a;
      }

      .cls-8 {
        fill: #333;
      }

      .cls-9 {
        fill: #262626;
      }

      .cls-11 {
        fill: #2e211d;
      }

      .cls-12 {
        fill: #0a0c05;
      }
    </style>
  </defs>
  <title>Periocidad</title>
  <g>
    <rect class="cls-1" x="2.96" y="116.52" width="311.95" height="66.48" rx="33.24" ry="33.24"/>
    <text class="cls-2" transform="translate(33.2 162.42)">SÓLO POR ÉSTA VEZ</text>
    <path class="cls-3" d="M129.92,84s-28.5,6.26-30.67,32.48h69.44V99.28Z"/>
    <path class="cls-4" d="M154.82,100.28A54.93,54.93,0,0,1,132,95a32.37,32.37,0,0,1-13-15.94c-3.35-9.19-1.44-17.69,1.51-30.15a149.32,149.32,0,0,1,12.83-34.46,19,19,0,0,1,3.7-5.69c4.76-5,10.73-5,17.76-5.08,7.46-.07,14.07-.14,18.63,5.27a17.18,17.18,0,0,1,3.11,5.72A187.4,187.4,0,0,1,189,48.07c5.59,20.86,3.62,27.92,2.81,30.37-3.09,9.37-10.15,14.6-14.13,17A54.77,54.77,0,0,1,154.82,100.28Z"/>
    <path class="cls-3" d="M133.36,29.44S128.72,51,117.61,63.37c.63-4.83,2.09-10.9,2.09-10.9Z"/>
    <path class="cls-3" d="M177.09,29.44s4,21.54,15.15,33.93C191.6,58.54,190,51.75,190,51.75Z"/>
    <path class="cls-5" d="M137.14,8.78s-.3,29.88-20.53,46.47c-10.33-1.51-14.78-9.55-13.49-17.44S118,10.19,129.68,8.08A28.19,28.19,0,0,1,137.14,8.78Z"/>
    <path class="cls-5" d="M173.41,9.07s.3,29.88,20.53,46.47C204.27,54,208.72,46,207.43,38.1S192.51,10.48,180.86,8.37A28.19,28.19,0,0,0,173.41,9.07Z"/>
    <path class="cls-5" d="M155,89.28a14.91,14.91,0,0,0,14.91-14.91H140.12A14.91,14.91,0,0,0,155,89.28Z"/>
    <path class="cls-6" d="M154.79,86.48A12.11,12.11,0,0,0,166.9,74.37H142.68A12.11,12.11,0,0,0,154.79,86.48Z"/>
    <path class="cls-7" d="M154.49,82.43a8.06,8.06,0,0,0,8.06-8.06H146.43A8.06,8.06,0,0,0,154.49,82.43Z"/>
    <g>
      <circle class="cls-8" cx="142.87" cy="38.7" r="5.53"/>
      <circle class="cls-9" cx="142.87" cy="38.7" r="3.24"/>
      <ellipse class="cls-10" cx="140.45" cy="36.79" rx="1.89" ry="1.91"/>
    </g>
    <g>
      <circle class="cls-8" cx="166.1" cy="38.7" r="5.53"/>
      <circle class="cls-9" cx="166.1" cy="38.7" r="3.24"/>
      <ellipse class="cls-10" cx="164.21" cy="36.79" rx="1.89" ry="1.91"/>
    </g>
    <g>
      <circle class="cls-4" cx="144.04" cy="63.37" r="13.39"/>
      <circle class="cls-4" cx="165.7" cy="63.37" r="13.39"/>
    </g>
    <path class="cls-11" d="M154.89,68.18h0c-2.81,0-5.38-1.09-6.61-2.81l-3.6-5c-2.37-3.31-1.57-11,3.85-11h11.91c5.26,0,6.41,7.5,4.36,10.78l-3.14,5C160.51,67,157.84,68.18,154.89,68.18Z"/>
    <path class="cls-12" d="M169.47,116.76c1.42,10.14,9.2,18,18.45,19.12,11,1.4,22.11-6.84,24.05-19.12Z"/>
    <circle class="cls-4" cx="187.92" cy="115" r="13.45"/>
    <path class="cls-10" d="M138.59,116.52s.95-11.91,8.68-11.91,8,11.91,8,11.91Z"/>
  </g>
</svg>
