<svg id="Capa_1" data-name="Capa 1" xmlns="http://www.w3.org/2000/svg" viewBox="0 0 304 146"><defs><style>.cls-1{fill:#3d3d3d;}.cls-2{fill:none;}.cls-3{fill:#9bff00;}.cls-4{fill:#ffbb19;}</style></defs><title>Box</title><path class="cls-1" d="M93.3,73c0-10.7.05-21.4,0-32.1a3.66,3.66,0,0,1,2.82-4c18.14-6.6,36.24-13.31,54.38-19.9a5.11,5.11,0,0,1,3.23,0c18,6.55,35.94,13.22,53.94,19.75,2.32.84,3.14,2.07,3.13,4.53q-.13,31.76,0,63.52c0,2.48-.85,3.68-3.15,4.52-17.78,6.47-35.51,13.07-53.3,19.52a7.24,7.24,0,0,1-4.56,0c-17.71-6.42-35.36-13-53.08-19.44-2.47-.9-3.46-2.08-3.42-4.78C93.39,94.12,93.3,83.57,93.3,73Zm61,50.88c1-.35,1.76-.57,2.47-.83,15.68-5.77,31.34-11.58,47-17.28a2.86,2.86,0,0,0,2.28-3.24c-.08-19,0-37.91-.05-56.86,0-.8-.07-1.6-.11-2.57-.67.18-1.11.26-1.52.42-16.17,6-32.32,12-48.52,17.92-1.56.57-1.6,1.47-1.6,2.76q0,22.36,0,44.71C154.32,113.8,154.32,118.69,154.32,123.9ZM98.07,43c-.07.78-.12,1.15-.12,1.53,0,19.57,0,39.13,0,58.7,0,1.61.79,2,2,2.48q20.64,7.54,41.24,15.15l8.51,3.14c0-20.45,0-40.55,0-60.65,0-.5-.32-1.31-.7-1.46-3.38-1.33-6.8-2.54-10.55-3.91,0,1.2,0,2,0,2.83q0,11.12,0,22.24c0,3.72-1,4.46-4.43,3.22-7.45-2.73-14.87-5.53-22.35-8.18-2.28-.81-3.23-2.05-3.2-4.54.13-8.25.07-16.51,0-24.76,0-.77-.38-2-.91-2.21C104.53,45.26,101.44,44.21,98.07,43Zm44.81,11.52c2.58,1,4.74,1.68,6.81,2.61a5.51,5.51,0,0,0,4.55,0C168,52,181.86,46.9,195.68,41.8c1.75-.65,3.48-1.33,5.65-2.15-.83-.4-1.2-.61-1.6-.76q-23.2-8.54-46.41-17a4.84,4.84,0,0,0-3,.17C139.38,26,128.5,30,117.61,34l-15.13,5.57c2.36.9,4.15,1.47,5.84,2.25a6.1,6.1,0,0,0,5,0c7-2.65,14-5.19,21.06-7.71a4.29,4.29,0,0,1,2.61-.28q12.5,4.47,24.92,9.15c1.61.6,2.25,2.35,1.28,3.48a5.63,5.63,0,0,1-2.3,1.38C155.07,50,149.2,52.16,142.88,54.49Zm-29.74-6c0,8.27,0,16,.07,23.81,0,.6.92,1.46,1.6,1.73,5.74,2.23,11.53,4.36,17.31,6.51a10.25,10.25,0,0,0,1.59.3c0-5.85,0-11.49,0-17.12,0-2.44.82-5.49-.34-7.14s-4.33-2.12-6.66-3C122.34,51.93,117.93,50.31,113.15,48.53Zm4.52-3.32c6.26,2.34,12,4.5,17.77,6.62a2.08,2.08,0,0,0,1.33,0c5.75-2.12,11.5-4.27,17.77-6.61-5.26-2-10.08-3.63-14.75-5.6a8.82,8.82,0,0,0-7.38,0C127.72,41.58,122.91,43.24,117.67,45.21Z"/><path class="cls-2" d="M154.32,123.9c0-5.21,0-10.1,0-15q0-22.36,0-44.71c0-1.29,0-2.19,1.6-2.76,16.19-5.91,32.35-11.93,48.52-17.92.41-.15.85-.23,1.52-.42,0,1,.11,1.77.11,2.57,0,19,0,37.91.05,56.86a2.86,2.86,0,0,1-2.28,3.24c-15.7,5.7-31.37,11.51-47,17.28C156.09,123.33,155.37,123.55,154.32,123.9Zm20-12.5c1-.29,1.5-.4,2-.59,7.58-2.78,15.15-5.59,22.73-8.34,1.66-.6,2.8-1.5,2-3.36s-2.1-1.58-3.65-1c-5.85,2.19-11.73,4.29-17.59,6.44a46.89,46.89,0,0,0-5.93,2.35,3.11,3.11,0,0,0-1.34,2.5C172.63,110.16,173.75,110.81,174.31,111.4Zm5-20.81c.76-.19,1.06-.24,1.35-.34l18.82-7c1.44-.53,2.12-1.56,1.6-3-.58-1.63-1.86-1.82-3.35-1.27-2.14.79-4.29,1.56-6.42,2.35-4.06,1.51-8.16,2.93-12.15,4.62a3.29,3.29,0,0,0-1.51,2.59C177.69,89.29,178.84,90,179.35,90.59Zm.1,9.41c.93-.26,1.39-.35,1.81-.51,6-2.21,12-4.45,18-6.65,1.53-.56,2.38-1.54,1.82-3.13-.62-1.75-2-1.8-3.58-1.21-4.43,1.66-8.87,3.27-13.31,4.91a35.81,35.81,0,0,0-5.3,2.11,3.07,3.07,0,0,0-1.23,2.54C177.81,98.83,178.93,99.46,179.45,100Zm-12.94,14.25c2.2-.5,3.92-.95,3.7-2.86a3.41,3.41,0,0,0-2.3-2.17c-1.78-.35-3.55,1.25-3.15,2.69C165,112.87,166,113.63,166.52,114.25Z"/><path class="cls-3" d="M98.07,43c3.36,1.24,6.46,2.29,9.45,3.57.54.23.9,1.45.91,2.21.06,8.25.12,16.51,0,24.76,0,2.49.92,3.74,3.2,4.54,7.48,2.65,14.9,5.45,22.35,8.18,3.4,1.25,4.43.51,4.43-3.22q0-11.12,0-22.24c0-.82,0-1.64,0-2.83,3.75,1.37,7.17,2.58,10.55,3.91.38.15.7,1,.7,1.46,0,20.1,0,40.19,0,60.65l-8.51-3.14q-20.62-7.59-41.24-15.15c-1.24-.45-2-.87-2-2.48.06-19.57,0-39.13,0-58.7C97.95,44.12,98,43.75,98.07,43Z"/><path class="cls-2" d="M142.88,54.49c6.32-2.33,12.19-4.47,18-6.66a5.63,5.63,0,0,0,2.3-1.38c1-1.13.33-2.87-1.28-3.48Q149.5,38.31,137,33.81a4.29,4.29,0,0,0-2.61.28c-7,2.53-14.07,5.07-21.06,7.71a6.1,6.1,0,0,1-5,0c-1.69-.77-3.47-1.35-5.84-2.25L117.61,34c10.88-4,21.76-8,32.67-12a4.84,4.84,0,0,1,3-.17q23.24,8.43,46.41,17c.4.15.77.36,1.6.76-2.16.83-3.9,1.51-5.65,2.15C181.86,46.9,168,52,154.25,57.13a5.51,5.51,0,0,1-4.55,0C147.63,56.16,145.46,55.46,142.88,54.49Z"/><path class="cls-4" d="M113.15,48.53c4.78,1.78,9.19,3.39,13.57,5.07,2.32.89,5.44,1.29,6.66,3s.34,4.7.34,7.14c0,5.64,0,11.27,0,17.12a10.25,10.25,0,0,1-1.59-.3c-5.78-2.14-11.57-4.27-17.31-6.51-.68-.26-1.59-1.13-1.6-1.73C113.11,64.57,113.15,56.8,113.15,48.53Z"/><path class="cls-4" d="M117.67,45.21c5.24-2,10.05-3.63,14.73-5.59a8.82,8.82,0,0,1,7.38,0c4.68,2,9.49,3.62,14.75,5.6-6.28,2.34-12,4.5-17.77,6.61a2.08,2.08,0,0,1-1.33,0C129.68,49.71,123.94,47.55,117.67,45.21Z"/><path class="cls-1" d="M174.31,111.4c-.56-.59-1.67-1.24-1.75-2a3.11,3.11,0,0,1,1.34-2.5,46.89,46.89,0,0,1,5.93-2.35c5.86-2.15,11.74-4.25,17.59-6.44,1.55-.58,2.94-.73,3.65,1s-.38,2.76-2,3.36c-7.59,2.75-15.16,5.56-22.73,8.34C175.8,111,175.29,111.12,174.31,111.4Z"/><path class="cls-1" d="M179.35,90.59c-.52-.58-1.66-1.3-1.68-2A3.29,3.29,0,0,1,179.19,86c4-1.69,8.09-3.11,12.15-4.62,2.14-.79,4.29-1.56,6.42-2.35,1.5-.55,2.77-.36,3.35,1.27.52,1.47-.15,2.5-1.6,3l-18.82,7C180.42,90.35,180.11,90.4,179.35,90.59Z"/><path class="cls-1" d="M179.45,100c-.52-.54-1.64-1.17-1.75-1.94a3.07,3.07,0,0,1,1.23-2.54,35.81,35.81,0,0,1,5.3-2.11c4.43-1.64,8.88-3.24,13.31-4.91,1.58-.59,3-.54,3.58,1.21.57,1.59-.28,2.57-1.82,3.13-6,2.19-12,4.43-18,6.65C180.84,99.65,180.39,99.74,179.45,100Z"/><path class="cls-1" d="M166.52,114.25c-.49-.62-1.49-1.38-1.75-2.34-.4-1.43,1.37-3,3.15-2.69a3.41,3.41,0,0,1,2.3,2.17C170.44,113.3,168.72,113.75,166.52,114.25Z"/></svg>