<svg id="Capa_1" data-name="Capa 1" xmlns="http://www.w3.org/2000/svg" viewBox="0 0 304 146"><defs><style>.cls-1{fill:#fff;}.cls-1,.cls-2,.cls-3{stroke:#3d3d3d;stroke-miterlimit:10;stroke-width:4px;}.cls-2{fill:#ffbb19;}.cls-3{fill:#e0f7c1;}.cls-4{font-size:10.16px;font-family:GothamMedium, Gotham Medium;letter-spacing:0.02em;}.cls-4,.cls-5{fill:#3d3d3d;}</style></defs><title>Card</title><rect class="cls-1" x="64.4" y="25.61" width="181.1" height="100.74" rx="10.32" ry="10.32" transform="translate(-0.17 0.35) rotate(-0.13)"/><rect class="cls-2" x="58.5" y="19.65" width="181.1" height="100.74" rx="9.45" ry="9.45" transform="translate(-0.16 0.34) rotate(-0.13)"/><path class="cls-1" d="M239.61,75.12H58.51l.08,36a9.45,9.45,0,0,0,9.47,9.43l162.2-.37a9.45,9.45,0,0,0,9.43-9.47Z"/><circle class="cls-3" cx="196.75" cy="99.36" r="14.94" transform="translate(-0.22 0.44) rotate(-0.13)"/><circle class="cls-1" cx="214.58" cy="99.32" r="14.94" transform="translate(-0.22 0.48) rotate(-0.13)"/><text class="cls-4" transform="translate(71.52 91.82)">1234 5245 6586</text><text class="cls-4" transform="translate(71.02 106.82)">4321</text><text class="cls-4" transform="translate(108.05 106.82)">01</text><text class="cls-4" transform="translate(138.53 106.82)">1</text><rect class="cls-1" x="71.88" y="34.63" width="37.6" height="28.91" rx="5.38" ry="5.38"/><path class="cls-5" d="M79.41,38.93h5.14a0,0,0,0,1,0,0V43a0,0,0,0,1,0,0H76.43a0,0,0,0,1,0,0V41.91A3,3,0,0,1,79.41,38.93Z"/><path class="cls-5" d="M105.25,40.87a1.94,1.94,0,0,0-1.94-1.94H88.69V59.31h4.06V47.86A4.87,4.87,0,0,1,97.62,43h7.63Z"/><rect class="cls-5" x="76.43" y="47.09" width="8.12" height="4.06"/><path class="cls-5" d="M76.43,55.25h8.12a0,0,0,0,1,0,0v4.06a0,0,0,0,1,0,0H79.41a3,3,0,0,1-3-3V55.25A0,0,0,0,1,76.43,55.25Z"/><path class="cls-5" d="M99.69,47.09h5.57a0,0,0,0,1,0,0v4.06a0,0,0,0,1,0,0H97.13a0,0,0,0,1,0,0V49.65A2.55,2.55,0,0,1,99.69,47.09Z"/><path class="cls-5" d="M97.13,55.25h8.12a0,0,0,0,1,0,0v1.08a3,3,0,0,1-3,3H97.13a0,0,0,0,1,0,0V55.25A0,0,0,0,1,97.13,55.25Z"/></svg>