<svg id="Capa_1" data-name="Capa 1" xmlns="http://www.w3.org/2000/svg" viewBox="0 0 304 146"><defs><style>.cls-1{fill:#fff;}.cls-2{fill:#ffbb19;}.cls-3{fill:#3d3d3d;}.cls-4{fill:#9bff00;}</style></defs><title>Truck</title><rect class="cls-1" x="86.84" y="82.39" width="99.51" height="21.9"/><rect class="cls-1" x="86.84" y="26.12" width="99.51" height="56.26"/><path class="cls-2" d="M228.26,104.29H186.35V69.13H214a14.25,14.25,0,0,1,14.25,14.25Z"/><path class="cls-3" d="M188.71,107.18H133.57c-.55,5.22-2.23,10.09-6.88,12.74a20.84,20.84,0,0,1-9.77,2.87c-8,0-13.35-5.78-15.11-15.72H90.24c-4.95,0-6.59-1.66-6.65-6.64,0-1.12,0-2.25,0-3.84a44.73,44.73,0,0,1-7.09-.11c-1.2-.2-2.22-1.5-3.33-2.3,1.07-.84,2.13-2.37,3.22-2.4,7.38-.21,14.77-.11,22.16-.11,1.76,0,3.34.72,2.92,2.6-.21.94-1.86,2.1-3,2.2-3.14.3-6.33.1-9.76.1v5.53c4.36,0,8.74.07,13.11-.08.64,0,1.45-.95,1.83-1.65,3-5.53,7.64-8.63,13.88-8.66s11.11,3,14.16,8.7a3.2,3.2,0,0,0,2.14,1.62c15.39.1,30.78.07,46.18.08h3.59c0-3.93,0-7.67,0-11.41a37.11,37.11,0,0,1,.16-6.75c.2-1,1.67-1.85,2.57-2.77.73,1,2,1.89,2.09,2.88.22,5,.09,10.05.12,15.08,0,.94.16,1.88.24,2.82l.85.17c.44-.83.85-1.67,1.32-2.49a15.58,15.58,0,0,1,26.46-1.13c2.8,4.09,2.8,4.09,8.22,3.25V91.72c-1.57-.23-3.09-.32-4.55-.68A7.2,7.2,0,0,1,215.42,84c0-8-1.27-8.23,7.49-8.1a20,20,0,0,0,2.26-.24c-1.07-3.11-3.19-5-6.09-5.08-10-.21-20.05-.08-30.25-.08a8.29,8.29,0,0,1-.37,2.86c-.49.87-1.55,2.14-2.17,2a4.14,4.14,0,0,1-2.42-2.15,7.09,7.09,0,0,1-.21-3q0-18.93,0-37.86c0-1.23,0-2.45,0-3.93H88.52c0,1.08,0,2.17,0,3.26q0,19.86,0,39.71a6.88,6.88,0,0,1-.45,3,2.4,2.4,0,0,1-2,1.09A3.11,3.11,0,0,1,84,74a7,7,0,0,1-.4-3q0-20.32,0-40.64c0-5.49,1.66-7.12,7.19-7.12H181c6.26,0,7.53,1.27,7.62,7.54,0,.9.1,1.8.18,3,5.86,0,11.58,0,17.31,0,7.43,0,11.62,4.32,11.45,11.74a3.83,3.83,0,0,1-.09,1.52c-3.2,6.3,1.59,11.64,2.14,17.48,0,.5,1.06,1.06,1.74,1.32,6.46,2.45,9.42,6.62,9.44,13.57,0,7.9-.07,15.8,0,23.7,0,2.9-1,4.19-4,4-2-.14-4.08,0-6.45,0-.4,5.46-2.27,10.33-7,13a20.61,20.61,0,0,1-9.82,2.71C195.62,122.69,190.45,117,188.71,107.18Zm25.82-41.94c-1.27-5.17-2.39-9.93-3.66-14.65a2.27,2.27,0,0,0-1.66-1.34c-6.73-.09-13.46-.06-20.32-.06v16Zm.75,42A10.67,10.67,0,1,0,204.57,118,10.83,10.83,0,0,0,215.28,107.22ZM117.81,118A10.71,10.71,0,1,0,107,107.27,10.92,10.92,0,0,0,117.81,118Zm94.76-73.92c-.29-3.29-1.95-5.17-4.62-5.28-6.3-.26-12.61-.08-19.11-.08v5.36ZM225.7,81h-5.1c-.59,4.73.62,5.92,5.26,5.15,0-1,0-2,0-3C225.83,82.51,225.76,81.82,225.7,81Z"/><path class="cls-3" d="M133.44,70c7-7.09,13.47-13.74,20.05-20.32,1.4-1.4,2.91-4.19,5.21-2,2.53,2.4-.42,4-1.86,5.43C150.08,60,143.25,66.8,136.43,73.6c-2.67,2.66-3.13,2.67-5.74.1-3.65-3.6-7.26-7.23-10.9-10.83-1.37-1.35-2.86-2.85-1-4.66s3.15-.25,4.4,1.05Z"/><path class="cls-3" d="M156.86,96.6c-5.63,0-11.26,0-16.88,0-1.77,0-3.52-.22-3.51-2.41s1.68-2.53,3.49-2.53q17.34,0,34.69,0c1.87,0,3.42.59,3.36,2.66s-1.62,2.3-3.34,2.29C168.73,96.57,162.79,96.6,156.86,96.6Z"/><path class="cls-3" d="M96.72,86c-4.93,0-9.85,0-14.78,0-1.83,0-3.64-.44-3.24-2.56.18-1,2.05-2.25,3.18-2.27,9.85-.18,19.7-.09,29.55-.12,1.87,0,3.61.55,3.28,2.57-.15.94-2.06,2.2-3.22,2.26C106.58,86.17,101.64,86,96.72,86Z"/><path class="cls-1" d="M214.53,65.24H188.89v-16c6.87,0,13.6,0,20.32.06a2.27,2.27,0,0,1,1.66,1.34C212.14,55.31,213.26,60.06,214.53,65.24Z"/><path class="cls-4" d="M215.28,107.22a10.67,10.67,0,1,1-10.63-10.61A10.8,10.8,0,0,1,215.28,107.22Zm-10.64-5a5.39,5.39,0,0,0-5.16,5.1,5.12,5.12,0,0,0,10.25.06A5.33,5.33,0,0,0,204.64,102.19Z"/><path class="cls-4" d="M117.81,118a10.71,10.71,0,1,1,10.62-11A10.87,10.87,0,0,1,117.81,118Zm5-10.68a5.33,5.33,0,0,0-5.09-5.16,5.26,5.26,0,0,0-5.11,5.1,5.13,5.13,0,0,0,5,5.11A5.26,5.26,0,0,0,122.84,107.35Z"/><path class="cls-2" d="M212.56,44.12H188.84V38.75c6.5,0,12.81-.17,19.11.08C210.62,38.94,212.27,40.83,212.56,44.12Z"/><path class="cls-1" d="M225.7,81c.06.82.13,1.5.15,2.19,0,1,0,2,0,3-4.64.77-5.85-.42-5.26-5.15Z"/><path class="cls-3" d="M204.64,102.19a5.33,5.33,0,0,1,5.09,5.16,5.12,5.12,0,0,1-10.25-.06A5.39,5.39,0,0,1,204.64,102.19Z"/><path class="cls-3" d="M122.84,107.35a5.26,5.26,0,0,1-5.16,5,5.13,5.13,0,0,1-5-5.11,5.26,5.26,0,0,1,5.11-5.1A5.33,5.33,0,0,1,122.84,107.35Z"/></svg>